<?xml version="1.0" encoding="UTF-8" standalone="no"?>
<!-- Created with Inkscape (http://www.inkscape.org/) -->

<svg
   version="1.1"
   id="svg2"
   width="500"
   height="500"
   viewBox="0 0 500 500"
   sodipodi:docname="4100_5_07.eps"
   xml:space="preserve"
   xmlns:inkscape="http://www.inkscape.org/namespaces/inkscape"
   xmlns:sodipodi="http://sodipodi.sourceforge.net/DTD/sodipodi-0.dtd"
   xmlns="http://www.w3.org/2000/svg"
   xmlns:svg="http://www.w3.org/2000/svg"><defs
     id="defs6" /><sodipodi:namedview
     id="namedview4"
     pagecolor="#ffffff"
     bordercolor="#000000"
     borderopacity="0.25"
     inkscape:showpageshadow="2"
     inkscape:pageopacity="0.0"
     inkscape:pagecheckerboard="0"
     inkscape:deskcolor="#d1d1d1"
     showgrid="false" /><g
     id="g10"
     inkscape:groupmode="layer"
     inkscape:label="Page 1"
     transform="matrix(1.3333333,0,0,-1.3333333,0,5333.3332)"><g
       id="g12"
       transform="matrix(0.009375,0,0,0.009375,0,3625)"><path
         d="M 0,0 H 40000 V 40000 H 0 Z"
         style="fill:#1f2937;fill-opacity:1;fill-rule:nonzero;stroke:none"
         id="path14" /><path
         d="m 31897.5,28516.8 c 271.2,-345.1 433.7,-780.1 433.7,-1253.1 0,-1120.6 -908.7,-2029.2 -2029.3,-2029.2 -75.3,0 -149.9,4.3 -223.3,12.5 -164.8,-955.2 -996.8,-1681.8 -1998.9,-1681.8 -503.7,0 -964.4,184 -1319.1,487.9 -366.3,-528.8 -977,-875.3 -1668.9,-875.3 -830.1,0 -1543.1,498.4 -1857.6,1211.8 -367.2,-367.6 -874.9,-595.5 -1435.7,-595.5 -1052.6,0 -1917.6,801.3 -2019.4,1827.1 -107,-17.5 -216.6,-27 -328.9,-27 -1120.7,0 -2029,908.6 -2029,2029.2 0,399.3 115.9,771.6 315.1,1085.7 -242.7,334.5 -386.1,745.4 -386.1,1190.3 0,783.1 443.6,1462.2 1093.2,1800.4 -15.8,102.4 -24.4,207.4 -24.4,314.1 0,1120.7 908.6,2029.3 2029.3,2029.3 268.5,0 524.5,-52.6 759,-147.3 315.4,711.1 1027.2,1207.5 1855.2,1207.5 559.1,0 1065.5,-225.9 1432.4,-591.9 372.3,444.2 930.8,727 1555.7,727 922.8,0 1701.3,-616.3 1947.7,-1459.2 234.8,94.8 491.1,147.6 759.9,147.6 1120.7,0 2029.3,-908.6 2029.3,-2029.3 0,-21.4 -1,-42.9 -1.6,-64.4 919.2,-193.2 1609.8,-1008.6 1609.8,-1985.6 0,-509.3 -188.3,-974.4 -498.1,-1330.8"
         style="fill:#ffffff;fill-opacity:1;fill-rule:nonzero;stroke:none"
         id="path16" /><path
         d="m 25091.5,23528 c -829.7,0 -1543,498.1 -1857.2,1211.8 -367.4,-367.8 -875,-595.8 -1435.8,-595.8 -729.8,0 -1369.4,385.3 -1727,963.4 -67.9,165.2 -113.2,343 -131.7,529.8 -4.4,44.4 -27,85 -62.4,112.2 -20.7,15.9 -44.8,26.5 -70.1,31 -12.3,62.5 -21.7,126.2 -28.1,190.7 -107.3,-17.5 -216.9,-27 -329.3,-27 -726.1,0 -1362.9,381.7 -1721.2,955.3 -94,222.8 -146,467.4 -146,724 0,333 88.5,658.1 256.5,944.3 152.8,-969.2 991.9,-1710.6 2003.9,-1710.6 112.4,0 222.1,9.5 329.3,27 101.7,-1025.9 966.7,-1827 2019.3,-1827 560.8,0 1068.4,227.9 1435.8,595.3 314.2,-713.3 1027.5,-1211.8 1857.2,-1211.8 691.9,0 1302.8,346.8 1669,875.4 354.7,-303.8 815.4,-487.7 1319.1,-487.7 1002.1,0 1834.2,726.4 1999,1681.7 73.5,-8.4 148.1,-12.7 223.2,-12.7 578.7,0 1100.3,242.7 1469.8,631.5 -14.9,-207.6 -63.9,-405.8 -141.3,-589.2 -358.4,-573.5 -995.4,-955 -1721.7,-955 -75.1,0 -149.8,4 -223.2,12.3 -11.4,-65.9 -25.9,-130.7 -43.5,-194.3 -58.4,-16.4 -104.8,-64.9 -115.7,-128.1 -24.1,-139.7 -63.2,-273.5 -115.6,-399.7 -357.8,-576.1 -996.2,-959.6 -1724.3,-959.6 -503.6,0 -964.3,183.9 -1319,487.8 -366.2,-528.7 -977.1,-875 -1669,-875 m -7277.2,5352.4 c -198.3,303.4 -302.6,653.8 -302.6,1019 0,339.9 91.1,664.6 256.1,945.7 50.8,-322.5 177.6,-619.7 361.5,-873.3 -199,-313.8 -315,-686.3 -315,-1085.5 0,-2 0,-3.9 0,-5.9"
         style="fill:#b2b2d4;fill-opacity:1;fill-rule:nonzero;stroke:none"
         id="path18" /><path
         d="m 23234.1,24551.2 c 9.9,0 19.9,-1 29.7,-2.8 52.5,-9.8 96.7,-44.8 118.2,-93.7 298.6,-677.5 969.7,-1115.3 1709.7,-1115.3 612.3,0 1186.6,301.1 1536.1,805.6 26,37.6 66.7,62.4 112.1,68.3 45.4,5.8 91,-7.8 125.8,-37.6 337.9,-289.5 769.1,-448.9 1214,-448.9 911.3,0 1685,650.9 1839.7,1547.7 14.5,84.3 92.2,142.5 177.3,133.1 68,-7.7 137.1,-11.6 205.2,-11.6 1029.9,0 1867.7,837.9 1867.7,1867.8 0,422 -138,820.9 -399.1,1153.2 -47.9,61 -45.8,147.4 5.1,205.8 295.6,340.1 458.4,775.1 458.4,1224.8 0,878.5 -623,1647.1 -1481.5,1827.5 -76.6,16.2 -130.6,84.8 -128.2,163.1 l 0.6,17 c 0.4,14.1 1,28.3 1,42.5 0,1029.8 -837.9,1867.6 -1867.7,1867.6 -240.8,0 -476.2,-45.7 -699.6,-135.8 -42.3,-17.1 -89.8,-15.5 -130.9,4.4 -41.1,19.9 -71.8,56.2 -84.6,100.1 -231.2,790.6 -968.3,1342.9 -1792.6,1342.9 -553.6,0 -1075.5,-243.9 -1431.9,-669.1 -29,-34.8 -71.3,-55.7 -116.6,-57.7 -45,-2 -89.2,15 -121.3,47 -352.1,351.3 -820.3,544.7 -1318.3,544.7 -737.8,0 -1408.1,-436.3 -1707.5,-1111.5 -35.4,-79.7 -127.5,-117 -208.3,-84.3 -222.4,90 -457.4,135.6 -698.4,135.6 -1029.9,0 -1867.7,-837.8 -1867.7,-1867.7 0,-95.5 7.6,-192.9 22.5,-289.3 10.6,-68.5 -23.6,-136.1 -85,-168.1 -620.7,-323.1 -1006.3,-958.1 -1006.3,-1657.1 0,-396.3 122.8,-775.1 355.3,-1095.4 38.9,-53.6 41.1,-125.5 5.7,-181.4 -189.7,-299.3 -290,-644.7 -290,-999.2 0,-1029.9 837.7,-1867.7 1867.4,-1867.7 99.5,0 201.4,8.4 302.9,25 44,7.3 89.1,-4.1 124.4,-31.3 35.4,-27.2 58,-67.8 62.4,-112.2 95.1,-958.6 894.1,-1681.5 1858.6,-1681.5 498.9,0 968.2,194.6 1321.5,548.1 30.5,30.6 71.8,47.4 114.2,47.4 m 1857.6,-1535 c -794,0 -1520.3,429.6 -1906.5,1111.2 -390.6,-320.6 -875.4,-494.9 -1386.8,-494.9 -1075.6,0 -1975.7,766.6 -2157.7,1808.6 -63.9,-5.7 -127.7,-8.5 -190.6,-8.5 -1207.9,0 -2190.6,982.8 -2190.6,2190.8 0,379.8 98.1,750.7 284.7,1079.6 -233,356.3 -355.7,767.6 -355.7,1196.4 0,781.8 411.2,1495.4 1080.6,1888.6 -7.8,75.5 -11.8,151.2 -11.8,225.9 0,1208 982.9,2190.8 2190.9,2190.8 231.9,0 459.1,-36 677.4,-107.2 377.5,713.9 1122,1167.4 1936.8,1167.4 527.3,0 1026.2,-184.9 1422.2,-524.1 411.3,420.9 973.1,659.2 1565.9,659.2 909.4,0 1728.4,-573.1 2048.2,-1413 213.2,67.4 434.3,101.5 659.5,101.5 1187.1,0 2156.8,-949.1 2189.9,-2128.4 939.9,-258.7 1609.1,-1126.7 1609.1,-2112.5 0,-484.1 -160.8,-953.5 -455.1,-1335.7 256,-367.7 390.6,-796.6 390.6,-1248.1 0,-1208.1 -982.8,-2190.9 -2190.8,-2190.9 -31.2,0 -62.6,0.7 -94,2 -236.2,-976.8 -1108.8,-1671.2 -2128.2,-1671.2 -464.5,0 -916.2,148.1 -1289.5,420.1 -414.6,-508.6 -1037.6,-807.6 -1698.5,-807.6"
         style="fill:#000072;fill-opacity:1;fill-rule:nonzero;stroke:none"
         id="path20" /><path
         d="M 29851.8,8121.2 C 29463.5,7866.4 28933,7682.4 28345.3,7555 v -0.6 c -1698,-371.1 -3871.1,-276.9 -4455.7,-71.4 -38.2,4.3 -76.3,8 -115.7,11.7 -1188.1,111.9 -2791.7,29.1 -4424.7,-53.6 -2285.2,-115.7 -4627.7,-231.5 -5968.7,185.9 -2140.4,666.5 3560.3,6657.7 6512.5,8304.6 4221.2,2354.6 8852.9,2960.8 11145.4,-774.8 1573,-2562.6 1649.9,-6065.7 -1186.6,-7035.6"
         style="fill:#9696aa;fill-opacity:1;fill-rule:nonzero;stroke:none"
         id="path22" /><path
         d="m 31690.1,13297.3 c -171.9,460.1 -391.4,910.2 -651.7,1334.5 -1162.1,1893.6 -2925.7,2671.7 -4931.7,2671.7 -792.1,0 -1621.5,-121.1 -2467.2,-342.8 20.3,120.8 39.4,242.1 57.2,363.3 846,220.4 1654.4,333 2409.1,333 27.1,0 54.2,-0.1 81.2,-0.4 2081.4,-22.3 3664.6,-893.5 4705.6,-2589.5 350.9,-571.7 618.5,-1171.9 797.5,-1769.8"
         style="fill:#cbcbd5;fill-opacity:1;fill-rule:nonzero;stroke:none"
         id="path24" /><path
         d="m 26042.1,8879.5 c -120,23.6 -240,47.8 -360.1,72.3 -55.9,11.2 -111,22.6 -166.3,34.1 -220.1,1133 -192.7,2989 2021.5,3770.7 0.1,-0.1 0.1,-0.1 0.1,-0.2 -786.4,-318.4 -1315.5,-1024.5 -1554.1,-1815.3 h -0.5 c -95.9,-317.6 -144.9,-648.9 -145,-974.4 0,-380.7 67,-753.6 204.4,-1087.2"
         style="fill:#696999;fill-opacity:1;fill-rule:nonzero;stroke:none"
         id="path26" /><path
         d="m 19892.9,15931.6 h 0.5 -0.5 m 2506.3,-8211.1 c 549.6,0 1057.9,-18.7 1508.4,-67.1 l 19.7,-2.1 18.7,-6.6 c 776.8,-272.4 4359,-332.8 5812.1,619.6 l 18.1,11.9 20.4,7 c 951.2,325.2 1599.8,952.7 1928.1,1864.9 498.5,1385.7 179.7,3270.5 -832.1,4919 -1041,1696 -2624.2,2567.2 -4705.6,2589.5 -1827,19.7 -3977,-628.7 -6210.7,-1874.7 -1228,-685 -2981.9,-2158.3 -4468.2,-3753.4 C 13918.9,10323 13013.4,8887.6 13086,8188.6 c 21.3,-204.8 131,-331.3 345.3,-398 1320.1,-411 3674.5,-291.8 5951.5,-176.4 1068.3,54.1 2099.7,106.3 3016.4,106.3 m 3381.3,-588.2 c -877.4,0 -1613.3,79.2 -1928.2,182.2 -1173.2,123.4 -2766.1,42.7 -4452.1,-42.7 -2306.9,-116.8 -4692.4,-237.7 -6070.8,191.5 -346.6,107.9 -548.7,346.5 -584.4,689.9 -119.1,1147.4 1717.2,3255.8 2512.3,4109 1508.7,1619 3295.5,3118.1 4552.1,3819 2285.6,1275.1 4493.4,1936.8 6381.3,1918.2 1049.6,-11.3 1995.8,-234.2 2812.4,-662.7 879.7,-461.7 1613.7,-1164.9 2181.6,-2090.3 1065,-1735 1395.5,-3733.1 862.5,-5214.4 -357.7,-994.2 -1090.4,-1708.2 -2119.4,-2066.2 -980.6,-631 -2744.6,-833.5 -4147.3,-833.5"
         style="fill:#000072;fill-opacity:1;fill-rule:nonzero;stroke:none"
         id="path28" /><path
         d="m 30203.9,8477.6 c -679.5,-1092.4 -2129.4,-899.2 -2129.4,-899.2 -1934.3,0 -2551.6,1839.5 -2091.8,3362.7 h 0.5 c 249.9,828.4 818.6,1563.8 1667.9,1858 0,0 2689.4,355.1 2886.3,-2610 51.7,-776.1 -92.3,-1324.4 -333.5,-1711.5"
         style="fill:#9696aa;fill-opacity:1;fill-rule:nonzero;stroke:none"
         id="path30" /><path
         d="m 27197.3,8679.6 c -385.4,53.9 -770.2,124 -1155.2,199.9 -137.4,333.6 -204.4,706.5 -204.4,1087.2 0.1,325.5 49.1,656.8 145,974.4 h 0.5 c 0,0 242.7,-1610.8 1214.1,-2261.5"
         style="fill:#696999;fill-opacity:1;fill-rule:nonzero;stroke:none"
         id="path32" /><path
         d="m 27679.1,12718.4 c -268.9,-115.7 -513.4,-275.9 -723.2,-472.2 -210,-196 -385.8,-426.7 -525.6,-677.2 -279.3,-501.1 -422.7,-1080.6 -408.8,-1651.9 6,-285.3 52.2,-569.1 144.1,-834.5 89.6,-266.1 230.5,-511.3 415.1,-713.8 184,-203.6 414.7,-360 670.9,-462.3 256.7,-102.7 537.9,-147.5 823.2,-156.4 l 3.7,-0.1 c 94.6,-3 168.9,-82.1 165.9,-176.7 -2.8,-92.1 -78.3,-165 -169.6,-166 -319.8,-3.1 -646.5,43.3 -954.8,159.5 -308.6,114.3 -592.4,305.6 -816,549.9 -223.9,244.5 -388.5,537.4 -491.7,845 -103.2,308.2 -151.3,630 -154.9,949.6 -2.9,638.8 164.1,1276 498.3,1819.8 167.5,270.8 378.4,516.6 627.8,715.6 248.7,199.2 536.2,349.7 839.4,433.6 45.7,12.6 93,-14.2 105.7,-59.9 11.5,-41.9 -10,-85.1 -48.9,-101.8 l -0.6,-0.2"
         style="fill:#000072;fill-opacity:1;fill-rule:nonzero;stroke:none"
         id="path34" /><path
         d="M 24234.3,11494.4 C 23881.5,7972.2 19692.1,7523.1 17717,7130.6 h -2492.1 c -1276.4,253.8 -3478.1,530.9 -4970.9,1646.5 -360.58,269.3 -679.76,587.5 -934.84,966 -181.47,269.7 -330.37,570.2 -438.58,905.7 -72.92,227.2 -127.19,470.4 -160.09,731.3 -12.56,99 -22.05,200.4 -28.16,304.6 -18.32,304.9 -8.48,632.2 32.56,983 35.62,303.9 268.31,1343.5 585.45,2362.5 107.87,347 225.56,691.6 348.69,1003.6 -450.45,2000.3 -633.95,4519.5 43.09,5387.5 440.28,564.4 1632.18,-2.1 3438.78,-1549.8 1290.3,568.1 3058.8,601.4 3330.2,600.4 271.3,1 2039.9,-32.3 3329.9,-600.4 1806.5,1547.7 2998.5,2114.2 3438.7,1549.8 677.1,-868 493.6,-3387.2 43.1,-5387.5 484.4,-1228.9 886.3,-2958.8 934.2,-3366.1 49.8,-425 53.5,-815.1 17.3,-1173.3"
         style="fill:#9696aa;fill-opacity:1;fill-rule:nonzero;stroke:none"
         id="path36" /><path
         d="m 19801,19368.8 c -1272.4,560.4 -3010.5,600.4 -3318.1,600.4 -4.2,0 -8.1,0 -11.8,0 -3.7,0 -7.6,0 -11.9,0 -307.3,0 -2045.5,-39.9 -3318.3,-600.4 -1348,1154.9 -2353.9,1763.4 -2960.5,1763.4 -206.41,0 -366.52,-70.3 -478.28,-213.6 -52.15,-66.8 -99.2,-143.5 -141.41,-228.9 65.35,258.3 156.25,472 276.51,626.1 67.39,86.4 155.67,132.3 277.78,144.5 20.9,2.1 43,3.3 66.7,3.3 397.7,0 1208.5,-317.8 2847.7,-1722.3 l 81.9,-70.2 98.7,43.5 c 1328.9,585.2 3183.7,585 3261.5,586 79.1,0 1931.5,-0.7 3260.5,-586 l 98.6,-43.5 81.9,70.2 c 1638.3,1403.8 2448.6,1722.3 2846.9,1722.3 23.9,0 46.4,-1.1 67.5,-3.3 122.1,-12.2 210.4,-58.1 277.8,-144.5 120.3,-154.2 211.2,-367.9 276.6,-626.4 -42.3,85.6 -89.4,162.3 -141.6,229.2 -111.7,143.2 -271.9,213.6 -478.2,213.6 -606.7,0 -1612.4,-608.4 -2960.5,-1763.4"
         style="fill:#cbcbd5;fill-opacity:1;fill-rule:nonzero;stroke:none"
         id="path38" /><path
         d="M 24234.3,11494.4 C 23881.5,7972.2 19692.1,7523.1 17717,7130.6 h -2492.1 c -1276.4,253.8 -3478.1,530.9 -4970.9,1646.5 -360.58,269.3 -679.76,587.5 -934.84,966 -181.47,269.7 -330.37,570.2 -438.58,905.7 -72.92,227.2 -127.19,470.4 -160.09,731.3 3051.01,-2620.3 5253.11,-1445 6237.81,556.6 380.2,772.7 1128.8,847 1453.8,847 324.9,0 1073.5,-74.3 1453.4,-847 998.6,-2030.1 3250.2,-3210.5 6368.8,-442.3"
         style="fill:#ffffff;fill-opacity:1;fill-rule:nonzero;stroke:none"
         id="path40" /><path
         d="m 16470.6,7302 c -810.1,0 -1614.5,73.9 -2394.1,219.8 0.2,6.9 0.3,13.8 0.4,20.6 0.6,36.9 0,72.9 -1.8,108 -0.7,14.9 -1.7,29.7 -2.9,44.3 -0.1,4.6 -0.6,8.8 -1,12.7 -3,33 -7,65.1 -12,96.5 -0.7,4.6 -1.5,9.3 -2.3,13.9 -2.4,14.2 -5.1,28.3 -8,42.2 -87.6,422.9 -373.3,691.5 -775,876.4 1198.5,-163.4 2403,-245.3 3196.7,-245.3 419.7,0 980.8,30.2 1609.4,91.1 -4.6,-2.8 -9.2,-5.6 -13.9,-8.5 -79,-48.8 -156.4,-101.5 -230.8,-159.5 -148.7,-115.8 -287.5,-251.2 -401,-413.5 -112.9,-161.4 -200.2,-353.1 -226.4,-563.9 -5.1,-37.9 -7.9,-76.2 -8.4,-114.7 -242.6,-13.4 -485.6,-20.1 -728.9,-20.1 m -5985.8,2028 c -276,56 -544.59,122.4 -795.81,208 -82.15,97.4 -158.07,197.7 -227.49,300.8 -5.38,8 -10.71,16 -16.02,24 40.82,-32.5 82.16,-64.3 124.01,-95.6 215.31,-160.9 531.51,-306.6 915.31,-437.2"
         style="fill:#b2b2d4;fill-opacity:1;fill-rule:nonzero;stroke:none"
         id="path42" /><path
         d="m 11917.5,16351 c -91.6,142.7 515.2,1419.2 1659.2,1042.3 412.1,-135.8 450.8,-537.6 131.4,-623.3 -304.4,-81.7 -441.4,-15.8 -913.1,-181.9 -266.9,-93.9 -785.9,-379.8 -877.5,-237.1"
         style="fill:#000072;fill-opacity:1;fill-rule:nonzero;stroke:none"
         id="path44" /><path
         d="m 21024.4,16351 c 91.6,142.7 -515.2,1419.2 -1659.2,1042.3 -412,-135.8 -450.8,-537.6 -131.4,-623.3 304.4,-81.7 441.4,-15.8 913.1,-181.9 266.9,-93.9 785.9,-379.8 877.5,-237.1"
         style="fill:#000072;fill-opacity:1;fill-rule:nonzero;stroke:none"
         id="path46" /><path
         d="m 11279.2,18362.3 c -555.5,-592.4 -905.6,-1421.3 -955,-1324.5 -4.8,9.3 -9.6,20.4 -14.4,33.4 -105.2,271.5 -279,1347.7 -276.7,2306.5 0.7,154.6 5,291.2 13.1,411.5 21.7,324.9 68.2,533.2 125.1,666.4 70.5,162.8 228.6,212.5 368.5,157.6 371.8,-146.6 1427.6,-843.1 1771.3,-1289.1 61.2,-79.3 -476,-369.4 -1031.9,-961.8"
         style="fill:#ff699f;fill-opacity:1;fill-rule:nonzero;stroke:none"
         id="path48" /><path
         d="m 10334.9,17030 c -4.4,0 -8,2.6 -10.7,7.8 -4.8,9.3 -9.6,20.4 -14.4,33.4 124.3,503 465.8,1197.6 727.5,1699.9 357.7,685.8 -132.7,1232.1 -558.5,1395.9 -14.8,5.7 -29.8,8.4 -45,8.4 -135.5,0 -286.2,-211.6 -387.6,-386.2 21.7,324.9 68.2,533.2 125.1,666.4 52.2,120.5 152.4,179.1 257.7,179.1 36.9,0 74.4,-7.2 110.8,-21.5 371.8,-146.6 1427.6,-843.1 1771.3,-1289.1 3.2,-4.2 4.8,-9 4.7,-14.3 -0.2,-96.5 -510.1,-386.4 -1036.6,-947.5 -525.4,-560.3 -867,-1332.3 -944.3,-1332.3"
         style="fill:#b24991;fill-opacity:1;fill-rule:nonzero;stroke:none"
         id="path50" /><path
         d="m 10183.3,19377.1 c -2.2,-793.3 112.5,-1609.9 202.6,-2020.4 8.9,14.8 17.8,29.6 26.5,44.1 169.6,282.9 425.9,710.4 757.5,1064 296,315.6 590.6,550.4 785.5,705.8 60.7,48.4 126.5,100.9 171.6,140.3 -385,429.5 -1316.7,1034.5 -1642.2,1162.5 -58.7,23.1 -135.7,14.9 -175.7,-77.5 -82.1,-191.4 -124.5,-534.3 -125.8,-1018.8 z m 274.5,-2271.1 h 0.5 z m -120.7,-226 c -2.5,0 -5.2,0.1 -7.8,0.2 -59.3,2 -111.2,35.5 -138.8,89.5 -123.2,241.8 -309.91,1416.9 -307.25,2408.2 1.47,532.5 50.64,904.3 150.35,1136.7 98.2,227.3 334.1,327.1 561,238 380.4,-149.6 1470.1,-862.9 1835.5,-1336.9 46.5,-60.4 72.8,-160.5 -66.3,-294.6 -51.5,-49.6 -126.5,-109.4 -221.4,-185 -199.4,-159 -472.6,-376.7 -753.6,-676.5 -309.7,-330.2 -556.1,-741.1 -719.1,-1013 -166.8,-278.2 -219.8,-366.6 -332.6,-366.6"
         style="fill:#000072;fill-opacity:1;fill-rule:nonzero;stroke:none"
         id="path52" /><path
         d="m 21682.1,18362.3 c 555.4,-592.4 905.5,-1421.3 954.9,-1324.5 4.8,9.3 9.6,20.4 14.4,33.4 105.2,271.5 279.1,1347.7 276.7,2306.5 -0.7,154.6 -4.9,291.2 -13.1,411.5 -21.7,324.9 -68.2,533.2 -125.1,666.4 -70.5,162.8 -228.6,212.5 -368.5,157.6 -371.8,-146.6 -1427.6,-843.1 -1771.2,-1289.1 -61.3,-79.3 476,-369.4 1031.9,-961.8"
         style="fill:#ff699f;fill-opacity:1;fill-rule:nonzero;stroke:none"
         id="path54" /><path
         d="m 22626.3,17030 c -77.2,0.1 -418.9,772 -944.2,1332.3 -526.6,561.1 -1036.5,851 -1036.7,947.5 0,5.3 1.5,10.1 4.8,14.3 343.6,446 1399.4,1142.5 1771.2,1289.1 36.4,14.3 73.9,21.5 110.9,21.5 105.2,0 205.4,-58.6 257.6,-179.1 56.9,-133.2 103.4,-341.5 125.1,-666.4 -101.3,174.6 -252.1,386.2 -387.6,386.2 -15.2,0 -30.2,-2.7 -44.9,-8.4 -425.9,-163.8 -916.3,-710.1 -558.6,-1395.9 261.7,-502.3 603.2,-1196.9 727.5,-1699.9 -4.8,-13 -9.6,-24.1 -14.4,-33.4 -2.7,-5.2 -6.2,-7.8 -10.7,-7.8"
         style="fill:#b24991;fill-opacity:1;fill-rule:nonzero;stroke:none"
         id="path56" /><path
         d="m 20834.2,19310.9 c 45.1,-39.4 110.9,-91.9 171.6,-140.2 194.9,-155.4 489.5,-390.3 785.5,-705.9 331.6,-353.6 587.9,-781.1 757.5,-1064 8.7,-14.5 17.6,-29.3 26.5,-44.1 90.1,410.5 204.8,1227.2 202.7,2020.4 -1.3,484.4 -43.7,827.3 -126.1,1019.2 -39.7,91.9 -116.5,100.2 -175.5,77.1 -325.4,-128 -1257.2,-733 -1642.2,-1162.5 z M 22624.1,16880 c -112.8,0 -165.8,88.3 -332.6,366.6 -163,271.9 -409.4,682.8 -719,1013 -281.1,299.8 -554.3,517.5 -753.7,676.5 -94.9,75.7 -169.9,135.4 -221.3,185 -139.2,134 -112.9,234.2 -66.3,294.6 365.3,474 1455.1,1187.3 1835.4,1336.9 227.1,89.1 462.8,-10.7 560.9,-237.6 99.8,-232.9 149,-604.7 150.5,-1137.1 2.6,-991.3 -184.1,-2166.4 -307.3,-2408.1 -27.6,-54.1 -79.5,-87.6 -138.8,-89.6 -2.6,-0.1 -5.2,-0.2 -7.8,-0.2"
         style="fill:#000072;fill-opacity:1;fill-rule:nonzero;stroke:none"
         id="path58" /><path
         d="m 10181.7,21463.6 c -23.7,0 -45.8,-1.2 -66.7,-3.3 -122.11,-12.2 -210.39,-58.1 -277.78,-144.5 -635.38,-814.5 -451.09,-3289.4 -10.97,-5244.3 l 11.56,-51.4 -19.33,-49.1 c -113.33,-287.6 -229.24,-621.2 -344.51,-991.7 -326.23,-1048.4 -546.9,-2059.9 -578.74,-2331.5 -38.96,-332.4 -49.72,-653 -31.95,-952.9 20.85,-352 81.59,-686.4 180.59,-993.7 99.15,-307.8 239.64,-598 417.63,-862.4 229.95,-341.5 531.03,-652.6 894.9,-924.5 1039.4,-776.6 2433.1,-1132.4 3531,-1355.6 838.4,-170.4 1707.5,-256.7 2583.2,-256.7 883.2,0 1765.3,89 2621.7,264.5 2523.4,517.1 5367,1562 4954.4,5081.3 -48.6,414.5 -458.5,2144 -923.3,3323.2 l -19.3,49.1 11.6,51.4 c 440.1,1954.9 624.4,4429.8 -11,5244.3 -67.4,86.4 -155.7,132.3 -277.8,144.5 -371.3,37.7 -1177.6,-230.9 -2914.4,-1719 l -81.9,-70.2 -98.6,43.5 c -1329,585.3 -3181.4,586 -3260.5,586 -77.8,-1 -1932.6,-0.8 -3261.5,-586 l -98.7,-43.5 -81.9,70.2 c -1639.2,1404.5 -2450,1722.3 -2847.7,1722.3 M 16470.6,6959.2 c -898.6,0 -1790.7,88.6 -2651.5,263.6 -1133,230.3 -2573.8,599.5 -3667.9,1416.9 -394.81,295.1 -722.54,634.1 -974.05,1007.7 -195.95,291.1 -350.59,610.3 -459.56,948.7 -107.82,334.9 -173.96,697.7 -196.49,1078.6 -18.95,319.9 -7.62,660.7 33.66,1013 38.62,329.2 282.47,1399.1 591.92,2393.5 111.25,357.6 223.42,682.4 333.67,966.4 -463.67,2088.7 -615.41,4579.2 86.63,5479.1 125.39,160.7 298.25,253.1 513.82,274.8 633.5,63.2 1645,-502.9 3090.6,-1730.8 1384.7,571.8 3221.2,572.8 3300.1,572.7 78.6,-0.8 1914.3,-0.8 3299.1,-572.7 1445.5,1227.9 2456.8,1793.7 3090.5,1730.8 215.6,-21.7 388.5,-114.1 513.9,-274.8 702,-899.9 550.2,-3390.4 86.6,-5479.1 474.4,-1221.9 874.6,-2925.7 925.5,-3359.9 202.3,-1725.5 -322.8,-3078.4 -1560.7,-4021.1 -1090.8,-830.5 -2531.8,-1203.7 -3665.3,-1436 -879,-180.1 -1784.2,-271.4 -2690.5,-271.4"
         style="fill:#000072;fill-opacity:1;fill-rule:nonzero;stroke:none"
         id="path60" /><path
         d="m 17524.2,10710.7 c 20.3,111.8 33.1,217.6 41.2,309.8 77.7,67.2 136.2,146 176.8,212 -0.1,-0.1 -0.2,-0.1 -0.3,-0.1 48.9,79.2 72.2,139.8 72.2,139.8 0,0 0.4,3.6 0.9,10.5 l 6.4,-5 c 0,0 0.2,-449.9 -297.2,-667 m -2162.5,6.7 c -288.7,219.4 -288.4,660.3 -288.4,660.3 v 0.1 c 0,-0.1 0,-0.2 0,-0.2 0,0 23.1,-60.8 71.7,-140.2 0,0 -0.1,0 -0.2,0 40.6,-66.2 98.9,-145.3 176.5,-212.9 7.9,-91.3 20.5,-196.2 40.4,-307.1 m 1093.3,954.3 -11.5,2 -10,-1.7 c 0.3,4.2 0.5,8.4 0.7,12.6 6.7,0.1 13.4,0.4 20.1,0.8 0.2,-4.5 0.4,-9 0.7,-13.7"
         style="fill:#b2b2d4;fill-opacity:1;fill-rule:nonzero;stroke:none"
         id="path62" /><path
         d="m 17317.4,10480 c -119.1,-416.1 -366,-825.6 -873.9,-825.6 -507.9,0 -754.7,409.5 -873.8,825.6 -123.8,430.1 -111.6,867.2 -111.6,867.2 l 985.4,174.7 985.5,-174.7 c 0,0 12.2,-437.1 -111.6,-867.2"
         style="fill:#000072;fill-opacity:1;fill-rule:nonzero;stroke:none"
         id="path64" /><path
         d="m 17317.4,10480 c -119.1,-416.1 -366,-825.6 -873.9,-825.6 -507.9,0 -754.7,409.5 -873.8,825.6 110.4,68.4 243.3,108.2 386.4,108.2 189.3,0 361.6,-69.8 487.4,-183.7 125.8,113.9 297.4,183.7 487,183.7 143.2,0 276.1,-39.8 386.9,-108.2"
         style="fill:#ff5760;fill-opacity:1;fill-rule:nonzero;stroke:none"
         id="path66" /><path
         d="m 16809.6,10578.5 c -258.8,0 -317.7,-396.3 -366,-396.3 -48.3,0 -80.4,396.3 -366.1,396.3 -84.2,0 366.1,122.5 366.1,122.5 0,0 450.3,-122.5 366,-122.5"
         style="fill:#000072;fill-opacity:1;fill-rule:nonzero;stroke:none"
         id="path68" /><path
         d="m 15609,11222.3 c 9.4,-266.5 65.4,-906.5 380.6,-1230.1 123.5,-126.9 272,-188.5 453.9,-188.5 182.2,0 330.8,61.8 454.3,188.8 315.8,324.7 371.3,963.5 380.4,1229.7 l -834.7,148 -834.5,-147.9 m 834.5,-1717.4 c -263.3,0 -488.2,94 -668.5,279.3 -490.2,504.1 -467.5,1524 -466.3,1567.2 l 3.4,121.7 1131.4,200.6 1131.4,-200.6 3.4,-121.7 c 1.2,-43.2 23.9,-1063.1 -466.2,-1567.2 -180.3,-185.3 -405.2,-279.3 -668.6,-279.3"
         style="fill:#000072;fill-opacity:1;fill-rule:nonzero;stroke:none"
         id="path70" /><path
         d="m 17814.1,11372.2 c 0,0 -240.2,-626.4 -799.3,-480.5 -636.5,166 -558.4,925.2 -558.4,925.2 h -23.6 c 0,0 75,-759.5 -562.1,-923 -559.6,-143.6 -797.4,483.7 -797.4,483.7 0,0 -156.8,1406.2 1367.8,1406.2 1524.5,0 1373,-1411.6 1373,-1411.6"
         style="fill:#ffffff;fill-opacity:1;fill-rule:nonzero;stroke:none"
         id="path72" /><path
         d="m 17565.4,11020.5 c 0,0.1 0,0.2 0.1,0.3 77.4,67.2 135.8,145.8 176.4,211.6 0.1,0 0.2,0 0.3,0.1 -40.6,-66 -99.1,-144.8 -176.8,-212 m -1110.2,651.2 h -0.2 c -0.3,4.7 -0.5,9.2 -0.7,13.7 0.1,0 0.1,0 0.2,0 0.2,-4.5 0.4,-9.1 0.7,-13.7"
         style="fill:#7c7cb6;fill-opacity:1;fill-rule:nonzero;stroke:none"
         id="path74" /><path
         d="m 17221.3,10871.2 c 9,0.6 18,1.5 26.8,2.6 v 0 c -8.9,-1.1 -17.8,-2 -26.8,-2.6 m -596.1,277.1 c -48.9,66.1 -84.2,137.9 -109.5,209.1 h 0.1 c 25.3,-71.3 60.5,-143 109.4,-209.1"
         style="fill:#000072;fill-opacity:1;fill-rule:nonzero;stroke:none"
         id="path76" /><path
         d="m 17248.1,10873.8 v 0 c 128.9,15.8 234.2,74.8 317.4,147 -0.1,-0.1 -0.1,-0.2 -0.1,-0.3 -83.2,-72.1 -188.4,-131 -317.3,-146.7 m -732.3,483.6 h -0.1 c -41,115.1 -56,228.8 -60.7,314.3 h 0.2 c 4.7,-85.5 19.7,-199.2 60.6,-314.3"
         style="fill:#000072;fill-opacity:1;fill-rule:nonzero;stroke:none"
         id="path78" /><path
         d="m 17179.8,10869.7 c -51.5,0 -106.4,6.8 -164.8,22.1 -182.3,47.5 -306,143.6 -389.8,256.5 -48.9,66.1 -84.1,137.8 -109.4,209.1 -40.9,115.1 -55.9,228.8 -60.6,314.3 -0.3,4.6 -0.5,9.2 -0.7,13.7 74.6,4.2 148.9,19.4 221.2,45.6 136.3,-195.7 356.5,-374 710.6,-466.5 95.4,-24.8 185.1,-36.1 269.3,-36.1 29.4,0 58.2,1.3 86.3,4 -40.6,-65.8 -99,-144.4 -176.4,-211.6 -83.2,-72.2 -188.5,-131.2 -317.4,-147 -8.8,-1.1 -17.8,-2 -26.8,-2.6 -13.6,-1 -27.4,-1.5 -41.5,-1.5"
         style="fill:#b2b2d4;fill-opacity:1;fill-rule:nonzero;stroke:none"
         id="path80" /><path
         d="m 15321.3,11024.5 c -77.6,67.6 -135.9,146.7 -176.5,212.9 0.1,0 0.2,0 0.2,0 40.5,-66.2 98.8,-145.2 176.3,-212.8 0,-0.1 0,-0.1 0,-0.1 m 1112.1,647.4 c 0.3,4.3 0.5,8.5 0.7,12.7 h 0.1 c -0.2,-4.2 -0.4,-8.4 -0.7,-12.6 l -0.1,-0.1"
         style="fill:#7c7cb6;fill-opacity:1;fill-rule:nonzero;stroke:none"
         id="path82" /><path
         d="m 15708.5,10872.5 c -23.9,0 -47.1,1.4 -69.5,4.2 0,0 0,0 -0.1,0.1 22.5,-2.8 45.6,-4.2 69.5,-4.2 50.7,0 104.9,6.6 162.3,21.3 288.8,74.1 431.3,270.7 500.8,463.5 l 0.1,0.1 c -69.5,-192.9 -212,-389.6 -501,-463.7 -57.4,-14.7 -111.4,-21.3 -162.1,-21.3"
         style="fill:#000072;fill-opacity:1;fill-rule:nonzero;stroke:none"
         id="path84" /><path
         d="m 15639,10876.7 c -129.2,16 -234.5,75.2 -317.7,147.8 0,0 0,0 0,0.1 83.1,-72.6 188.4,-131.9 317.6,-147.8 0.1,-0.1 0.1,-0.1 0.1,-0.1 m 732.5,480.7 c 41.5,115.2 56.9,229 61.9,314.5 l 0.1,0.1 c -5,-85.6 -20.5,-199.4 -61.9,-314.5 l -0.1,-0.1"
         style="fill:#000072;fill-opacity:1;fill-rule:nonzero;stroke:none"
         id="path86" /><path
         d="m 15708.4,10872.6 c -23.9,0 -47,1.4 -69.5,4.2 -129.2,15.9 -234.5,75.2 -317.6,147.8 -77.5,67.6 -135.8,146.6 -176.3,212.8 27.9,-2.6 56.4,-3.9 85.5,-3.9 83.3,0 172,10.9 266.4,35 344.2,88.4 562.6,258.2 700.5,446.7 70.7,-20.6 142.8,-31 215,-31 7.2,0 14.5,0.1 21.7,0.4 -0.2,-4.2 -0.4,-8.4 -0.7,-12.7 -5,-85.5 -20.4,-199.3 -61.9,-314.5 -69.5,-192.8 -212,-389.4 -500.8,-463.5 -57.4,-14.7 -111.6,-21.3 -162.3,-21.3"
         style="fill:#b2b2d4;fill-opacity:1;fill-rule:nonzero;stroke:none"
         id="path88" /><path
         d="m 15164.3,11412.1 c 19.1,-30.1 43.6,-68.2 68.2,-100.1 24.1,-33.6 51.1,-64.4 77.8,-94.2 54.6,-58.6 114.4,-107.8 177.5,-140.7 62.6,-34.4 128,-50.7 195.3,-55.9 34.6,3 68.4,-1 104,9.1 17.6,4.2 35.4,5.3 53.1,10.3 l 53.1,17.5 c 141.8,46.3 248.6,144.9 322.5,280.2 37,67.3 63.9,144.1 83.4,224.2 19.5,78.7 32.1,167.5 36.8,244.8 l 0.5,8.7 c 3.2,53.7 49.3,94.6 103,91.3 46.1,-2.7 82.8,-37.2 90.2,-80.8 9.4,-55.4 13.1,-101.8 14.3,-153 1.5,-50.1 -0.9,-100.3 -6.2,-150.7 -11.4,-100.5 -32.5,-203 -76.6,-300.7 -79.8,-196.7 -257.5,-374.6 -466.4,-443.2 l -77.4,-26.3 c -26.3,-7.9 -54.5,-11.5 -81.9,-16.5 -54,-12.4 -113,-9.2 -169.9,-9.9 -116.1,8.7 -229.3,49.9 -323.5,110.7 -94.3,61.8 -169.6,141.3 -228.1,227 -28.9,43.1 -54.6,87.6 -76.5,133.5 -22.5,46.8 -39.4,91.1 -55.2,145.8 -14.8,51.6 14.9,105.5 66.6,120.4 42.5,12.2 86.5,-5.8 109.1,-41.4 l 6.3,-10.1"
         style="fill:#000072;fill-opacity:1;fill-rule:nonzero;stroke:none"
         id="path90" /><path
         d="m 17904.9,11337.4 c -15.9,-54.7 -33,-98.8 -55.7,-145.5 -22,-45.9 -47.9,-90.2 -77,-133.3 -58.9,-85.5 -134.5,-164.6 -229,-226.1 -94.5,-60.4 -207.8,-101.2 -324,-109.4 -56.9,0.9 -115.9,-2 -169.9,10.6 -27.3,5.1 -55.5,8.8 -81.7,16.8 l -77.4,26.6 c -208.6,69.4 -385.6,248.1 -464.6,445.1 -43.7,97.8 -64.4,200.5 -75.4,301 -5.1,50.4 -7.3,100.6 -5.6,150.7 1.4,51.1 5.3,97.6 14.9,152.9 9.3,53 59.7,88.5 112.7,79.2 45.4,-7.9 78,-46.2 80.5,-90.4 l 0.5,-8.7 c 4.3,-77.4 16.6,-166.2 35.8,-245 19.1,-80.2 45.7,-157.1 82.4,-224.5 73.4,-135.6 179.8,-234.6 321.5,-281.5 l 53,-17.6 c 17.7,-5.1 35.5,-6.3 53,-10.6 35.6,-10.3 69.4,-6.3 104,-9.6 67.3,5 132.8,21.1 195.5,55.2 63.2,32.6 123.3,81.7 178,140 26.9,29.7 54,60.4 78.2,93.9 24.8,31.8 49.4,69.8 68.6,99.9 l 6.4,9.9 c 28.9,45.3 89,58.6 134.3,29.7 37.3,-23.8 52.8,-68.9 41,-109.3"
         style="fill:#000072;fill-opacity:1;fill-rule:nonzero;stroke:none"
         id="path92" /><path
         d="m 17212.4,12213.4 c -0.4,-179.7 -235,-337.9 -450.3,-445.3 -225.2,-112.3 -477.3,-111.8 -702,1.4 -214.9,108.3 -448.9,267.4 -448.5,447 1,541.9 1601.9,538.7 1600.8,-3.1"
         style="fill:#000072;fill-opacity:1;fill-rule:nonzero;stroke:none"
         id="path94" /><path
         d="m 16412.7,12168.2 c -47.6,0 -95.1,8.2 -139.9,24.7 -85.3,31.2 -178.1,77.2 -178,129 0.2,77.8 157.7,116.5 315.7,116.5 159.3,0 319.2,-39.4 319.1,-117.8 -0.2,-51.8 -93.1,-97.4 -178.5,-128.3 -44.4,-16.1 -91.4,-24.1 -138.4,-24.1"
         style="fill:#8080b9;fill-opacity:1;fill-rule:nonzero;stroke:none"
         id="path96" /><path
         d="m 9651.54,11760.3 c -30.32,17.2 -65.69,35.9 -99.66,53.2 -33.81,18.2 -68.69,35.1 -103.82,51.6 -34.7,17.1 -69.94,33.3 -105.89,48.3 -35.96,14.8 -70.58,32.1 -106.72,46.6 -144.06,58.4 -288.91,114.9 -437.35,161.3 -296.08,94.2 -597.98,172.1 -905.92,219.1 -76.52,14.4 -154.43,19.4 -231.5,30.5 l -115.93,14.6 c -38.69,4.5 -77.7,5.4 -116.55,8.4 -77.79,4.8 -155.58,9.8 -233.41,15.9 l -234.16,3.1 c -156.49,7.1 -312.2,-11.5 -468.99,-15.1 l -58.79,-2.4 -58.42,-6.4 -116.97,-12.7 -234.71,-23.7 -5.79,-0.6 c -47.04,-4.7 -89.02,29.6 -93.77,76.6 -4.5,44.6 26.38,84.7 69.61,92.8 l 238.56,44 119.65,21.2 59.89,10.6 60.4,6.6 c 80.53,9.2 161.28,17.2 242.11,24.7 40.45,3.2 80.75,9.3 121.36,10.1 l 121.78,3.7 243.87,6.8 c 81.31,-2.3 162.66,-5.6 244,-9.2 40.65,-2.2 81.45,-2.5 121.99,-6.3 l 121.56,-12.6 c 80.93,-9.3 162.44,-14.7 242.75,-29 l 241.2,-41 c 80.08,-15.4 159.3,-35.5 238.74,-54 79.88,-16.9 157.45,-43 236,-65.1 78.6,-22 155.32,-50.2 232.12,-78 307.38,-113.5 600.62,-253.5 871.41,-453.5 38.01,-28.1 46.08,-81.6 17.99,-119.7 -26.03,-35.2 -74,-44.7 -111.16,-23.6 l -5.48,3.2"
         style="fill:#000072;fill-opacity:1;fill-rule:nonzero;stroke:none"
         id="path98" /><path
         d="m 9859.45,10543.4 c -132.51,15.3 -272.62,25.7 -409.43,31.1 -137.56,5.5 -275.07,7.4 -412.27,4.3 -274.19,-7.2 -547.65,-29.4 -815.1,-81.5 -133.7,-25.8 -266.18,-57.2 -395.62,-97.8 -65.28,-18.9 -128.51,-43 -192.97,-64.3 -62.76,-25.3 -126.84,-48 -187.96,-77.1 -247.94,-109.7 -478.37,-255.6 -689.69,-428.3 l -1.35,-1.1 c -36.67,-30 -90.69,-24.5 -120.68,12.1 -28.01,34.3 -24.82,84 5.6,114.8 205.05,206.1 445.09,380.9 707.55,509.8 130.43,65.9 265.15,123.9 403.95,168.8 138.25,46.6 279.15,85.1 421.89,112.7 284.97,58.1 575.33,84 864.08,78 289.65,-6.2 574.26,-38.3 858.59,-114.1 45.74,-12.1 72.94,-59.1 60.76,-104.8 -11.09,-41.7 -51.03,-68 -92.63,-63.1 l -4.72,0.5"
         style="fill:#000072;fill-opacity:1;fill-rule:nonzero;stroke:none"
         id="path100" /><path
         d="m 23191.7,11900.4 c 270.8,200 564.1,340 871.4,453.5 76.8,27.8 153.6,56 232.2,78 78.5,22.1 156.1,48.2 236,65.1 79.4,18.5 158.6,38.6 238.7,54 l 241.2,41 c 80.3,14.3 161.8,19.7 242.7,29 l 121.6,12.6 c 40.5,3.8 81.3,4.1 122,6.3 81.3,3.6 162.7,6.9 244,9.2 l 243.9,-6.8 121.7,-3.7 c 40.6,-0.8 80.9,-6.9 121.4,-10.1 80.8,-7.5 161.6,-15.5 242.1,-24.7 l 60.4,-6.6 59.9,-10.6 119.7,-21.2 238.5,-44 c 46.5,-8.6 77.2,-53.3 68.6,-99.8 -8.1,-44 -48.6,-73.9 -92.4,-69.6 l -6.1,0.6 -234.7,23.7 -117,12.7 -58.4,6.4 -58.8,2.4 c -156.8,3.6 -312.5,22.2 -469,15.1 l -234.2,-3.1 c -77.8,-6.1 -155.6,-11.1 -233.4,-15.9 -38.8,-3 -77.9,-3.9 -116.5,-8.4 l -116,-14.6 c -77,-11.1 -154.9,-16.1 -231.5,-30.5 -307.9,-47 -609.8,-124.9 -905.9,-219.1 -148.4,-46.4 -293.3,-102.9 -437.3,-161.3 -36.2,-14.5 -70.8,-31.8 -106.8,-46.6 -35.9,-15 -71.1,-31.2 -105.9,-48.3 -35.1,-16.5 -70,-33.4 -103.8,-51.6 -33.9,-17.3 -69.3,-36 -99.6,-53.2 l -5.5,-3.1 c -41.1,-23.4 -93.4,-9 -116.7,32.1 -21.7,38.1 -10.9,85.8 23.5,111.1"
         style="fill:#000072;fill-opacity:1;fill-rule:nonzero;stroke:none"
         id="path102" /><path
         d="m 23045.9,10710.8 c 284.3,75.8 568.9,107.9 858.6,114.1 288.7,6 579.1,-19.9 864,-78 142.8,-27.6 283.7,-66.1 421.9,-112.7 138.8,-44.9 273.6,-102.9 404,-168.8 262.4,-128.9 502.5,-303.7 707.5,-509.8 33.4,-33.6 33.3,-87.9 -0.3,-121.3 -31.4,-31.2 -80.8,-33.1 -114.4,-5.9 l -1.7,1.4 c -211.3,172.7 -441.7,318.6 -689.7,428.3 -61.1,29.1 -125.2,51.8 -187.9,77.1 -64.5,21.3 -127.7,45.4 -193,64.3 -129.5,40.6 -261.9,72 -395.6,97.8 -267.5,52.1 -541,74.3 -815.1,81.5 -137.2,3.1 -274.7,1.2 -412.3,-4.3 -136.8,-5.4 -276.9,-15.8 -409.4,-31.1 l -4.7,-0.5 c -47.1,-5.5 -89.6,28.3 -95,75.3 -5,42.8 22.6,81.9 63.1,92.6"
         style="fill:#000072;fill-opacity:1;fill-rule:nonzero;stroke:none"
         id="path104" /><path
         d="m 14076,7506.4 c -19.7,-556.3 -693.6,-906.5 -1590.9,-953.9 -1592.1,-84.9 -2585.42,51.7 -3190.38,454.8 -217.88,145.2 -379.11,337.3 -484.34,555.7 -320.66,662.9 -129.87,1563.8 552.65,2102.3 357.55,-160 766.17,-265.8 1190.27,-348.9 1671.5,-326.2 3577.4,-294.8 3522.7,-1810"
         style="fill:#9696aa;fill-opacity:1;fill-rule:nonzero;stroke:none"
         id="path106" /><path
         d="m 14076.9,7542.4 c 0.1,2.4 0.1,4.9 0.1,7.4 0.1,6.7 0.1,13.4 0.1,20.1 0,27.4 -0.7,54.1 -2,80.5 1.8,-35.1 2.4,-71.1 1.8,-108"
         style="fill:#7c7cb6;fill-opacity:1;fill-rule:nonzero;stroke:none"
         id="path108" /><path
         d="m 8810.38,7563 v 0 0 c -179.1,370.5 -198.8,815.5 -61.54,1230.3 20.9,-163.1 66.46,-320.7 137.23,-467.1 17.65,-36.7 36.88,-72.6 57.68,-107.6 -62.47,-187.5 -101.41,-386.1 -124.89,-579.5 -3.09,-25.5 -5.91,-50.8 -8.48,-76.1 v 0"
         style="fill:#696999;fill-opacity:1;fill-rule:nonzero;stroke:none"
         id="path110" /><path
         d="m 14076,7506.4 c -19.7,-556.3 -693.6,-906.5 -1590.9,-953.9 -1592.1,-84.9 -2585.42,51.7 -3190.38,454.8 -217.88,145.2 -379.11,337.3 -484.34,555.7 56.62,556.4 236.31,1168.7 720.67,1466 260.93,160 626.45,246.8 1022.25,287.4 1671.5,-326.2 3577.4,-294.8 3522.7,-1810"
         style="fill:#ffffff;fill-opacity:1;fill-rule:nonzero;stroke:none"
         id="path112" /><path
         d="m 14076.5,7521.8 v 0 c 0.2,6.9 0.3,13.8 0.4,20.6 -0.1,-6.8 -0.2,-13.7 -0.4,-20.6"
         style="fill:#5757a1;fill-opacity:1;fill-rule:nonzero;stroke:none"
         id="path114" /><path
         d="m 14076,7506.4 v 0 c 0.2,5.2 0.3,10.3 0.5,15.4 v 0 c -0.2,-5.1 -0.3,-10.2 -0.5,-15.4"
         style="fill:#000072;fill-opacity:1;fill-rule:nonzero;stroke:none"
         id="path116" /><path
         d="m 14076.5,7521.8 v 0 c 0.2,9.4 0.4,18.7 0.5,28 0,-2.5 0,-5 -0.1,-7.4 -0.1,-6.8 -0.2,-13.7 -0.4,-20.6"
         style="fill:#3d3d93;fill-opacity:1;fill-rule:nonzero;stroke:none"
         id="path118" /><path
         d="m 14076,7506.4 c 0.2,5.2 0.3,10.3 0.5,15.4 v 0 c -0.2,-5.1 -0.3,-10.2 -0.5,-15.4"
         style="fill:#000072;fill-opacity:1;fill-rule:nonzero;stroke:none"
         id="path120" /><path
         d="m 8943.85,8218.4 c -0.03,0.1 -0.07,0.1 -0.1,0.2 0.06,0.1 0.11,0.3 0.17,0.5 0.03,-0.1 0.07,-0.1 0.1,-0.2 -0.05,-0.2 -0.11,-0.3 -0.17,-0.5"
         style="fill:#49498d;fill-opacity:1;fill-rule:nonzero;stroke:none"
         id="path122" /><path
         d="m 8818.86,7639.1 c 23.48,193.4 62.42,392 124.89,579.5 0.03,-0.1 0.07,-0.1 0.1,-0.2 -62.29,-187.6 -101.46,-385.8 -124.99,-579.3"
         style="fill:#333385;fill-opacity:1;fill-rule:nonzero;stroke:none"
         id="path124" /><path
         d="m 14072.2,7694.7 c -0.3,4.3 -0.7,8.4 -1,12.7 0.4,-3.9 0.9,-8.1 1,-12.7"
         style="fill:#5757a1;fill-opacity:1;fill-rule:nonzero;stroke:none"
         id="path126" /><path
         d="m 14059.2,7803.9 c -3.1,19 -6.5,37.7 -10.3,56.1 2.9,-13.9 5.6,-28 8,-42.2 0.8,-4.6 1.6,-9.3 2.3,-13.9"
         style="fill:#5757a1;fill-opacity:1;fill-rule:nonzero;stroke:none"
         id="path128" /><path
         d="m 11648.9,6528.4 c -1115.9,0 -1862.99,151.6 -2354.18,478.9 -217.88,145.2 -379.11,337.3 -484.34,555.7 2.57,25.3 5.39,50.6 8.48,76.1 23.53,193.5 62.7,391.7 124.99,579.3 0.06,0.2 0.12,0.3 0.17,0.5 102.76,-174.1 244.89,-327.3 426.39,-448.5 491.17,-327.2 1238.39,-478.9 2354.19,-478.9 258.5,0 536.7,8.2 836.2,24.1 687.4,36.3 1243.8,250.5 1475.2,598.9 4.6,-17.7 8.9,-35.9 12.9,-54.5 3.8,-18.4 7.2,-37.1 10.3,-56.1 2.1,-13.3 3.9,-26.6 5.7,-40.2 2.4,-17.9 4.3,-36.3 6.2,-55.4 0,-0.3 0,-0.6 0.1,-0.9 0.3,-4.3 0.7,-8.4 1,-12.7 0.1,-1 0.1,-2 0.1,-3 1.2,-16 2.4,-32 3.1,-48.7 1.2,-30.2 1.9,-61.3 1.6,-93.2 v 0 c -0.1,-9.3 -0.3,-18.6 -0.5,-28 -0.2,-5.1 -0.3,-10.2 -0.5,-15.4 v 0 0 c -4.1,-114.3 -35.8,-220 -91.4,-316.1 -214.8,-371.4 -786.7,-600.2 -1499.5,-637.8 -299.4,-16 -577.7,-24.1 -836.2,-24.1"
         style="fill:#b2b2d4;fill-opacity:1;fill-rule:nonzero;stroke:none"
         id="path130" /><path
         d="m 9392.38,9466.1 c -371.95,-330.5 -580.15,-803.7 -560.84,-1284.6 17.29,-430.6 220.66,-806.5 557.96,-1031.4 568,-378.6 1519.9,-510.2 3086.6,-426.7 839.1,44.8 1413.4,362 1428.8,789.2 37.1,1022.4 -914.5,1243.1 -2486.1,1485.1 -698.3,107.5 -1419.19,218.5 -2026.42,468.4 z M 11654.2,6357 c -1163.7,0 -1937.01,162.7 -2454.83,507.9 -429.69,286.5 -688.58,761.3 -710.33,1302.9 -25.03,622.4 262.05,1232.5 767.91,1631.9 l 81.43,64.3 94.73,-42.4 C 10018,9560.2 10756.6,9446.5 11471,9336.5 c 1390,-214 2827.3,-435.3 2776.5,-1836.3 -22.6,-624.1 -710.8,-1063.4 -1753.1,-1119.1 -300.5,-16 -580.2,-24.1 -840.2,-24.1"
         style="fill:#000072;fill-opacity:1;fill-rule:nonzero;stroke:none"
         id="path132" /><path
         d="m 11738.2,7954.2 c 43,-14.1 75.1,-28.4 110.6,-45.8 34.6,-17.1 68,-36.3 100.3,-57.5 64.8,-42.3 125.2,-93.1 178.7,-152.1 107.2,-117 182.1,-272.2 207,-431.1 27.7,-153.3 22.2,-330 -51.9,-491.3 -72.5,-161.8 -204.8,-287.4 -343.5,-371.9 l -2.6,-1.6 c -81,-49.4 -186.6,-23.8 -236,57.1 -49.3,81 -23.7,186.6 57.2,236 4.7,2.9 9.8,5.6 14.6,8 103.8,50.2 188.9,118.2 241.2,207.4 53.3,88.5 73.2,202.2 63.9,323.6 -6,118.1 -45.5,229.5 -116.1,326.9 -35.2,48.4 -77.7,93.1 -125.9,132.4 -24,19.7 -49.3,38.1 -75.7,54.8 -25.3,16.3 -55.8,33 -78.1,43.3 l -6.4,2.9 c -42.9,19.9 -61.6,70.7 -41.7,113.6 18.4,39.9 63.7,58.8 104.4,45.3"
         style="fill:#000072;fill-opacity:1;fill-rule:nonzero;stroke:none"
         id="path134" /><path
         d="m 12902,8144.5 c 87.9,-34.3 160.1,-75 233.8,-125.1 72.2,-49.8 140,-108.4 199.8,-176.9 60,-68.1 110.8,-147.1 148.4,-233.5 18.5,-43.2 33.4,-88.5 44.9,-134.2 10.1,-43.8 18.3,-88.4 23.7,-133.9 22,-180.7 -4.5,-383.4 -110.6,-556.4 -103.7,-173.7 -284.7,-300.8 -480,-348.6 l -5.2,-1.3 c -92,-22.5 -184.9,33.8 -207.5,125.9 -22.5,92 33.8,184.9 125.9,207.5 4.2,1 8.8,1.9 13,2.6 119.4,19.6 227.6,82.5 298.7,180.6 72,97.5 105.4,229.4 99.8,368.1 -1.3,34.7 -5,69.8 -10.1,105 -5,33.1 -11.8,65.5 -21.7,97.6 -20.3,63.9 -50.9,125.9 -91.8,183.2 -40.5,57.5 -90.2,110.8 -146,158.4 -54.7,46.8 -120.3,91.6 -179.8,122.2 l -5.6,2.9 c -42,21.6 -58.5,73.2 -36.9,115.3 20.2,39.2 66.9,56.1 107.2,40.6"
         style="fill:#000072;fill-opacity:1;fill-rule:nonzero;stroke:none"
         id="path136" /><path
         d="m 22981.2,6461.4 c -324.9,-81.2 -710.2,-147.7 -1168.1,-193.2 -363.1,-36.3 -2494.9,-198.8 -3552.8,100.9 -1094.3,309.6 -1217.4,1411.8 6.7,2100.5 569.9,321.2 1627.2,418.5 2730.7,604.3 1219.1,205 2496.2,517 3236.5,1354.6 l 408.7,-2327 c 0,0 415.4,-1120 -1661.7,-1640.1"
         style="fill:#9696aa;fill-opacity:1;fill-rule:nonzero;stroke:none"
         id="path138" /><path
         d="m 22981.2,6461.4 c -324.9,-81.2 -710.2,-147.7 -1168.1,-193.2 -363.1,-36.3 -2494.9,-198.8 -3552.8,100.9 -1094.3,309.6 -1217.4,1411.8 6.7,2100.5 569.9,321.2 1627.2,418.5 2730.7,604.3 478.2,-185.8 990.8,-514.5 1347.8,-1093 422.1,-684.3 486.1,-1218.5 635.7,-1519.5"
         style="fill:#ffffff;fill-opacity:1;fill-rule:nonzero;stroke:none"
         id="path140" /><path
         d="m 20143.6,6382 c -256.3,0 -512.2,6 -766.2,21.2 -338.4,21.5 -678.3,55.1 -993.1,133.9 -156.4,38 -297.9,93.3 -423.8,171.7 -124.5,78.2 -227.8,179.4 -292.9,296.4 -65.5,117 -91.1,249.6 -74.3,383.8 14.3,120.3 62,240.8 132.8,352.4 119.8,-270.7 391.9,-493.9 796.9,-608.5 483.9,-137.1 1192.6,-177.5 1853.7,-177.5 784.5,0 1502.2,56.8 1699.2,76.5 81.3,8.2 160.4,17 237.2,26.3 -23.1,-183.3 -15.7,-365.7 22.1,-542.5 -130.3,-19.8 -261.4,-36.7 -392.9,-51.2 -169.5,-18.8 -337.6,-31.2 -510,-42 -342.8,-21.3 -686.6,-34 -1029.6,-38.6 -86.4,-1.2 -172.7,-1.9 -259.1,-1.9"
         style="fill:#b2b2d4;fill-opacity:1;fill-rule:nonzero;stroke:none"
         id="path142" /><path
         d="m 24723.4,8131.2 c 25.7,-52.1 39.6,-94.7 51.9,-143.7 12.4,-47.7 19,-96.5 22.9,-145.7 7.3,-98.5 -1.6,-199.1 -25.5,-296 -46.5,-195.2 -152.9,-371.8 -284.2,-513.7 -132.4,-142.4 -287.4,-254 -447.1,-348.1 -160.4,-93.6 -327.5,-169.2 -497,-232.8 -339.3,-127.5 -687.6,-209.3 -1036.5,-271.3 -174.6,-30.6 -349.6,-55.5 -524.7,-76.3 -87.1,-9.5 -175.8,-20 -263.7,-27.5 l -262.2,-21.3 c -697.8,-49.9 -1396.8,-72.2 -2102.1,-34.7 -352.8,21.4 -706.7,53 -1065.7,140.7 -180.3,43 -367.1,112.4 -535.9,217.4 -168.9,104.8 -324.4,250.9 -427.4,438.2 -104.3,185.7 -146.4,410.7 -118.3,620.4 26.2,210.8 113.5,402.5 226.4,563.9 113.5,162.3 252.3,297.7 401,413.5 74.4,58 151.8,110.7 230.8,159.5 39.9,24.5 78.8,47.5 120.7,70.4 42.8,23.4 85.9,44.6 129.1,64.5 173.3,78.6 348.1,132.1 522.1,178.7 174.2,45.5 347.9,82 521.1,114.4 346.5,64.5 691.2,112.7 1033.6,164 683.9,101.9 1363.4,208.4 2012,403 323.3,98 638.5,218 930,375.7 291.7,159.8 558.9,340.3 835.4,540.8 l 1.4,1 c 39,28.4 93.7,19.7 122,-19.4 20.9,-28.8 21.6,-66.2 5,-95.1 -184.4,-318.8 -482.2,-557.7 -798.8,-729 -317.3,-175.1 -652.6,-305.4 -991.5,-411.4 -679.3,-210.2 -1373.8,-324.1 -2059.3,-432.6 -342.8,-54.1 -684.3,-106.4 -1019.3,-170 -333.2,-64.5 -666.9,-139.2 -954.5,-268.6 -35.4,-16.4 -70,-33.6 -103.2,-52 -34.1,-18.7 -69.8,-39.9 -103.7,-60.9 -68.3,-42.5 -134.2,-87.8 -196.4,-136.6 -124.2,-97.3 -235,-207.9 -320,-330.4 -84.9,-122.2 -142.6,-256.9 -158.5,-391.2 -16.8,-134.2 8.8,-266.8 74.3,-383.8 65.1,-117 168.4,-218.2 292.9,-296.4 125.9,-78.4 267.4,-133.7 423.8,-171.7 314.8,-78.8 654.7,-112.4 993.1,-133.9 339.5,-20.4 682.3,-24.2 1025.3,-19.3 343,4.6 686.8,17.3 1029.6,38.6 172.4,10.8 340.5,23.2 510,42 169.3,18.7 337.9,41.2 505,69.1 333.7,56.3 663.9,131.7 975,245.8 309.6,113.4 605.2,268.2 821,486.5 107.3,108.4 195.8,229.7 251.7,366.7 28.1,68.3 48.4,140.4 59.9,215.2 6,37.4 8.8,75.4 10.5,113.7 1.5,36.9 -0.9,80 -2.7,110.1 l -1,16.6 c -3,47 32.8,87.5 79.9,90.4 35.3,2.2 67,-17.5 81.8,-47.4"
         style="fill:#000072;fill-opacity:1;fill-rule:nonzero;stroke:none"
         id="path144" /><path
         d="m 19696.3,7497.1 c -23.5,-10.8 -55.4,-28.4 -81.8,-45.6 -27.5,-17.8 -53.8,-37.3 -78.7,-58.1 -49.8,-41.7 -93.6,-89 -129,-140.5 -71.5,-102.3 -106.5,-224.2 -107.6,-344 -0.4,-118.3 38,-233.3 105.2,-330.4 66.9,-97.2 161.3,-176.2 266.8,-227.7 85.2,-41.6 120.6,-144.3 79.1,-229.5 -41.6,-85.2 -144.3,-120.6 -229.5,-79.1 -4.9,2.4 -9.6,5 -14.2,7.8 l -2.1,1.3 c -148.8,91 -273.9,217.9 -358.7,369.9 -85.1,151.3 -126.3,330.5 -108.7,503.9 17.8,171.2 88.6,335 198.5,461.7 54.4,63.4 117.1,117.6 184.4,162.8 33.7,22.5 68.5,42.9 104.5,61.1 37.2,18.4 70.7,33.5 115.5,48.3 44.9,14.7 93.3,-9.7 108,-54.6 13.8,-41.7 -6.4,-86.5 -45.4,-104.4 l -6.3,-2.9"
         style="fill:#000072;fill-opacity:1;fill-rule:nonzero;stroke:none"
         id="path146" /><path
         d="m 18540.9,7690.5 c -59.5,-30.6 -125.1,-75.5 -179.8,-122.3 -55.8,-47.6 -105.5,-100.8 -146,-158.3 -40.9,-57.4 -71.5,-119.4 -91.8,-183.2 -9.9,-32.1 -16.7,-64.5 -21.7,-97.6 -5.1,-35.3 -8.7,-70.4 -10.1,-105.1 -5.6,-138.7 27.8,-270.6 99.8,-368.1 71.1,-98.1 179.3,-160.9 298.7,-180.5 93.5,-15.4 156.9,-103.6 141.5,-197.2 -15.3,-93.5 -103.6,-156.9 -197.1,-141.5 -4.3,0.7 -8.5,1.6 -12.6,2.6 l -5.6,1.3 c -195.3,47.9 -376.3,174.9 -480,348.6 -106.1,173 -132.6,375.8 -110.6,556.4 5.4,45.6 13.6,90.1 23.7,133.9 11.5,45.7 26.4,91 44.9,134.3 37.6,86.3 88.4,165.3 148.4,233.5 59.8,68.4 127.6,127.1 199.8,176.9 73.7,50 145.9,90.7 233.8,125 44.1,17.2 93.7,-4.6 110.9,-48.7 16,-41.1 -2,-87.1 -40.3,-107 l -5.9,-3"
         style="fill:#000072;fill-opacity:1;fill-rule:nonzero;stroke:none"
         id="path148" /><path
         d="m 26792,10383.3 c -25.3,0 -53.9,6.7 -86.4,20.6 -175.1,74.3 -269.4,560.3 -51.2,1007.1 213.4,437.1 553,848.7 729.1,848.7 10.8,0 21,-1.5 30.5,-4.7 143.7,-48.2 -190.5,-514 -311.8,-1051.5 -116.7,-516.7 -140.7,-820.2 -310.2,-820.2"
         style="fill:#cbcbd5;fill-opacity:1;fill-rule:nonzero;stroke:none"
         id="path150" /><path
         d="m 31733.1,12965.4 c 0,0 1614.5,-3041.2 654.1,-4958.4 -1249.6,-2494.3 -6264,-2232.6 -8350.9,-1768.4 -422,93.8 -1142.1,37.2 -1414.1,768.2 -287.5,772.3 817.8,2213.2 2652.9,1839.8 2147.2,-436.9 4316,-872.5 5570.8,407.6 395.4,403.4 598.2,1085 598.2,1085 0,0 -355.1,202.7 -361.5,924 -8.9,1008.7 650.5,1702.2 650.5,1702.2"
         style="fill:#9696aa;fill-opacity:1;fill-rule:nonzero;stroke:none"
         id="path152" /><path
         d="m 27465.6,6128.3 c -1.5,40.7 -5,82 -10.6,123.8 -5.9,42.8 -13.8,84.9 -24.3,126.2 -121.8,489.6 -559.8,883.5 -1197.6,924.9 -635.1,41.2 -1687,-48.8 -1775.7,270.1 74.3,16 147.6,31.7 211.2,36.8 378.4,30.7 705,48.7 996.3,48.7 526.8,0 938.6,-58.7 1335.3,-206.7 385.5,-143.8 947.3,-436.6 1359.8,-507.5 214.9,-36.9 440.9,-55.1 671.8,-55.1 1359.3,-0.1 2892.8,630.3 3404.8,1779.4 -36.7,-159.8 -86.4,-315.3 -151.1,-463.6 -49.6,-120.2 -117.8,-231.3 -183.5,-343.1 l -113.1,-159 c -38.2,-52.7 -84.5,-99.3 -126.2,-149.4 -176.1,-192.8 -377.8,-364.8 -601.7,-508.3 -224.6,-142.1 -463.1,-265.5 -712.8,-367.3 -61.9,-26.3 -126.3,-47.7 -189.3,-71.9 l -94.9,-35.4 -96.8,-31 -193.9,-61.2 -196.9,-53.2 c -65.2,-18.9 -131.9,-33.3 -198.4,-48.4 -66.5,-14.7 -132.5,-31.6 -199.6,-44.4 -134.3,-25.1 -267.9,-53 -403.6,-72.1 -270,-44.6 -543.2,-72.7 -816.7,-96.4 -230.3,-17.7 -461.2,-29.7 -692.5,-35.9"
         style="fill:#696999;fill-opacity:1;fill-rule:nonzero;stroke:none"
         id="path154" /><path
         d="m 31808.8,13005.6 c 281.6,-493.2 506.5,-1010.2 687.9,-1547.6 l 65.1,-202.4 60.3,-204.1 53.8,-206.3 48.3,-208.1 c 61.5,-278.3 104.2,-562 125.4,-849.1 21.5,-286.9 18.4,-578.1 -18.2,-868.2 -36.6,-289.8 -107.9,-579.2 -225.9,-853 -56.6,-138.2 -133.4,-266.4 -208.9,-394.7 L 32268,7489.6 c -43.6,-60.2 -95.3,-113.7 -142.7,-170.8 -198.5,-219.7 -424.6,-412.7 -669.8,-571.5 -245.8,-157.4 -504.1,-291.7 -770.7,-401.7 -66.2,-28.5 -134.2,-51.7 -201.3,-77.7 l -101,-38 -102.2,-33.3 -204.8,-65.5 -206.7,-57 c -68.8,-20 -138.3,-35.5 -207.8,-51.7 -69.5,-15.6 -138.7,-33.5 -208.5,-47.2 -139.7,-26.9 -279.2,-56.4 -419.7,-76.9 -280.3,-47.4 -562.3,-77.8 -844.3,-103.4 -564.4,-45.9 -1130.1,-58.2 -1694.2,-37.7 -564.2,18.9 -1126.9,67.1 -1686.9,147.1 -140.1,19.5 -279.9,42.7 -419.6,67 -69.8,13 -139.6,25.4 -209.3,39.7 l -205.9,43.1 c -244.9,48.6 -552.5,59.7 -850.1,180.9 -148.7,59.7 -295,151 -411.8,273.1 -117,121.5 -204.1,267.3 -261.4,416.7 -30.6,80.2 -52.8,170 -58.5,254.8 -9.3,86.2 -2.7,169.9 6.7,252.2 23.8,163.2 77.5,315 147.6,454.9 286.9,558.7 818.5,937.4 1395.5,1103.9 144.6,41.9 292.6,71.9 441.7,86.5 74.3,10 149.1,11.4 223.7,15.7 17,-0.1 34,0 51,0.1 57.6,0.3 115.2,0.6 172.4,-3.5 l 111.2,-7.2 c 37.1,-2.7 73.7,-8.3 110.5,-12.4 73.9,-7.3 146.4,-21.5 219.1,-34.5 141.6,-26.9 274.4,-56 411.8,-83.5 545.2,-111 1089.4,-217.1 1635,-288.3 544.8,-70 1093.5,-109.2 1629.2,-58.2 267.1,26.7 530.8,74.7 781.4,156.8 250.1,82.3 489.2,194.2 703.3,344.3 108.7,73 207.9,158.9 305.4,247.2 91,86.9 173.1,188.4 248.6,297 149.2,217.8 274.6,464.9 377.1,713 l 1.7,4.2 c 18.1,43.7 68.2,64.6 112,46.5 39.7,-16.4 60.5,-59.1 50.6,-99.6 -68.9,-282.3 -171.2,-549.3 -316.8,-805.2 -72.8,-127.3 -157.9,-251.2 -262.8,-363.1 -102.5,-105.8 -208.9,-209.8 -329.2,-296.6 -117.6,-90.4 -244,-169 -375,-238 -66.4,-32.6 -132.4,-66.3 -201,-93.4 -67.6,-30.2 -137,-54.5 -206.4,-79.2 -278.4,-96.5 -567.2,-148.1 -854.4,-179.2 -576.1,-58.2 -1148.1,-19.3 -1708.9,48.9 -561.3,69.9 -1113.6,174.4 -1662.1,282.4 -136.2,26.4 -276.2,56 -408.7,80.3 -64.7,11 -129.2,23.5 -194.3,29.3 -32.5,3.4 -64.9,8.4 -97.4,10.5 l -97.5,5.6 c -32.6,2.8 -65,2.5 -97.5,2.3 -12,-0.1 -24.1,0 -36.2,0.1 -20.4,0.1 -40.8,0.2 -61.1,-0.5 -64.6,-4.4 -129.5,-5.6 -193.4,-14.9 -128.4,-13.4 -254.8,-39.7 -377.9,-75.5 -123.5,-34.8 -243,-82.3 -356.7,-140 -113.8,-57.6 -222.9,-124.6 -323.2,-202.5 -199.8,-155.8 -370.3,-350.8 -480.1,-569.9 -54.6,-109.2 -93.8,-224.1 -110,-337.2 -13.9,-113.4 -7.7,-221.2 30.8,-316.3 43,-110.9 103.2,-207.7 179.4,-287.1 76.4,-79.4 171.3,-139.8 281,-184 109.7,-44.4 232.6,-72.4 363.1,-93.7 131.1,-22 268.4,-35 421.2,-65.2 l 203.7,-42.2 201.7,-38.3 c 134.9,-24.1 270.3,-47.2 406.4,-66.7 544,-80.2 1094.4,-129.7 1645,-150.6 550.7,-22.4 1102.3,-12.7 1650.1,29.4 273.5,23.7 546.7,51.8 816.7,96.4 135.7,19.1 269.3,47 403.6,72.1 67.1,12.8 133.1,29.7 199.6,44.4 66.5,15.1 133.2,29.5 198.4,48.4 l 196.9,53.2 193.9,61.2 96.8,31 94.9,35.4 c 63,24.2 127.4,45.6 189.3,71.9 249.7,101.8 488.2,225.2 712.8,367.3 223.9,143.5 425.6,315.5 601.7,508.3 41.7,50.1 88,96.7 126.2,149.4 l 113.1,159 c 65.7,111.8 133.9,222.9 183.5,343.1 104,238.2 169.3,495.2 203.6,758.3 34.4,263.4 38.1,532.7 23,802.1 -33.2,539.5 -144,1078.1 -293.1,1606.4 -151.8,527 -338.2,1051.4 -561.6,1553.1 l -1.3,3.1 c -19.3,43.2 0.2,93.9 43.4,113.1 40.5,18 87.7,1.8 109.3,-35.8"
         style="fill:#000072;fill-opacity:1;fill-rule:nonzero;stroke:none"
         id="path156" /><path
         d="m 25620.6,8776.6 c 0,0 -1941.5,508.7 -2899.6,-760.8 -958.2,-1269.5 -281.5,-2904.3 2036,-3155.8 1960.9,-212.9 2820.5,476 2697.7,1392.2 -73.2,546.6 -529.9,1006.1 -1221.6,1051 -691.6,44.9 -1877.3,-65.9 -1775.5,365.3 0,0 -3.6,152.7 88,191 26.2,11 52.1,6.4 77.3,1.9 39.5,-7.1 77,-14.2 110.8,38.1 55,84.9 1.7,296.4 31.7,472.9 22.9,135.2 146.5,-36.7 259.8,189.8 150.2,300.4 595.4,214.4 595.4,214.4"
         style="fill:#ffffff;fill-opacity:1;fill-rule:nonzero;stroke:none"
         id="path158" /><path
         d="m 25434.2,4820.9 c -209,0 -434.6,12.5 -677.1,38.8 -955.1,103.8 -1631.5,442.5 -2029.6,893.5 398.1,-451.1 1074.4,-789.6 2029.5,-893.2 242.6,-26.4 468.4,-38.9 677.5,-38.9 1155.7,0 1803.3,382.4 1981,931.9 0.1,0 0.1,0 0.2,0 -177.8,-549.5 -825.6,-932.1 -1981.5,-932.1"
         style="fill:#b175cc;fill-opacity:1;fill-rule:nonzero;stroke:none"
         id="path160" /><path
         d="m 27465.4,6128.3 c -1.5,40.8 -5,82.1 -10.7,123.9 -5.7,42.6 -13.7,84.7 -24,126.1 10.5,-41.3 18.4,-83.4 24.3,-126.2 5.6,-41.8 9.1,-83.1 10.6,-123.8 0,0 -0.1,0 -0.2,0"
         style="fill:#49498d;fill-opacity:1;fill-rule:nonzero;stroke:none"
         id="path162" /><path
         d="m 27415.5,5753 c 38.2,118.1 54.7,243.9 49.9,375.3 0.1,0 0.2,0 0.2,0 4.8,-131.4 -11.7,-257.2 -49.9,-375.3 -0.1,0 -0.1,0 -0.2,0"
         style="fill:#000072;fill-opacity:1;fill-rule:nonzero;stroke:none"
         id="path164" /><path
         d="m 22727.2,5753.5 c -0.7,0.9 -1.5,1.8 -2.3,2.7 0.8,-0.9 1.5,-1.8 2.3,-2.7 m -3.2,3.6 c -0.5,0.7 -1.1,1.3 -1.6,1.9 0.5,-0.6 1.1,-1.3 1.6,-1.9 m -2.8,3.3 c -0.4,0.5 -0.8,0.9 -1.2,1.4 0.4,-0.5 0.8,-0.9 1.2,-1.4 m -2.8,3.2 c -0.2,0.2 -0.4,0.4 -0.6,0.6 0.2,-0.2 0.5,-0.4 0.6,-0.6"
         style="fill:#b175cc;fill-opacity:1;fill-rule:nonzero;stroke:none"
         id="path166" /><path
         d="m 25434.5,4821.1 c -209.1,0 -434.9,12.5 -677.5,38.9 -955.1,103.6 -1631.4,442.1 -2029.5,893.2 -0.1,0.2 -0.2,0.2 -0.3,0.3 -0.8,0.9 -1.5,1.8 -2.3,2.7 -0.3,0.3 -0.6,0.6 -0.9,0.9 -0.5,0.6 -1.1,1.3 -1.6,1.9 -0.4,0.5 -0.8,0.9 -1.2,1.4 -0.4,0.5 -0.8,0.9 -1.2,1.4 -0.5,0.6 -1.1,1.2 -1.6,1.8 -0.1,0.2 -0.4,0.4 -0.6,0.6 -422,485.7 -524,1099.6 -306.4,1690.9 -17,-1145.9 947.5,-1772.9 2435.2,-1913.3 232.2,-21.9 442.5,-32.1 633,-32.1 1266.5,0 1668.6,450.9 1938,915.5 4.7,-15.6 9.1,-31.2 13.1,-46.9 10.3,-41.4 18.3,-83.5 24,-126.1 5.7,-41.8 9.2,-83.1 10.7,-123.9 4.8,-131.4 -11.7,-257.2 -49.9,-375.3 -177.7,-549.5 -825.3,-931.9 -1981,-931.9"
         style="fill:#b2b2d4;fill-opacity:1;fill-rule:nonzero;stroke:none"
         id="path168" /><path
         d="m 25577.1,8610.8 c -65.1,15.5 -143,29.8 -216.1,41.2 -74.3,11.5 -149.3,20.9 -224.4,28.2 -150.3,14.2 -301.2,21.2 -451.3,18.8 -300.1,-4.8 -598.2,-46.1 -875.9,-137.7 -277.5,-91.4 -532.3,-236.2 -739,-432.8 -205,-194.8 -371.8,-446.8 -474.7,-711.2 -103.2,-265.5 -136.9,-553.3 -84.8,-826.6 50.1,-273.8 186.2,-528.8 379.1,-737.9 192.9,-209.8 437.4,-377.3 705.3,-501.7 268,-125.2 558.5,-209.8 855.8,-264.5 149,-27.6 298.7,-46.9 452.3,-60.6 152.8,-14.3 305.7,-24.2 458,-26.2 304.5,-6.5 608.1,15.5 897,79.2 286.8,64.7 562.5,178.2 760.9,363.2 99.5,91.5 175.9,201.5 223.7,323.5 48,122.2 65.3,256.8 57.6,393.7 -12.8,273.9 -141.7,535.1 -351.4,715.8 -103.8,90.9 -225.8,162.9 -358.3,212.1 -133.7,49.8 -272.1,76.4 -422.7,85.3 -306.8,21.2 -623.8,18.1 -943,42.9 -160,12.5 -321,27.7 -485.6,67.8 -82.1,21.9 -166.6,46.3 -250.1,104.5 -40.8,29.3 -83.4,71.1 -106.9,129.1 -24.5,57.9 -21.8,121.4 -8.4,171.3 12.2,45.7 59.2,72.8 104.9,60.6 42.9,-11.5 69.4,-53.5 62.5,-96.4 l -0.6,-3.6 c -4.4,-26.5 -2,-45.8 6.3,-60.3 7.5,-15 23.6,-30.6 47.6,-45.3 48.5,-29.1 118.3,-49.3 188.8,-63 143.5,-26.9 298.1,-34 452.2,-37.4 310.1,-4.8 623.6,6.7 946.1,-2.3 332.2,-4.5 689.3,-106.8 962.6,-334.2 136.2,-112.7 252.1,-252.7 334.4,-411.6 83.2,-157.8 133,-335.8 146.4,-512.2 13.2,-177 -6.3,-362.1 -71,-534.8 -63.9,-172.5 -170.4,-328.7 -300.7,-452.3 -129.1,-126.3 -281,-219.3 -436.4,-292.8 -156.1,-73.2 -318,-125.2 -480.7,-163.2 -326,-74.3 -655.3,-99.1 -980.1,-94.8 -162.6,1.1 -324.4,10.4 -485.2,24.3 -160.2,13.1 -323.4,32.8 -484.2,61.5 -322.2,56.9 -642.4,146.6 -946.6,285.9 -303.2,138.9 -592.5,328.6 -826.6,583.5 -116.3,127.4 -218.6,270 -299.2,425.6 -80.4,155.6 -138.8,323.7 -170.9,496.8 -65.9,346.9 -20.9,708.4 104.4,1029 61.7,161.2 143.5,312.6 237.5,454.2 93.8,139.8 203.8,275.6 329.7,393.1 250.3,238.5 560.4,406.4 881.1,509.2 322.1,102.9 655.7,144.8 984.9,147.2 164.8,1.2 328.9,-7.9 491.9,-26.4 81.5,-9.2 162.7,-20.6 243.8,-34.6 82.2,-14.3 159.2,-29.2 246.9,-51.5 91.7,-23.4 147.1,-116.7 123.8,-208.4 -23.2,-90.8 -114.8,-146 -205.6,-124.4 l -5.1,1.2"
         style="fill:#000072;fill-opacity:1;fill-rule:nonzero;stroke:none"
         id="path170" /><path
         d="m 28541.5,28532.9 c -41.3,-170.8 36.6,-415.1 212.1,-672.2 90.3,-132.6 206.6,-268.7 345.9,-400 518.2,-489 1158.1,-726.8 1428.9,-531.1 62.7,45.3 100.2,109.9 114.2,188.4 1.5,8.2 2.6,16.4 3.6,24.8 l 0.2,1.1 c 0.8,7.1 1.2,14.3 1.8,21.7 0,3.3 0.3,6.6 0.3,9.7 0.4,5.2 0.3,10.5 0.2,16 0.2,11.3 -0.2,22.6 -0.8,34.4 -0.4,8.2 -1.3,16.7 -2.2,25 -0.8,7.7 -1.5,15.5 -3.1,23.3 -4,28.6 -10.1,58.6 -18.6,89.3 -1.9,7.4 -4,14.8 -6.2,22.2 -2.2,7.2 -4.4,14.4 -6.8,21.6 -2.5,8.4 -5.3,16.8 -8.6,25.3 l -0.7,2.1 c -3.5,10.5 -7.5,20.9 -11.8,31.5 -3.4,9.2 -7.2,18.4 -11.3,27.9 -5.1,12.1 -10.4,24.5 -16.2,36.9 -92.7,202 -257.9,426.3 -482.4,638.2 -49.3,46.3 -100,90.7 -151.2,132.6 62.7,22.8 125.9,48.2 188.4,75.9 657.8,292.8 1039.7,750.6 852.4,1022.5 -187.2,272.2 -872.6,255.3 -1530.4,-37.7 -261.5,-116.2 -479.3,-258.3 -634.8,-404.8 -111.9,-105.1 -191.8,-212.2 -232.9,-313.4 -2.3,-5.3 -4.4,-10.9 -6.4,-16.3 -2,-5.4 -4,-10.6 -5.6,-16.1 -1.5,-4.1 -2.8,-8.3 -4,-12.3 -2,-6.7 -4,-13.4 -5.5,-20.2 -2,-8.3 -3.8,-16.6 -5.2,-24.8 -1.3,-7.2 -2.6,-14.3 -3.3,-21.5"
         style="fill:#0081e2;fill-opacity:1;fill-rule:nonzero;stroke:none"
         id="path172" /><path
         d="m 29059.3,28965.7 c 120.1,88.3 268.6,175.6 443.7,253.4 350.3,156 672.2,217.8 914.5,217.8 217.3,0 370.6,-49.7 423,-125.9 12.4,-18.1 26.8,-47.7 16.3,-101.4 -102.1,98.3 -284.4,147 -509.4,147 -284.2,0 -636.6,-77.7 -981.4,-231.2 -110.5,-49.2 -213.2,-103 -306.7,-159.7"
         style="fill:#59adec;fill-opacity:1;fill-rule:nonzero;stroke:none"
         id="path174" /><path
         d="m 28541.5,28532.9 c -41.3,-170.8 36.6,-415.1 212.1,-672.2 90.3,-132.6 206.6,-268.7 345.9,-400 518.2,-489 1158.1,-726.8 1428.9,-531.1 62.7,45.3 100.2,109.9 114.2,188.4 1.5,8.2 2.6,16.4 3.6,24.8 l 0.2,1.1 c 0.8,7.1 1.2,14.3 1.8,21.7 0,3.3 0.3,6.6 0.3,9.7 0.4,5.2 0.3,10.5 0.2,16 0.2,11.3 -0.2,22.5 -0.8,34.3 -0.4,7.9 -1.3,15.9 -2.1,23.8 -0.8,8 -1.5,16.3 -3.2,24.6 -4,28.6 -10.1,58.6 -18.6,89.3 -1.9,7.4 -4,14.8 -6.2,22.2 -2.2,7.2 -4.4,14.4 -6.8,21.6 -2.5,8.4 -5.3,16.8 -8.6,25.3 l -0.7,2.1 c -3.5,10.5 -7.5,20.9 -11.8,31.5 -3.4,9.2 -7.2,18.4 -11.3,27.9 -5.1,12.1 -10.4,24.5 -16.2,36.9 -18.2,-28.7 -42,-53.9 -70.9,-74.8 -270.8,-195.7 -910.7,42 -1428.9,531.1 l -0.8,0.8 c -46.9,44.6 -53,108.5 -15.4,155.2 59.9,74.6 95.5,139.4 104.4,189.4 21.7,121.2 -104.5,348.5 -346.4,625 -111.9,-105.1 -191.8,-212.2 -232.9,-313.4 -2.3,-5.3 -4.4,-10.9 -6.4,-16.3 -2,-5.4 -4,-10.6 -5.6,-16.1 -1.5,-4.1 -2.8,-8.3 -4,-12.3 -2,-6.7 -4,-13.4 -5.5,-20.2 -2,-8.3 -3.8,-16.6 -5.2,-24.8 -1.3,-7.2 -2.6,-14.3 -3.3,-21.5"
         style="fill:#2363c1;fill-opacity:1;fill-rule:nonzero;stroke:none"
         id="path176" /><path
         d="m 30417.5,29436.9 c -242.3,0 -564.2,-61.8 -914.5,-217.8 -501.1,-222.6 -784.6,-522.8 -805.7,-704.3 -0.8,-6.3 -1.9,-12.6 -3.4,-18.8 -42.9,-177 119.6,-550.3 513.2,-921.1 523,-493.6 1068.6,-634.4 1229.4,-518.2 21.3,15.4 50.1,44.2 54.9,116.4 12,183.9 -143.9,527.9 -519.1,881.8 -45.8,43.2 -93.8,85.3 -142.6,125.1 -43.7,35.7 -64.9,92.1 -55.5,147.8 9.4,55.6 48,101.9 101,121.2 60.4,21.9 120.3,46.1 178.2,71.9 481.9,214.4 748.3,490.3 798.6,668.8 18.7,66.5 2.4,101.1 -11.5,121.3 -52.4,76.2 -205.7,125.9 -423,125.9 m -138.2,-2733.8 c -396,0 -910,287.3 -1287.5,643.6 -440.4,414.9 -676.7,890 -605,1213.9 44.7,327.5 431.2,697.5 988.7,945.2 635.3,282.8 1455.3,373 1723.5,-16.9 75.7,-110.1 94.7,-243 54.9,-384.3 -84.7,-300.6 -440.9,-625 -933.9,-852.6 381.6,-370.9 604.7,-789.3 584.4,-1099.4 -9.7,-149.1 -73.4,-270.2 -184.2,-350.2 -95.1,-68.7 -211.8,-99.3 -340.9,-99.3"
         style="fill:#000072;fill-opacity:1;fill-rule:nonzero;stroke:none"
         id="path178" /><path
         d="m 30154.8,27143.1 c -152.3,75.4 -303.8,153.4 -450.2,240.5 -147.7,84.9 -290,179 -430.3,275.9 -139.9,97.7 -275.1,202.1 -406.4,311.7 -131.2,110.6 -257.1,224 -376.8,352.6 -22.2,23.8 -20.8,61.1 3,83.2 23.8,22.1 61,20.8 83.1,-3 l 1.3,-1.4 1.8,-2.1 c 106.8,-123.6 228.6,-242.5 352.5,-354.8 124.9,-112.3 254.2,-220.2 388.6,-321.6 134.9,-100.8 272.1,-199 415.1,-288.4 141.7,-91.6 288.8,-174.4 437.3,-254.9 l 0.4,-0.2 c 10.3,-5.6 14.1,-18.4 8.5,-28.7 -5.4,-10 -17.8,-13.8 -27.9,-8.8"
         style="fill:#000072;fill-opacity:1;fill-rule:nonzero;stroke:none"
         id="path180" /><path
         d="m 30220.5,27506.9 -223.7,94.9 c -73.6,33.7 -148.2,65.5 -221.2,100.8 -146.7,69 -291.5,142.2 -434.2,219.7 -142.4,78.1 -283,159.9 -420.2,247.7 -137.3,89 -270.6,179.3 -400.2,286.9 -25,20.8 -28.5,57.9 -7.7,82.9 20.7,25 57.8,28.4 82.8,7.7 l 1.5,-1.2 2.2,-2.1 c 115.4,-103 246.3,-199.7 376.9,-290.9 131.7,-91.3 267.5,-177 405.4,-259.3 138.3,-81.7 279.2,-159.5 422.2,-233.3 71.1,-37.6 144,-71.9 216,-108 l 218.8,-102.4 0.6,-0.3 c 11.8,-5.5 16.9,-19.6 11.4,-31.4 -5.4,-11.5 -19,-16.6 -30.6,-11.7"
         style="fill:#000072;fill-opacity:1;fill-rule:nonzero;stroke:none"
         id="path182" /><path
         d="m 29960.9,27979.3 c -285.4,79.1 -562.9,182.5 -836.2,294.6 -273.2,113.4 -541.9,234.6 -807.7,366.6 -29.2,14.5 -41,49.8 -26.6,78.9 14.5,29.1 49.8,41 78.9,26.5 l 1.9,-0.9 0.9,-0.5 c 256.2,-140.2 519.5,-271.9 785.5,-394.9 266.7,-122 537.7,-235.4 816.6,-324.7 12.6,-3.9 19.6,-17.2 15.7,-29.7 -3.8,-12.2 -16.8,-19.1 -29,-15.9"
         style="fill:#000072;fill-opacity:1;fill-rule:nonzero;stroke:none"
         id="path184" /><path
         d="m 30544.7,29254.6 c -168.2,-27.9 -335.9,-58.3 -501.3,-98.8 -165.9,-38 -329.2,-86.1 -491.2,-137.4 -161.8,-52.1 -320.9,-111.9 -477.3,-177.3 -155.5,-65.6 -311.2,-138.1 -454.5,-219.9 l -2.1,-1.2 c -28.3,-16.1 -64.2,-6.3 -80.3,21.9 -16.1,28.2 -6.3,64.2 21.9,80.3 l 1.9,1 c 156.9,82.2 314.7,148.1 476.5,209.7 161.4,60.6 325,115.3 490.6,161.9 165.9,46 332.7,88.4 501.5,120.6 168.3,34.8 338.5,59.2 508.6,81 11.6,1.5 22.2,-6.7 23.6,-18.3 1.5,-11.2 -6.3,-21.6 -17.4,-23.4 l -0.5,-0.1"
         style="fill:#000072;fill-opacity:1;fill-rule:nonzero;stroke:none"
         id="path186" /><path
         d="m 30478.1,28885.3 -242.1,-25.7 c -80.4,-10.7 -161.1,-19.4 -241.2,-31.9 -160.5,-23.2 -320.2,-50.9 -478.9,-83.1 -158.5,-32.9 -316,-69.8 -471.5,-113.1 -154.5,-43.6 -311.1,-92.3 -455.3,-151.9 l -2.5,-1.1 c -30,-12.4 -64.4,1.9 -76.9,31.9 -12.4,30 1.9,64.4 31.9,76.9 l 2,0.7 c 158.9,59.2 315.6,101.1 475.6,140.3 159.6,38.4 320.4,69.9 481.7,97.3 161.4,26.8 323.4,48.9 485.8,66.4 81,9.6 162.5,15.5 243.7,23.4 l 244.2,17 c 13,0.9 24.3,-8.9 25.2,-21.9 0.9,-12.7 -8.5,-23.8 -21,-25.1 l -0.7,-0.1"
         style="fill:#000072;fill-opacity:1;fill-rule:nonzero;stroke:none"
         id="path188" /><path
         d="m 30063.9,28523.9 c -294.4,6.2 -589,-12.9 -882.5,-41.5 -293.1,-29.7 -586.5,-68.6 -875.9,-117.6 l -0.9,-0.2 c -32,-5.4 -62.4,16.2 -67.8,48.2 -5.4,32.1 16.1,62.5 48.2,67.9 l 2.3,0.3 c 295.9,38.2 591,65.4 887.6,83.7 296.5,17 594,24.6 891.2,6.6 13.1,-0.8 23,-12 22.2,-25.1 -0.7,-12.7 -11.7,-22.5 -24.4,-22.3"
         style="fill:#000072;fill-opacity:1;fill-rule:nonzero;stroke:none"
         id="path190" /><path
         d="m 19899.7,29026.6 c 623.2,-946.5 1643.8,-1650.2 3412.5,-1852.5 2303.3,-263.6 5581.8,839.3 5652.5,1235.1 70.8,395.9 -2978.4,2139.3 -4943.6,2832 -1667.2,587.7 -2722.6,548.7 -3466.3,125.7 -791.7,-450.3 -1130.3,-1291 -797.2,-2075 37.8,-88.8 84.6,-177.8 142.1,-265.3"
         style="fill:#aeeaff;fill-opacity:1;fill-rule:nonzero;stroke:none"
         id="path192" /><path
         d="m 28961,28455.3 c -0.3,1 -0.5,1.9 -0.9,2.9 h 0.1 c 0.3,-1 0.5,-2 0.8,-2.9"
         style="fill:#1845a9;fill-opacity:1;fill-rule:nonzero;stroke:none"
         id="path194" /><path
         d="m 28960.1,28458.2 c -0.7,2.5 -1.6,5.1 -2.5,7.7 0.1,0 0.1,0 0.1,0 0.9,-2.6 1.7,-5.2 2.5,-7.7 h -0.1"
         style="fill:#000072;fill-opacity:1;fill-rule:nonzero;stroke:none"
         id="path196" /><path
         d="m 19746.2,29319.1 c -4.2,10.4 -8.3,20.9 -12.3,31.4 1.4,-3.7 2.9,-7.5 4.4,-11.2 1.7,-4.3 3.4,-8.6 5.1,-12.8 0.9,-2.5 1.8,-5 2.8,-7.4"
         style="fill:#b2b2d4;fill-opacity:1;fill-rule:nonzero;stroke:none"
         id="path198" /><path
         d="m 24063.6,27134 c -258,0 -510,12.6 -751.4,40.2 -1149,131.4 -1982.3,474.4 -2596,958.2 v 0 h 0.2 c 78,-61.6 159.5,-120.9 244.6,-177.1 v 0 c 7.4,-4.9 14.9,-9.8 22.4,-14.7 15.6,-10.3 31.3,-20.4 47.2,-30.5 5.5,-3.5 11,-7.1 16.6,-10.6 7,-4.4 14,-8.7 21,-13 15.1,-9.4 30.4,-18.7 45.8,-28 7.3,-4.4 14.7,-8.8 22,-13.2 v 0 c 28.3,-17.2 57.1,-33.7 86.3,-49.6 63.4,-35.5 128.7,-69.7 195.8,-102.7 79,71.7 155,149 227.6,231.5 93.8,106.5 181.9,221.6 263.6,344.7 529.7,-187.2 1134.5,-324.9 1826.6,-404 316.4,-36.3 647,-52.8 985.1,-52.8 1362.5,0 2850.2,268.5 4051.2,601 55.5,-17.7 111.1,-37 166.7,-57.8 C 28654.2,27970 26163.6,27134 24063.6,27134 M 19805,29190.1 c -2.8,5.6 -5.6,11.1 -8.4,16.7 0.7,-1.3 1.3,-2.6 1.9,-3.8 2.2,-4.3 4.3,-8.6 6.5,-12.9"
         style="fill:#79a3d4;fill-opacity:1;fill-rule:nonzero;stroke:none"
         id="path200" /><path
         d="m 21222.3,27795.7 c -29.2,15.9 -58,32.4 -86.3,49.6 11.1,-6.6 22.3,-13.1 33.4,-19.5 17.5,-10.1 35.2,-20.2 52.9,-30.1 m -261.3,159.6 c -85.1,56.2 -166.6,115.5 -244.6,177.1 l 0.3,-0.1 c 10.5,-8.2 21.1,-16.5 31.8,-24.7 23.7,-18.3 47.8,-36.3 72.2,-54.2 39.3,-28.8 79.4,-57 120.3,-84.6 6.7,-4.5 13.3,-9 20,-13.5"
         style="fill:#5472b6;fill-opacity:1;fill-rule:nonzero;stroke:none"
         id="path202" /><path
         d="m 23574.7,31315.1 2744.4,-1467.3 c 0,0 373.5,105.1 550,315.6 124.9,148.8 151.5,350.3 -121.2,604.4 -658.7,613.5 -556.5,869.1 -871.8,1302.9 -315.2,433.9 -827.9,230.9 -1328.6,-28.5 -209,-108 -412.9,-252.6 -579.6,-384.3 -232.8,-183.9 -393.2,-342.8 -393.2,-342.8"
         style="fill:#0081e2;fill-opacity:1;fill-rule:nonzero;stroke:none"
         id="path204" /><path
         d="m 23574.7,31315.1 2744.4,-1467.3 c 0,0 373.5,105.1 550,315.6 -234.7,189.3 -501.9,381 -794.7,563.7 -283.9,177.6 -591.9,346.3 -917.7,495.9 -200.9,92.2 -408.5,177.1 -621.8,252.4 -197.2,69.5 -386,130.3 -567,182.5 -232.8,-183.9 -393.2,-342.8 -393.2,-342.8"
         style="fill:#2363c1;fill-opacity:1;fill-rule:nonzero;stroke:none"
         id="path206" /><path
         d="m 26771.8,30294.4 c -34.9,54 -83.1,110.7 -146.8,170.2 -0.4,0.3 -0.9,0.8 -1.3,1.2 12.6,6.5 25.2,12.9 37.9,19.1 l 1.2,0.6 c 14.7,7.3 21.6,24.9 15.5,40.5 -5,12.5 -17.1,20.2 -29.8,20.2 -3.9,0 -7.9,-0.8 -11.8,-2.3 -22.4,-8.9 -44.5,-18.1 -66.4,-27.6 -91.8,88.3 -168.3,169.3 -233,244.8 0.9,0.4 1.8,0.8 2.6,1.2 l 1,0.5 c 15,7.2 22.1,25 15.8,40.7 -5,12.5 -17,20.1 -29.8,20.1 -3.9,0 -7.9,-0.7 -11.8,-2.3 -7.1,-2.8 -14,-5.6 -21,-8.5 -334.6,410.9 -319.6,655.1 -583.4,1018.2 -37.2,51.2 -77,93.9 -119.1,129.1 9,4.4 18.1,8.7 27.2,12.9 l 1.4,0.7 c 15.5,7.3 22.5,25.7 15.7,41.5 -5.2,12.2 -17,19.5 -29.4,19.5 -4.2,0 -8.5,-0.9 -12.6,-2.6 -21,-9.1 -41.9,-18.3 -62.6,-27.8 -100.9,64.5 -213.1,91.7 -332.9,91.7 -70.2,0 -142.9,-9.3 -217.4,-25.9 162.7,63.6 296.1,95.1 407.5,95.1 157.1,0 270.6,-62.7 360.8,-186.8 103.8,-142.8 158.6,-265.7 216.7,-395.8 107.9,-241.4 230,-515.1 675,-929.7 85.6,-79.6 182.4,-196 157.9,-297.7 -5,-20.7 -14.3,-41 -27.1,-60.8"
         style="fill:#59adec;fill-opacity:1;fill-rule:nonzero;stroke:none"
         id="path208" /><path
         d="m 23843.3,31349.4 2491.4,-1332.1 c 165.5,58 428.2,188.5 464.2,337.9 24.5,101.7 -72.3,218.1 -157.9,297.7 -445,414.6 -567.1,688.3 -675,929.7 -58.1,130.1 -112.9,253 -216.7,395.8 -196.2,269.9 -502.3,249.5 -1129.5,-75.4 -303.8,-157.4 -601.4,-399.5 -776.5,-553.6 m 2457.6,-1669.8 -2987.7,1597.5 151,149.5 c 20,19.8 495.4,487.8 1011.3,755 384.4,199.1 1099.9,569.8 1527.5,-18.7 123.2,-169.5 187.4,-313.3 249.5,-452.3 104.9,-235.1 204,-457 602.4,-828.1 213.6,-199 297.3,-401.3 248.8,-601.3 -94.8,-391.6 -676,-565.9 -742,-584.4 l -60.8,-17.2"
         style="fill:#000072;fill-opacity:1;fill-rule:nonzero;stroke:none"
         id="path210" /><path
         d="m 25618.8,31973 c -118.3,-55.4 -234.6,-121.9 -345.8,-193.3 -111.5,-71.6 -218.3,-150.2 -320.2,-234.1 -102.4,-83.4 -198.5,-174.2 -287.7,-270.6 -91.3,-94.8 -169.5,-200.4 -244.6,-307 l -1.8,-2.4 c -18.7,-26.6 -55.4,-32.9 -81.9,-14.2 -26.6,18.7 -33,55.4 -14.2,82 l 1.1,1.5 c 82.6,109.6 168.2,217 266.1,312.3 96,96.9 198.3,187.3 306.4,269.4 107.7,82.8 219.7,159.6 336,228.9 116.6,69.4 235.5,132.5 361.7,186.6 16.3,6.9 35.1,-0.6 42,-16.9 6.8,-15.8 -0.2,-34.2 -15.7,-41.5 l -1.4,-0.7"
         style="fill:#000072;fill-opacity:1;fill-rule:nonzero;stroke:none"
         id="path212" /><path
         d="m 25869.8,31480.7 c -90.8,-42.7 -180.9,-93.2 -267.6,-146.4 -87,-53.4 -171.7,-110.6 -253.2,-171.7 -81.8,-60.7 -160.9,-124.8 -236,-193.2 -76.2,-67.1 -146.4,-140.3 -215.1,-214.4 l -1.2,-1.3 c -22.1,-23.9 -59.4,-25.3 -83.2,-3.2 -23.8,22.1 -25.3,59.4 -3.2,83.2 l 1.8,1.8 c 74.9,74.2 151.1,146.9 232.8,212.9 80.6,67.2 164.9,129.7 251.5,188.3 86.4,59 175.5,113.8 266.7,164.4 91.6,50.8 183.9,97.6 281.9,138.6 16.3,6.8 35,-0.9 41.9,-17.2 6.6,-15.8 -0.5,-34 -15.9,-41.3 l -1.2,-0.5"
         style="fill:#000072;fill-opacity:1;fill-rule:nonzero;stroke:none"
         id="path214" /><path
         d="m 26070,31070.2 c -70.2,-33.3 -140.4,-72.2 -208.3,-112.5 -68.1,-40.7 -135,-83.3 -199.9,-128.7 -130.3,-90.1 -253.8,-189.4 -369.3,-296.2 l -0.3,-0.3 c -23.9,-22.1 -61.1,-20.7 -83.2,3.2 -22,23.9 -20.6,61.1 3.3,83.2 l 2.4,2.1 c 126.1,104.2 258.8,199.2 397.4,284.1 69.1,42.8 140,82.6 211.9,120.2 72.2,37.6 144.5,72.6 221.2,103.9 16.3,6.7 35,-1.1 41.7,-17.5 6.4,-15.8 -0.6,-33.7 -15.8,-41 l -1.1,-0.5"
         style="fill:#000072;fill-opacity:1;fill-rule:nonzero;stroke:none"
         id="path216" /><path
         d="m 26339.9,30762.3 c -57.4,-27.6 -115.2,-59.4 -171.2,-92.2 -56.1,-33 -111.5,-67.3 -165.6,-103.6 -108.3,-72.2 -212.3,-150.4 -311.4,-233.9 l -0.2,-0.1 c -24.8,-21 -62,-17.8 -82.9,7.1 -21,24.8 -17.8,62 7.1,82.9 1,0.8 2.1,1.7 3.1,2.5 108.3,79.3 220.7,152.4 336.6,218.8 57.8,33.4 116.8,64.6 176.5,94.5 60,29.7 119.8,57.7 183.2,83 16.4,6.6 35,-1.4 41.6,-17.8 6.3,-15.7 -0.8,-33.5 -15.8,-40.7 l -1,-0.5"
         style="fill:#000072;fill-opacity:1;fill-rule:nonzero;stroke:none"
         id="path218" /><path
         d="m 26661.6,30484.9 c -97.2,-47.9 -192.8,-104.7 -284.8,-164.2 -92.1,-60 -181.2,-124.2 -266.9,-192.1 -25.5,-20.3 -62.5,-16.1 -82.8,9.3 -20.2,25.4 -16.1,62.5 9.4,82.8 1.2,0.9 2.6,2 3.9,2.8 94.1,63 190.9,121.5 290,175.3 99.6,53.5 199.9,102.9 306.3,145.1 16.4,6.5 35,-1.5 41.6,-17.9 6.1,-15.6 -0.8,-33.2 -15.5,-40.5 l -1.2,-0.6"
         style="fill:#000072;fill-opacity:1;fill-rule:nonzero;stroke:none"
         id="path220" /><path
         d="m 28964.7,28409.4 c -2.7,-16.9 -11.8,-34.7 -25.6,-53.9 -1306.5,489.7 -2588.4,91.2 -3988.2,42.4 -380.6,-13.4 -770,-0.7 -1170.9,62.6 -218.7,34.3 -431.4,77.1 -637.1,125.2 -1503.4,351 -2609.3,1000.3 -2609.3,1000.3 0,0 -703.1,275.6 -861.6,-35.7 -167.9,704.8 177.7,1415.6 882.8,1816.7 743.4,423.1 1799.2,461.8 3466.6,-125.5 1965.1,-693 5014,-2436.3 4943.3,-2832.1"
         style="fill:#3b82f6;fill-opacity:1;fill-rule:nonzero;stroke:none"
         id="path222" /><path
         d="m 21418.1,27693 c -261.2,128.2 -493.6,276 -701.4,439.3 l -0.7,0.1 c -330.8,260.7 -597.8,562.7 -816.5,894.3 -57.2,87.5 -104.2,176.8 -141.9,265.2 -335.5,790.1 10.8,1636.6 814.1,2084.3 466.5,259.9 1053.9,370.5 1836.6,271.6 120.1,-439.9 170.9,-921.8 137.4,-1421.1 -71.2,-1058.8 -506.4,-1970 -1127.6,-2533.7"
         style="fill:#aeeaff;fill-opacity:1;fill-rule:nonzero;stroke:none"
         id="path224" /><path
         d="m 22250,30457.6 c -3.6,-406.6 -320.6,-733.5 -708.2,-730.2 -387.5,3.4 -698.8,335.8 -695.3,742.4 3.5,406.6 320.6,733.5 708.1,730.2 387.6,-3.4 698.9,-335.7 695.4,-742.4"
         style="fill:#000072;fill-opacity:1;fill-rule:nonzero;stroke:none"
         id="path226" /><path
         d="m 21933.1,30149.4 c -0.8,-94.5 -74.5,-170.5 -164.6,-169.8 -90.1,0.8 -162.5,78.1 -161.7,172.6 0.9,94.6 74.6,170.6 164.7,169.8 90.1,-0.8 162.5,-78.1 161.6,-172.6"
         style="fill:#ffffff;fill-opacity:1;fill-rule:nonzero;stroke:none"
         id="path228" /><path
         d="m 21593.4,30719.6 c -1.1,-124.8 -98.3,-225.1 -217.2,-224 -118.9,1 -214.4,103 -213.4,227.7 1.1,124.8 98.4,225 217.3,224 118.9,-1 214.4,-103 213.3,-227.7"
         style="fill:#ffffff;fill-opacity:1;fill-rule:nonzero;stroke:none"
         id="path230" /><path
         d="m 21169.4,27825.8 c -11.1,6.4 -22.3,12.9 -33.4,19.5 v 0 c -7.3,4.4 -14.7,8.8 -22,13.2 18.3,-11 36.8,-21.9 55.4,-32.7"
         style="fill:#3b50a1;fill-opacity:1;fill-rule:nonzero;stroke:none"
         id="path232" /><path
         d="m 21068.2,27886.5 c -7,4.3 -14,8.6 -21,13 -5.6,3.5 -11.1,7.1 -16.6,10.6 12.4,-7.9 25,-15.8 37.6,-23.6"
         style="fill:#3b50a1;fill-opacity:1;fill-rule:nonzero;stroke:none"
         id="path234" /><path
         d="m 21909.3,28269.2 c -0.1,0 0,0 -0.1,0 0.1,0.1 0.1,0.1 0.2,0.2 v 0 c 0,-0.1 0,-0.2 -0.1,-0.2"
         style="fill:#5472b6;fill-opacity:1;fill-rule:nonzero;stroke:none"
         id="path236" /><path
         d="m 21645.7,27924.5 c 93.7,106.5 181.9,221.8 263.5,344.7 0.1,0 0,0 0.1,0 -81.7,-123.1 -169.8,-238.2 -263.6,-344.7"
         style="fill:#3b50a1;fill-opacity:1;fill-rule:nonzero;stroke:none"
         id="path238" /><path
         d="m 20983.4,27940.6 c -7.5,4.9 -15,9.8 -22.4,14.7 v 0 c -6.7,4.5 -13.3,9 -20,13.5 14,-9.5 28.2,-18.9 42.4,-28.2 m -162.7,112.8 c -24.4,17.9 -48.5,35.9 -72.2,54.2 23.7,-18.3 47.8,-36.3 72.2,-54.2"
         style="fill:#3b50a1;fill-opacity:1;fill-rule:nonzero;stroke:none"
         id="path240" /><path
         d="m 20716.1,28132.4 h -0.1 c -3.7,2.9 -7.5,5.9 -11.2,8.8 3.7,-2.9 7.5,-5.9 11.2,-8.8 v 0 c 0.1,-0.1 0,0 0.1,0"
         style="fill:#7c7cb6;fill-opacity:1;fill-rule:nonzero;stroke:none"
         id="path242" /><path
         d="m 20716.2,28132.4 h -0.1 c -0.1,0 0,-0.1 -0.1,0 h 0.2 v 0"
         style="fill:#5472b6;fill-opacity:1;fill-rule:nonzero;stroke:none"
         id="path244" /><path
         d="m 20716.2,28132.4 v 0 0 0"
         style="fill:#3b50a1;fill-opacity:1;fill-rule:nonzero;stroke:none"
         id="path246" /><path
         d="m 20538.6,28281.4 c -3.7,3.3 -7.4,6.6 -11.1,9.8 -26.2,24 -52,47.9 -77.3,72.1 28.9,-27.6 58.4,-54.9 88.4,-81.9"
         style="fill:#7c7cb6;fill-opacity:1;fill-rule:nonzero;stroke:none"
         id="path248" /><path
         d="m 20419.6,28392.9 c -2.3,2.3 -4.6,4.6 -6.9,6.8 2.3,-2.2 4.6,-4.5 6.9,-6.8"
         style="fill:#7c7cb6;fill-opacity:1;fill-rule:nonzero;stroke:none"
         id="path250" /><path
         d="m 20091.8,28759.3 c -2.1,2.6 -4.1,5.2 -6.2,7.8 -1.3,1.8 -2.7,3.6 -4.1,5.4 3.4,-4.4 6.8,-8.8 10.3,-13.2"
         style="fill:#7c7cb6;fill-opacity:1;fill-rule:nonzero;stroke:none"
         id="path252" /><path
         d="m 20108.8,28737.9 c -5.7,7.1 -11.4,14.3 -17,21.4 -3.5,4.4 -6.9,8.8 -10.3,13.2 -3,3.9 -6,7.8 -9,11.7 12,-15.5 24.1,-31 36.3,-46.3"
         style="fill:#5472b6;fill-opacity:1;fill-rule:nonzero;stroke:none"
         id="path254" /><path
         d="m 20029.7,28840.7 c -2.8,3.8 -5.6,7.5 -8.4,11.2 -1.5,2.1 -3,4.2 -4.5,6.3 4.3,-5.8 8.5,-11.6 12.9,-17.5 m -25.1,34.2 c -4,5.5 -8,11 -12,16.6 4,-5.6 8,-11.1 12,-16.6"
         style="fill:#7c7cb6;fill-opacity:1;fill-rule:nonzero;stroke:none"
         id="path256" /><path
         d="m 20038.9,28828.5 c -3.1,4 -6.2,8.1 -9.2,12.2 -4.4,5.9 -8.6,11.7 -12.9,17.5 -4.1,5.6 -8.1,11.1 -12.2,16.7 -4,5.5 -8,11 -12,16.6 -0.7,1 -1.3,1.9 -2,2.9 15.8,-22.1 31.9,-44.1 48.3,-65.9"
         style="fill:#5472b6;fill-opacity:1;fill-rule:nonzero;stroke:none"
         id="path258" /><path
         d="m 19980.1,28909 c -5.3,7.3 -10.5,14.5 -15.4,21.9 2.2,-3.2 4.4,-6.3 6.6,-9.5 2.9,-4.1 5.9,-8.3 8.8,-12.4"
         style="fill:#7c7cb6;fill-opacity:1;fill-rule:nonzero;stroke:none"
         id="path260" /><path
         d="m 19980.4,28908.6 c -0.1,0.2 -0.2,0.3 -0.3,0.4 -2.9,4.1 -5.9,8.3 -8.8,12.4 3,-4.2 6.1,-8.5 9.1,-12.8"
         style="fill:#5472b6;fill-opacity:1;fill-rule:nonzero;stroke:none"
         id="path262" /><path
         d="m 19916.1,29001.8 c -5.6,8.2 -11.1,16.5 -16.6,24.8 -5.9,9.1 -11.9,18.3 -17.6,27.7 5.8,-9.2 11.6,-18.4 17.6,-27.6 5.6,-8.3 11.1,-16.6 16.6,-24.9 m -52.3,81.9 c -12.6,20.8 -24.6,41.8 -36,62.9 11.4,-21 23.4,-42 36,-62.9 m -68.3,125.3 c -13.6,27.6 -26.4,55.2 -38,82.8 -4,9.1 -7.8,18.2 -11.3,27.3 v 0 c 3.5,-9.1 7.3,-18.2 11.3,-27.3 v 0 c 8.5,-19.9 17.5,-39.8 26.9,-59.7 3.4,-7.2 6.8,-14.3 10.4,-21.5 0.2,-0.5 0.5,-1.1 0.7,-1.6"
         style="fill:#b2b2d4;fill-opacity:1;fill-rule:nonzero;stroke:none"
         id="path264" /><path
         d="m 19870.9,29072 c -2.4,3.9 -4.7,7.8 -7.1,11.7 -12.6,20.9 -24.6,41.9 -36,62.9 -2.2,4 -4.3,7.9 -6.4,11.9 -5.7,10.6 -11.1,21.1 -16.4,31.6 v 0 c 5.3,-10.5 10.7,-21 16.4,-31.6 9.8,-18.5 20.2,-36.9 31,-55.4 6,-10.4 12.2,-20.8 18.5,-31.1 m -74.3,134.8 c -0.3,0.7 -0.7,1.5 -1.1,2.2 -0.2,0.5 -0.5,1.1 -0.7,1.6 0.4,-1 0.9,-1.9 1.4,-2.9 0.1,-0.3 0.3,-0.6 0.4,-0.9"
         style="fill:#79a3d4;fill-opacity:1;fill-rule:nonzero;stroke:none"
         id="path266" /><path
         d="m 19784.4,29232.1 c -9.4,19.9 -18.4,39.8 -26.9,59.7 8.6,-19.9 17.5,-39.8 26.9,-59.7"
         style="fill:#7c7cb6;fill-opacity:1;fill-rule:nonzero;stroke:none"
         id="path268" /><path
         d="m 19805,29190.1 v 0 c -2.2,4.3 -4.3,8.6 -6.5,12.9 -0.6,1.2 -1.2,2.5 -1.9,3.8 -0.1,0.3 -0.3,0.6 -0.4,0.9 0.8,-1.6 1.6,-3.2 2.3,-4.7 2.2,-4.3 4.3,-8.6 6.5,-12.9"
         style="fill:#5472b6;fill-opacity:1;fill-rule:nonzero;stroke:none"
         id="path270" /><path
         d="m 19794.8,29210.6 c -3.6,7.2 -7,14.3 -10.4,21.5 3.1,-6.5 6.2,-12.9 9.3,-19.4 0.4,-0.7 0.7,-1.4 1.1,-2.1 m -37.3,81.2 v 0 c -4,9.1 -7.8,18.2 -11.3,27.3 3.7,-9.1 7.4,-18.2 11.3,-27.3 v 0"
         style="fill:#7c7cb6;fill-opacity:1;fill-rule:nonzero;stroke:none"
         id="path272" /><path
         d="m 19852.4,29103.1 c -10.8,18.5 -21.2,36.9 -31,55.4 -5.7,10.6 -11.1,21.1 -16.4,31.6 11,-21.6 22.5,-43.3 34.7,-64.8 4.2,-7.4 8.4,-14.8 12.7,-22.2 m -56.2,104.6 c -0.5,1 -1,1.9 -1.4,2.9 -0.4,0.7 -0.7,1.4 -1.1,2.1 0.8,-1.7 1.7,-3.3 2.5,-5"
         style="fill:#5472b6;fill-opacity:1;fill-rule:nonzero;stroke:none"
         id="path274" /><path
         d="m 19793.7,29212.7 c -3.1,6.5 -6.2,12.9 -9.3,19.4 -9.4,19.9 -18.3,39.8 -26.9,59.7 v 0 c -3.9,9.1 -7.6,18.2 -11.3,27.3 -1,2.4 -1.9,4.9 -2.8,7.4 4.6,-11.6 9.3,-23.1 14.2,-34.6 2.1,-4.9 4.2,-9.8 6.4,-14.7 9.3,-21.5 19.3,-43 29.7,-64.5"
         style="fill:#5757a1;fill-opacity:1;fill-rule:nonzero;stroke:none"
         id="path276" /><path
         d="m 19839.7,29125.3 c -12.2,21.5 -23.7,43.2 -34.7,64.8 -2.2,4.3 -4.3,8.6 -6.5,12.9 -0.7,1.5 -1.5,3.1 -2.3,4.7 -0.8,1.7 -1.7,3.3 -2.5,5 -10.4,21.5 -20.4,43 -29.7,64.5 22.1,-50.6 47.3,-101.4 75.7,-151.9"
         style="fill:#3b50a1;fill-opacity:1;fill-rule:nonzero;stroke:none"
         id="path278" /><path
         d="m 19733.9,29350.5 c -2.3,5.8 -4.5,11.5 -6.7,17.4 -22.3,60.7 -40.6,121.6 -55.1,182.5 0,0.1 0,0.1 0,0.2 16,-66.8 36.5,-133.6 61.8,-200.1"
         style="fill:#7c7cb6;fill-opacity:1;fill-rule:nonzero;stroke:none"
         id="path280" /><path
         d="m 19738.3,29339.3 c -1.5,3.7 -3,7.5 -4.4,11.2 -25.3,66.5 -45.8,133.3 -61.8,200.1 v 0 c 16.2,-67.8 37.2,-135.5 63,-202.8 0,-0.2 0,-0.2 0.1,-0.4 0.1,-0.3 0.3,-0.6 0.4,-0.9 0.9,-2.4 1.8,-4.8 2.7,-7.2"
         style="fill:#5757a1;fill-opacity:1;fill-rule:nonzero;stroke:none"
         id="path282" /><path
         d="m 19735.6,29346.5 c -0.1,0.3 -0.3,0.6 -0.4,0.9 0.1,-0.3 0.3,-0.6 0.4,-0.9 m -0.5,1.3 c -25.8,67.3 -46.8,135 -63,202.8 0.1,0 0.1,0 0.1,0 16.1,-67.7 37.1,-135.5 62.9,-202.8"
         style="fill:#3b50a1;fill-opacity:1;fill-rule:nonzero;stroke:none"
         id="path284" /><path
         d="m 19672.1,29550.4 c -13.4,55.9 -23.5,111.9 -30.4,167.8 -0.7,5.8 -1.4,11.6 -2,17.4 7,-61.5 17.8,-123.3 32.5,-185 0,0 0,0 -0.1,0 v 0 c 0,-0.1 0,-0.1 0,-0.2 v 0 m -35.1,211.4 c -0.8,8.3 -1.6,16.6 -2.1,24.9 0.6,-8.4 1.3,-16.6 2.1,-24.9"
         style="fill:#005ac0;fill-opacity:1;fill-rule:nonzero;stroke:none"
         id="path286" /><path
         d="m 21418.1,27693.2 c -65.3,31.9 -128.9,65.3 -190.5,99.6 -19.6,10.9 -39,21.9 -58.2,33 -18.6,10.8 -37.1,21.7 -55.4,32.7 v 0 c -15.4,9.3 -30.6,18.6 -45.8,28 v 0 c -12.6,7.8 -25.2,15.7 -37.6,23.6 v 0 c -15.8,10.1 -31.6,20.3 -47.2,30.5 v 0 c -14.2,9.3 -28.4,18.7 -42.4,28.2 -41,27.7 -81,55.9 -120.3,84.6 -24.4,17.9 -48.5,35.9 -72.2,54.2 -10.7,8.2 -21.3,16.5 -31.8,24.8 h -0.5 v 0 h -0.2 v 0 c -3.7,2.9 -7.5,5.9 -11.2,8.8 v 0 c -48.9,39 -96.6,78.8 -142.9,119.7 -7.8,6.9 -15.5,13.7 -23.3,20.5 v 0 c -30,27 -59.5,54.3 -88.4,81.9 v 0 c -1,1 -2.1,2 -3.1,3 -9.2,9 -18.4,17.8 -27.5,26.6 v 0 c -2.3,2.3 -4.6,4.6 -6.9,6.8 v 0 c -1.6,1.6 -3.1,3.1 -4.6,4.6 -86.2,85.2 -167,173.3 -243.4,264.9 -18.9,22.7 -37.5,45.6 -55.9,68.7 v 0 c -12.2,15.3 -24.3,30.8 -36.3,46.3 v 0 c -11.2,14.7 -22.5,29.4 -33.6,44.3 v 0 c -16.4,21.8 -32.5,43.8 -48.3,65.9 v 0 c -2.2,3.1 -4.4,6.2 -6.6,9.4 -1.2,1.6 -2.4,3.2 -3.6,4.8 v 0 c -3,4.3 -6.1,8.6 -9.1,12.8 -2.2,3.2 -4.4,6.3 -6.6,9.5 v 0 c -1.9,2.8 -3.8,5.7 -5.6,8.5 -10.1,14.2 -19.9,28.6 -29.6,43.1 -4.6,6.5 -9,12.9 -13.4,19.3 -5.5,8.3 -11,16.6 -16.6,24.9 -6,9.2 -11.8,18.4 -17.6,27.6 -1.1,1.7 -2.2,3.5 -3.2,5.3 -2.6,4.1 -5.2,8.3 -7.8,12.4 -6.3,10.3 -12.5,20.7 -18.5,31.1 -4.3,7.4 -8.5,14.8 -12.7,22.2 -28.4,50.5 -53.6,101.3 -75.7,151.9 -2.2,4.9 -4.3,9.8 -6.4,14.7 -4.9,11.5 -9.6,23 -14.2,34.6 v 0 c -0.6,1.6 -1.2,3.1 -1.7,4.7 -1.2,2.7 -2.3,5.4 -3.4,8.1 v 0 c -0.9,2.4 -1.8,4.8 -2.7,7.2 -0.1,0.3 -0.3,0.6 -0.4,0.9 -0.1,0.2 -0.1,0.2 -0.1,0.4 -25.8,67.3 -46.8,135.1 -62.9,202.8 -14.7,61.7 -25.5,123.5 -32.5,185 -0.2,2.6 -0.5,5.3 -0.7,7.9 -0.7,6.1 -1.4,12.2 -2,18.3 -0.8,8.3 -1.5,16.5 -2.1,24.9 -0.2,2.7 -0.4,5.5 -0.6,8.3 546.2,-644.5 1277.2,-1172.9 2275.1,-1525.6 -0.1,-0.1 -0.1,-0.1 -0.2,-0.2 -81.6,-122.9 -169.8,-238.2 -263.5,-344.7 v 0 c -72.6,-82.4 -148.6,-159.7 -227.6,-231.3"
         style="fill:#79a3d4;fill-opacity:1;fill-rule:nonzero;stroke:none"
         id="path288" /><path
         d="m 28964.4,28440.7 v 0 c -0.6,3.4 -1.3,6.8 -2.2,10.4 -0.4,1.4 -0.8,2.8 -1.2,4.2 1.5,-5 2.6,-9.9 3.4,-14.6"
         style="fill:#7099d7;fill-opacity:1;fill-rule:nonzero;stroke:none"
         id="path290" /><path
         d="m 28964,28405.7 c 0,0.1 0.1,0.1 0.1,0.2 0.2,1.1 0.4,2.2 0.6,3.3 1.8,9.7 1.6,20.3 -0.3,31.5 v 0 c 2,-11.2 2.1,-21.7 0.4,-31.3 -0.2,-1.3 -0.5,-2.5 -0.8,-3.7"
         style="fill:#5959a3;fill-opacity:1;fill-rule:nonzero;stroke:none"
         id="path292" /><path
         d="m 28957.5,28465.9 c -3.4,9.6 -8,19.7 -13.6,30.2 5.6,-10.5 10.2,-20.6 13.7,-30.2 0.1,0 0.1,0 0.1,0"
         style="fill:#5959a3;fill-opacity:1;fill-rule:nonzero;stroke:none"
         id="path294" /><path
         d="m 28964.1,28405.9 c 0.2,1.1 0.4,2.3 0.6,3.5 v 0 c 1.3,7.1 1.6,14.6 0.8,22.6 0,0.1 0,0.1 0,0.2 0,0.1 0,0.2 0,0.2 -0.5,5.7 -1.6,11.5 -3.1,17.5 -0.1,0.4 -0.2,0.8 -0.2,1.2 0.9,-3.6 1.6,-7 2.2,-10.4 1.9,-11.2 2.1,-21.8 0.3,-31.5 -0.2,-1.1 -0.4,-2.2 -0.6,-3.3"
         style="fill:#caf1ff;fill-opacity:1;fill-rule:nonzero;stroke:none"
         id="path296" /><path
         d="m 28962.2,28451.1 c -0.5,1.8 -1.1,3.7 -1.6,5.5 -0.2,0.6 -0.3,1.1 -0.5,1.6 v 0 c 0.4,-1 0.6,-1.9 0.9,-2.9 0.4,-1.4 0.8,-2.8 1.2,-4.2"
         style="fill:#6986c7;fill-opacity:1;fill-rule:nonzero;stroke:none"
         id="path298" /><path
         d="m 28960.1,28458.2 c -0.8,2.5 -1.6,5.1 -2.6,7.7 0.2,0 0.2,0 0.2,0 0.8,-2.6 1.7,-5.2 2.4,-7.7 v 0"
         style="fill:#5959a3;fill-opacity:1;fill-rule:nonzero;stroke:none"
         id="path300" /><path
         d="m 28964.7,28409.4 c 1.3,7.1 1.5,14.7 0.8,22.6 0.8,-8 0.5,-15.5 -0.8,-22.6 m 0.8,22.8 c 0,0.1 0,0.2 0,0.2 0,0 0,-0.1 0,-0.2 m -3.1,17.7 c -0.5,2.2 -1.1,4.5 -1.8,6.7 0.5,-1.8 1.1,-3.7 1.6,-5.5 0,-0.4 0.1,-0.8 0.2,-1.2"
         style="fill:#a8c3e3;fill-opacity:1;fill-rule:nonzero;stroke:none"
         id="path302" /><path
         d="m 20451.1,31304.3 c 7.7,4.9 15.5,9.8 23.2,14.6 -7.6,-4.8 -15.2,-9.6 -22.7,-14.4 -0.2,-0.1 -0.3,-0.1 -0.5,-0.2"
         style="fill:#ffffff;fill-opacity:1;fill-rule:nonzero;stroke:none"
         id="path304" /><path
         d="m 28939.2,28355.8 c -73.4,27.4 -147.8,54.5 -222.6,80.5 -932.6,733.5 -3267.9,1988 -4904,2564.8 -494.4,174.3 -938.9,297.3 -1340,374.5 -18.5,92.3 -39.9,183.1 -64.3,272.2 -191.4,24.2 -371.2,35.9 -540.4,35.9 -522.4,0 -943.8,-111.2 -1296.2,-307.5 -40.8,-22.7 -80.4,-46.5 -118.8,-71.3 -0.5,-0.1 -0.9,-0.3 -1.3,-0.4 7.5,4.8 15.1,9.6 22.7,14.4 26.4,16.5 53.2,32.5 80.6,48.1 355.6,202.4 782.7,316.8 1314.1,316.8 579.3,0 1282.5,-136 2152.2,-442.4 1845.5,-650.6 4646.9,-2227.9 4922.7,-2745.3 5.6,-10.5 10.2,-20.6 13.6,-30.2 1,-2.6 1.8,-5.2 2.6,-7.7 0.2,-0.5 0.3,-1 0.5,-1.6 0.7,-2.2 1.3,-4.5 1.8,-6.7 1.5,-6 2.6,-11.8 3.1,-17.5 0,0 0,-0.1 0,-0.2 0,-0.1 0,-0.1 0,-0.2 0.7,-7.9 0.5,-15.5 -0.8,-22.6 v 0 c -0.2,-1.2 -0.4,-2.4 -0.6,-3.5 0,-0.1 -0.1,-0.1 -0.1,-0.2 -3.5,-15.7 -12,-32.3 -24.8,-49.9"
         style="fill:#59adec;fill-opacity:1;fill-rule:nonzero;stroke:none"
         id="path306" /><path
         d="m 20452.9,31304.9 c 38.4,24.8 78,48.6 118.8,71.3 352.4,196.3 773.8,307.5 1296.2,307.5 169.2,0 349,-11.7 540.4,-35.9 24.4,-89.1 45.8,-179.9 64.3,-272.2 -356.5,68.6 -678.8,100.9 -971.6,100.9 -400.5,0 -745.8,-60.5 -1048.1,-171.6"
         style="fill:#caf1ff;fill-opacity:1;fill-rule:nonzero;stroke:none"
         id="path308" /><path
         d="m 24223.4,27978.5 c -16.1,0 -32.4,0.4 -48.9,1.3 -282,15.7 -744.4,299.8 -1031.9,606 0.1,0 0.2,-0.1 0.3,-0.1 v 0 c 142.5,-33.3 288.4,-64.1 437.3,-91.3 206.8,-122.4 432.1,-219 620.3,-261.3 -0.1,0 -0.1,0 -0.1,0 10.5,-2.3 20.8,-4.5 31,-6.5 55.1,-10.8 106.5,-16.6 152.8,-16.6 11.7,0 23.1,0.4 34.1,1.1 v 0 c 186.1,12.8 340.4,83.4 458,182.8 0.7,0.6 1.4,1.2 2.1,1.8 24.2,0.6 48.3,1.4 72.4,2.2 -124.1,-221.2 -388,-419.4 -727.4,-419.4"
         style="fill:#79a3d4;fill-opacity:1;fill-rule:nonzero;stroke:none"
         id="path310" /><path
         d="m 24994,28490.3 c 6.2,16.5 11.6,33.1 16.1,49.5 0.1,0 0.1,0.1 0.1,0.1 -4.6,-16.5 -10,-33 -16.2,-49.6 m -1851.1,95.4 c -0.1,0 -0.2,0.1 -0.3,0.1 -206,219.3 -322.2,449.9 -218.2,601.3 8.7,12.7 20.5,22.4 35.2,29.7 -14.7,-7.3 -26.4,-17 -35.1,-29.7 -104,-151.4 12.1,-381.9 218.4,-601.4"
         style="fill:#005ac0;fill-opacity:1;fill-rule:nonzero;stroke:none"
         id="path312" /><path
         d="m 24950.9,28397.9 c -380.6,-13.4 -770,-0.7 -1170.9,62.6 -218.7,34.3 -431.4,77.1 -637.1,125.2 -206.3,219.5 -322.4,450 -218.4,601.4 117.8,171.7 803.4,-188.1 1701.6,-193.1 415.4,-2.4 480.7,-317.4 324.8,-596.1"
         style="fill:#2363c1;fill-opacity:1;fill-rule:nonzero;stroke:none"
         id="path314" /><path
         d="m 24418.3,28211.2 c -479.7,-32.8 -1621.4,657.3 -1441.6,1049.5 46.6,101.7 288.7,65.5 643,29.2 292.7,-29.9 662,-59.8 1061.1,-12.1 747.3,89.5 529.3,-1012.4 -262.5,-1066.6"
         style="fill:#3087d6;fill-opacity:1;fill-rule:nonzero;stroke:none"
         id="path316" /><path
         d="m 22976.7,29260.8 c -179.8,-392.4 961.9,-1082.4 1441.6,-1049.7 15.1,1.1 29.7,2.5 44.3,4.3 -525.9,300.9 -977.7,734.1 -840,1034.6 6.7,14.3 16,26.4 28.3,36.7 -371.4,37.3 -626.2,78.8 -674.2,-25.9"
         style="fill:#2363c1;fill-opacity:1;fill-rule:nonzero;stroke:none"
         id="path318" /><path
         d="m 24418.3,28211.1 v 0 c 14.1,1 27.8,2.3 41.4,4 167.6,19.6 307.9,86.9 416.6,178.8 -117.6,-99.4 -271.9,-170 -458,-182.8 v 0"
         style="fill:#a8c3e3;fill-opacity:1;fill-rule:nonzero;stroke:none"
         id="path320" /><path
         d="m 25092.2,29118.3 c -56.7,98.9 -164.3,164.7 -328.5,164.7 -26.2,0 -53.8,-1.7 -82.9,-5.2 -4,-0.4 -7.9,-0.9 -11.8,-1.3 -0.2,0 -0.4,0.1 -0.6,0.2 4.1,0.2 8.4,0.8 12.4,1.3 29.1,3.5 56.7,5.1 82.9,5.1 164.2,0 271.9,-65.8 328.5,-164.8"
         style="fill:#59adec;fill-opacity:1;fill-rule:nonzero;stroke:none"
         id="path322" /><path
         d="m 24459.7,28215.1 c 1,0.1 1.9,0.2 2.9,0.3 -31.2,17.9 -62.1,36.2 -92.7,54.9 530.5,178.6 691.8,865.5 299.1,1006.2 3.9,0.4 7.8,0.9 11.8,1.3 29.1,3.5 56.7,5.2 82.9,5.2 164.2,0 271.8,-65.8 328.5,-164.7 111.9,-195.6 25.3,-520.5 -215.9,-724.4 -108.7,-91.9 -249,-159.2 -416.6,-178.8"
         style="fill:#78b1e4;fill-opacity:1;fill-rule:nonzero;stroke:none"
         id="path324" /><path
         d="m 24231.4,28226.6 c -10.2,2 -20.5,4.2 -31,6.5 0,0 0,0 0.1,0 10.4,-2.3 20.7,-4.5 30.9,-6.5"
         style="fill:#a8c3e3;fill-opacity:1;fill-rule:nonzero;stroke:none"
         id="path326" /><path
         d="m 24384.6,28210 c -46.5,0 -98,5.8 -153.2,16.6 -10.2,2 -20.5,4.2 -30.9,6.5 60,6.7 116.5,19.4 169.4,37.2 30.6,-18.7 61.5,-37 92.7,-54.9 -1,-0.1 -1.9,-0.2 -2.9,-0.3 -13.6,-1.7 -27.3,-3 -41.4,-4 v 0 c -10.9,-0.7 -22.2,-1.1 -33.7,-1.1"
         style="fill:#7099d7;fill-opacity:1;fill-rule:nonzero;stroke:none"
         id="path328" /><path
         d="m 23065.5,29214.1 c -25.4,-64.3 17.3,-147.5 58.2,-206.6 227.4,-329.1 949.4,-719.2 1287.8,-696.5 255,17.5 470.1,162.2 575.6,387.2 68.7,146.6 71.1,299.4 6.1,389.4 -69.8,96.5 -202.1,102.6 -300.5,91 -454.6,-54.5 -872.7,-10.4 -1178,21.7 -178.4,18.8 -399.5,42 -449.2,13.8 z m 1320.6,-1103.9 c -414.7,0 -1168.6,409.6 -1427,783.6 -129.5,187.4 -111.3,325.6 -73.3,408.6 72.3,157.7 289.8,134.7 649.9,96.8 295.8,-31.1 701,-73.9 1133.2,-22.1 214.8,25.6 387.4,-35.5 486.4,-172.4 108.5,-150.2 113.5,-376.8 12.9,-591.4 -105.6,-225.2 -356.2,-475.4 -743.1,-501.8 -12.6,-0.9 -25.6,-1.3 -39,-1.3"
         style="fill:#000072;fill-opacity:1;fill-rule:nonzero;stroke:none"
         id="path330" /><path
         d="m 28815,28452 v -0.1 z m -8784.3,660.9 c 673.4,-1022.8 1752.6,-1606 3299.3,-1783 949.2,-108.7 2229.9,16.2 3513.7,342.4 1183.5,300.7 1839.7,633.6 1957,760.8 -80.3,142.9 -582.4,557.7 -1728.9,1205.3 -1064.8,601.4 -2224.7,1145.3 -3102.9,1454.9 -1507,531.3 -2567.3,574.8 -3336.5,137.3 -736.1,-418.8 -1029.6,-1173.2 -730.4,-1877.4 35.7,-83.9 79,-164.8 128.7,-240.3 z m 4024.7,-2135 c -269.5,0 -524.6,13.3 -761.1,40.3 -1644.7,188.2 -2797.9,817 -3525.6,1922.1 v 0.1 c -60.1,91.2 -112.4,188.8 -155.4,290.2 -359,844.5 -3.7,1779.1 864,2272.6 854.1,485.9 1996.8,449.6 3595.9,-114 918.9,-324 2168.5,-913.7 3261.1,-1539.2 1857.3,-1063.1 1804.7,-1357.5 1784.9,-1468.4 -78.2,-437.6 -1766.2,-900.6 -2103.8,-989 -1036.1,-271.2 -2075.1,-414.7 -2960,-414.7"
         style="fill:#000072;fill-opacity:1;fill-rule:nonzero;stroke:none"
         id="path332" /><path
         d="m 22996.7,29297.8 c 162.7,-79.2 334.6,-145.6 507.5,-202.7 173.3,-56.7 350,-102.4 528.3,-136.5 178.2,-34.8 358.9,-51.4 538.5,-56.2 180,-3.7 358.2,16.2 532.1,50.3 l 3.7,0.7 c 42.5,8.3 83.8,-19.4 92.1,-61.9 8.3,-42.5 -19.4,-83.8 -61.9,-92.1 -1,-0.2 -2.2,-0.4 -3.1,-0.5 -189,-29.2 -379.2,-41.9 -567.7,-30.2 -188,12.9 -374.5,38.2 -556.4,81.6 -181.9,42.8 -360.5,97.1 -534.7,162.2 -174.2,65.8 -343.9,139.6 -508.9,228.6 -15.7,8.5 -21.5,28 -13.1,43.6 8.2,15.3 26.9,21.2 42.3,13.7 l 1.3,-0.6"
         style="fill:#000072;fill-opacity:1;fill-rule:nonzero;stroke:none"
         id="path334" /><path
         d="m 22981.6,29156.7 c 141.3,-106.5 295.4,-200.8 452.4,-284.5 157.7,-83.5 321.3,-154.9 488.7,-212.7 167.9,-56.8 340.8,-94.8 514.2,-115.7 174.1,-18.9 348.2,-9.4 517.5,19 l 4.4,0.7 c 42.7,7.2 83.1,-21.7 90.3,-64.4 7.2,-42.8 -21.7,-83.2 -64.4,-90.4 -0.9,-0.1 -2.2,-0.3 -3.1,-0.4 -187.9,-23.9 -377.1,-25.2 -561.6,2.8 -183.8,30.1 -363.3,78 -534.9,144.4 -171.2,67.3 -336.1,148 -493.8,240.2 -157.5,93 -308.4,194.2 -450.6,311.3 -13.8,11.3 -15.7,31.6 -4.4,45.3 11,13.3 30.4,15.6 44.1,5.3 l 1.2,-0.9"
         style="fill:#000072;fill-opacity:1;fill-rule:nonzero;stroke:none"
         id="path336" /><path
         d="m 19747.5,30053.8 c 610.3,-430.7 1317.6,-420.7 1308.9,-481.6 -8.6,-60.8 -1029.8,-65.5 -1378.9,99.3 0,0 -139.4,224.9 70,382.3"
         style="fill:#000072;fill-opacity:1;fill-rule:nonzero;stroke:none"
         id="path338" /><path
         d="m 18945.9,23144.7 c 106.1,-118.8 170.1,-275 170.1,-446.5 0,-371.6 -300.8,-672.4 -672.4,-672.4 -139,0 -268.3,42.4 -375.8,114.7 -107.5,-72.3 -236.9,-114.7 -375.9,-114.7 -371.5,0 -672.4,300.8 -672.4,672.4 0,3 0,6.3 0.3,9.3 -128.7,122.4 -208.9,295.2 -208.9,486.9 0,371.6 300.8,672.5 672.4,672.5 114.7,0 222.9,-28.9 317.4,-79.6 83.6,275.9 339.7,476.6 642.9,476.6 371.6,0 672.4,-301.2 672.4,-672.4 0,-171.5 -64.3,-328.1 -170.1,-446.8"
         style="fill:#ffffff;fill-opacity:1;fill-rule:nonzero;stroke:none"
         id="path340" /><path
         d="m 19116,22703.1 c 0,1 0,2 0,2.9 0,-0.9 0,-1.9 0,-2.9"
         style="fill:#b175cc;fill-opacity:1;fill-rule:nonzero;stroke:none"
         id="path342" /><path
         d="m 18443.5,22025.8 c -138.8,0 -268.3,42.4 -375.7,114.9 -107.5,-72.5 -236.9,-114.9 -375.7,-114.9 -371.8,0 -672.6,300.8 -672.6,672.6 0,2.7 0,6.2 0.4,9 -128.6,122.3 -209,295.3 -209,487 0,207.1 93.7,392.6 240.8,515.7 4.7,-184.7 83.9,-350.9 208.6,-469.4 -0.4,-2.7 -0.4,-6.3 -0.4,-9 0,-371.8 300.8,-672.6 672.6,-672.6 138.8,0 268.2,42.4 375.7,115 107.4,-72.6 236.8,-115 376.1,-115 164.3,0 314.9,58.9 431.3,156.5 0.3,-3.3 0.4,-6.4 0.4,-9.6 0,-0.9 0,-1.9 0,-2.9 0,-1.5 0,-3.1 0,-4.7 0,-371.8 -300.8,-672.6 -672.5,-672.6"
         style="fill:#b2b2d4;fill-opacity:1;fill-rule:nonzero;stroke:none"
         id="path344" /><path
         d="m 17178.4,22690.4 v -0.2 z m 0,-0.3 -0.1,-0.8 z m 889.4,-390.1 c 31,0 62.1,-9 89,-27.1 85.2,-57.3 184.4,-87.6 286.8,-87.6 282.8,0 512.9,230.1 512.9,512.9 0,125.9 -46,246.7 -129.5,340.2 -54.1,60.4 -54.2,151.8 -0.2,212.4 83.6,93.9 129.7,214.9 129.7,340.7 0,282.8 -230.1,512.9 -512.9,512.9 -227.3,0 -424.4,-146 -490.2,-363.4 -13.8,-45.7 -47.5,-82.9 -91.7,-101.2 -44.2,-18.2 -94.2,-15.7 -136.4,6.9 -73.9,39.7 -157.6,60.6 -242,60.6 -282.8,0 -512.9,-230.1 -512.9,-512.9 0,-141.7 56.6,-273.6 159.4,-371.4 34.4,-32.6 52.3,-78.8 49.2,-125.9 1.3,-282.9 230.9,-511.8 512.9,-511.8 102.5,0 201.7,30.3 286.8,87.6 26.9,18.1 58,27.1 89.1,27.1 z m 375.8,-433.7 c -131.5,0 -259.7,30.7 -375.8,89.6 -116.2,-58.9 -244.3,-89.6 -375.9,-89.6 -439.6,0 -800.7,342.7 -830,775.1 -136.3,152.2 -210.6,346.1 -210.6,553 0,458.8 373.2,832 832,832 78.5,0 156.6,-11.3 231.7,-32.9 143.5,262.7 418.7,430 728.6,430 458.8,0 832,-373.3 832,-832 0,-159.4 -45.6,-314 -130.2,-446.7 84.6,-132.5 130.2,-287.1 130.2,-446.6 0,-458.8 -373.2,-831.9 -832,-831.9"
         style="fill:#000072;fill-opacity:1;fill-rule:nonzero;stroke:none"
         id="path346" /><path
         d="m 13490.2,14947.1 c -799.7,149.5 -1607,-543.3 -1803.2,-1547.4 -196.2,-1004.1 293,-1939.3 1092.7,-2088.8 799.7,-149.5 1607,543.3 1803.2,1547.4 196.2,1004.1 -293,1939.3 -1092.7,2088.8"
         style="fill:#000072;fill-opacity:1;fill-rule:nonzero;stroke:none"
         id="path348" /><path
         d="m 13398.3,14527.4 c -264.4,-68 -403.6,-402.7 -310.9,-747.6 92.7,-344.9 382.3,-569.3 646.7,-501.3 264.4,68.1 403.6,402.8 310.9,747.7 -92.8,344.8 -382.3,569.3 -646.7,501.2"
         style="fill:#ffffff;fill-opacity:1;fill-rule:nonzero;stroke:none"
         id="path350" /><path
         d="m 12353.3,12429.3 c -128,-66.2 -158.6,-255.2 -68.3,-422.2 90.2,-166.9 267.2,-248.6 395.2,-182.4 128,66.3 158.6,255.3 68.3,422.2 -90.2,167 -267.2,248.6 -395.2,182.4"
         style="fill:#b199c5;fill-opacity:1;fill-rule:nonzero;stroke:none"
         id="path352" /><path
         d="m 19335.5,14947.1 c 799.7,149.5 1607,-543.3 1803.2,-1547.4 196.2,-1004.1 -293.1,-1939.3 -1092.8,-2088.8 -799.6,-149.5 -1607,543.3 -1803.1,1547.4 -196.2,1004.1 293,1939.3 1092.7,2088.8"
         style="fill:#000072;fill-opacity:1;fill-rule:nonzero;stroke:none"
         id="path354" /><path
         d="m 19427.4,14527.4 c 264.4,-68 403.6,-402.7 310.9,-747.6 -92.8,-344.9 -382.3,-569.3 -646.7,-501.3 -264.4,68.1 -403.6,402.8 -310.9,747.7 92.8,344.8 382.3,569.3 646.7,501.2"
         style="fill:#ffffff;fill-opacity:1;fill-rule:nonzero;stroke:none"
         id="path356" /><path
         d="m 20472.4,12429.3 c 128,-66.2 158.6,-255.2 68.3,-422.2 -90.3,-166.9 -267.2,-248.6 -395.2,-182.4 -128,66.3 -158.6,255.3 -68.3,422.2 90.2,167 267.2,248.6 395.2,182.4"
         style="fill:#b199c5;fill-opacity:1;fill-rule:nonzero;stroke:none"
         id="path358" /></g></g></svg>
