<?xml version="1.0" encoding="UTF-8" standalone="no"?>
<!-- Created with Inkscape (http://www.inkscape.org/) -->

<svg
   version="1.1"
   id="svg39076"
   width="370.19116"
   height="499.99982"
   viewBox="0 0 370.19116 499.99982"
   sodipodi:docname="4500_7_05.eps"
   xml:space="preserve"
   xmlns:inkscape="http://www.inkscape.org/namespaces/inkscape"
   xmlns:sodipodi="http://sodipodi.sourceforge.net/DTD/sodipodi-0.dtd"
   xmlns="http://www.w3.org/2000/svg"
   xmlns:svg="http://www.w3.org/2000/svg"><defs
     id="defs39080" /><sodipodi:namedview
     id="namedview39078"
     pagecolor="#ffffff"
     bordercolor="#000000"
     borderopacity="0.25"
     inkscape:showpageshadow="2"
     inkscape:pageopacity="0.0"
     inkscape:pagecheckerboard="0"
     inkscape:deskcolor="#d1d1d1"
     showgrid="false" /><g
     id="g39084"
     inkscape:groupmode="layer"
     inkscape:label="Page 1"
     transform="matrix(1.3333333,0,0,-1.3333333,-1.6637623,5332.3231)"><g
       id="g39086"
       transform="matrix(0.01223896,0,0,0.01223113,-104.07565,3569.0104)"><path
         d="m 19979.6,4515.7 c -4181.7,0 -7571.6,579.9 -7571.6,1295.3 0,326.4 705.4,624.5 1869.9,852.3 5.1,-166.3 57.2,-335.6 154,-490.8 275.5,-441.9 1154.9,-532.2 2134.9,-532.2 133,0 268.1,1.6 403.5,4.3 84.6,1.7 156.3,3.2 210.9,3.2 709,0 1197.2,298.5 1492.4,912.6 78.1,162.4 140.3,341 191.7,531.9 363.6,9.2 735.8,14 1114.3,14 312.4,0 620.6,-3.3 923.1,-9.6 76.3,-183.8 163.5,-364.4 264.9,-540 108.6,-186.3 234,-367.2 388.8,-529.2 154.3,-161.2 339.4,-305.1 555.9,-398.3 107.6,-46.9 222.6,-79.2 339.1,-96.7 122.2,-17.2 221.2,-18.7 326,-24 163.2,-6.7 326.2,-10.2 489.5,-10.2 45,0 90.1,0.3 135.1,0.8 208.5,2.5 417.4,11 627.1,28.4 209.6,17.5 420,43.3 631.7,89.4 105.8,23.6 211.9,51.7 318.3,91.1 106.2,39.9 213.7,88.7 316.8,167.1 51,39.6 101.4,86.7 143.2,147.2 22.7,32.9 34.6,55.7 49.9,82.8 14.1,26.7 27.6,53.8 39.6,81.7 48.4,111.1 79.9,232.2 85.5,357.5 2.4,43.9 1.4,88.3 -2.9,132.5 1206,-229.4 1940,-533 1940,-865.8 0,-715.4 -3389.9,-1295.3 -7571.6,-1295.3"
         style="fill:#e5e7eb;fill-opacity:1;fill-rule:nonzero;stroke:none"
         id="path39090" /><path
         d="m 15825.1,12804.6 c -325.7,-810.3 -992.2,-2927.2 -618.1,-5310.1 -856.5,-285.5 -853.9,-867.2 -627.6,-1230.1 343.5,-550.8 2120.9,-442.9 2601.8,-442.9 2369.9,0 1207.3,3592.5 2546.8,5494.7 l -3902.9,1488.4"
         style="fill:#c4bfc2;fill-opacity:1;fill-rule:nonzero;stroke:none"
         id="path39092" /><path
         d="m 16566.8,5640.3 c -980,0 -1859.4,90.3 -2134.9,532.2 -159,254.9 -197.3,547.8 -105.3,803.3 69.5,192.9 245.8,451 687.7,632.5 -352.6,2501.3 405,4652.8 649.6,5261.1 35.8,89.1 136.9,132.3 226,96.5 89.1,-35.8 132.3,-137 96.5,-226.1 -240.7,-598.9 -996,-2745.2 -607.7,-5218.4 l 22.8,-145.3 -139.6,-46.6 c -325.9,-108.6 -536.3,-271.6 -608.3,-471.5 -79.1,-219.8 24.9,-424 73.3,-501.6 251.6,-403.5 1745.6,-374.1 2236.6,-364.2 87.3,1.7 161.3,3.1 217.7,3.1 1195.5,0 1378.1,968.6 1577,2548.9 121.8,968.3 260,2065.8 827.7,2872.1 55.3,78.5 163.7,97.3 242.2,42 78.5,-55.2 97.3,-163.7 42,-242.2 -517.9,-735.4 -644.5,-1742 -767,-2715.3 -91.8,-729.5 -178.5,-1418.4 -429.5,-1940.4 -295.2,-614.1 -783.4,-912.6 -1492.4,-912.6 -54.6,0 -126.3,-1.5 -210.9,-3.2 -135.4,-2.7 -270.5,-4.3 -403.5,-4.3"
         style="fill:#6b184e;fill-opacity:1;fill-rule:nonzero;stroke:none"
         id="path39094" /><path
         d="m 19728.2,11316.2 c -580.1,-823.8 -691.3,-1964.4 -823,-2992.9 -172.5,-1347 -380.2,-2501.9 -1724.1,-2501.9 -481,0 -2258.2,-107.8 -2601.8,443.2 -116.1,186.4 -173.4,430.2 -85.6,661.8 83,219.8 296.3,428.8 713.4,567.9 -30.8,194.6 -54.3,387.5 -71.7,578.3 -111.6,1222.7 31.3,2348.9 230.3,3228.8 149.9,661.8 331.1,1184 459.3,1503.4 l 3903.2,-1488.6"
         style="fill:#8e8fb3;fill-opacity:1;fill-rule:nonzero;stroke:none"
         id="path39096" /><path
         d="m 18078.2,7946.7 c 3.9,67.2 5.8,136.6 5.8,208.4 0,1057.7 -1755.2,1353.2 -2595,2895.1 30.5,148.1 62.8,289.3 95.8,422.7 490.8,-878.4 1480.4,-1515 2793.3,-1778.4 175.8,-35.3 354.8,-63.1 535.5,-83.5 -66.4,-359.3 -111.9,-721.3 -155.4,-1066.8 -15.3,-121.5 -30.5,-239.4 -46.1,-353.4 -20.1,-11.7 -40.8,-23.2 -61.9,-34.3 -0.2,-0.1 -0.3,-0.2 -0.5,-0.3 -0.4,-0.2 -0.9,-0.4 -1.3,-0.6 -165.7,-87.2 -358.4,-156.5 -570.2,-208.9"
         style="fill:#7272a6;fill-opacity:1;fill-rule:nonzero;stroke:none"
         id="path39098" /><path
         d="m 18905.2,8323.3 c -172.5,-1347 -380.2,-2501.9 -1724.1,-2501.9 -481,0 -2258.2,-107.8 -2601.8,443.2 -83.5,133.8 -136.5,297.2 -127.4,464.5 0.5,6.9 0.9,13.9 1.8,20.8 2.2,27.4 6.5,54.8 12.1,81.7 1.4,7 3.1,13.5 4.8,20 2.6,12.2 6.1,24.3 10,36.5 2.2,7.4 4.4,14.8 7.4,22.2 1.7,5.6 3.5,10.8 5.7,16.1 162.5,-130.4 524.4,-287.3 1326.5,-376.3 1603.8,-178.6 2195.1,303.3 2257.7,1396.5 333.3,82.5 619.6,206.8 827.3,376.7"
         style="fill:#e8e8e8;fill-opacity:1;fill-rule:nonzero;stroke:none"
         id="path39100" /><path
         d="m 18905.2,8323.3 c -172.5,-1347 -380.2,-2501.9 -1724.1,-2501.9 -481,0 -2258.2,-107.8 -2601.8,443.2 -226,362.8 -229,944.2 627.8,1229.7 -30.8,194.6 -54.3,387.5 -71.7,578.3 1284.4,-384.6 3029,-355 3769.8,250.7"
         style="fill:#ffffff;fill-opacity:1;fill-rule:nonzero;stroke:none"
         id="path39102" /><path
         d="m 18077.9,7946.2 c 0,0.1 0,0.2 0,0.4 211.9,52.5 404.8,121.8 570.5,209 -165.8,-87.3 -358.7,-156.8 -570.5,-209.4 m 571.8,210 c 0.2,0.1 0.3,0.2 0.5,0.3 -0.2,-0.1 -0.3,-0.1 -0.5,-0.3"
         style="fill:#babad0;fill-opacity:1;fill-rule:nonzero;stroke:none"
         id="path39104" /><path
         d="m 16573.7,5987.5 c -641.7,0 -1644.8,44.9 -1846.8,368.9 -46.4,74.4 -144,265.3 -82.1,474.7 206.3,-105.2 562.2,-212.9 1175.4,-281 217.9,-24.3 417.2,-36.4 598.9,-36.4 1155.7,0 1604.6,488 1658.8,1432.5 211.8,52.6 404.7,122.1 570.5,209.4 0.5,0.2 0.9,0.4 1.3,0.6 0.2,0.2 0.3,0.2 0.5,0.3 21.1,11.2 41.7,22.6 61.9,34.3 -186.8,-1370.2 -427.2,-2195.5 -1530.9,-2195.5 -56.4,0 -130.4,-1.4 -217.7,-3.1 -96.8,-2 -232.4,-4.7 -389.8,-4.7"
         style="fill:#cccce3;fill-opacity:1;fill-rule:nonzero;stroke:none"
         id="path39106" /><path
         d="m 16566.3,5645.8 c -978.2,0 -1855.5,90 -2129.7,529.6 -158,253.6 -196.2,544.6 -104.8,798.5 69.3,192.4 245.6,450.1 688.6,630.9 -353.8,2501.7 404.1,4654.2 648.6,5262.6 34.7,86.2 132.7,128 218.9,93.3 86.2,-34.6 128,-132.6 93.3,-218.8 -240.8,-599.3 -996.5,-2746.8 -608,-5221.4 l 22.1,-140.7 -135.1,-45 c -327.7,-109.2 -539.2,-273.4 -611.8,-474.9 -80,-222.1 25,-428.1 73.8,-506.4 253.2,-406.2 1697.6,-377.7 2241.4,-366.9 87.2,1.7 161.2,3.2 217.6,3.2 1200.2,0 1383.2,970.4 1582.5,2553.7 121.8,967.7 259.8,2064.4 826.8,2869.6 53.5,75.9 158.4,94.2 234.4,40.7 76,-53.5 94.2,-158.5 40.7,-234.5 -518.7,-736.6 -645.5,-1743.8 -768.1,-2717.8 -91.7,-729 -178.3,-1417.5 -428.9,-1938.7 -294.2,-612 -780.7,-909.5 -1487.4,-909.5 -54.7,0 -126.4,-1.4 -211,-3.1 -135.6,-2.7 -270.8,-4.4 -403.9,-4.4"
         style="fill:#6b184e;fill-opacity:1;fill-rule:nonzero;stroke:none"
         id="path39108" /><path
         d="m 16577.1,6750.7 c -8,-14.4 -23.7,-36.5 -34.1,-55.1 -10.8,-20 -21.7,-39.2 -29.8,-60.2 -17.5,-40.4 -30.7,-81.9 -39,-125 -18.1,-86.8 -20.5,-174.8 -0.5,-261.2 18.7,-85.3 56.4,-166.5 106.9,-224.7 51.4,-58.7 108.5,-90.5 178.5,-95.8 l 7.8,-0.6 c 69.5,-5.3 121.6,-65.9 116.3,-135.4 -4.7,-62.3 -53.9,-110.6 -114.1,-116.2 -73.2,-6.8 -151.6,5.1 -220.4,36.1 -69.1,30.2 -128.1,76.5 -174.7,128.5 -93.7,105.3 -144.1,231.5 -165.5,359.1 -20.2,127.4 -9.7,262.4 37.2,383.2 24.4,60.5 59.2,118 103.9,166.5 22.6,24.1 47.2,46.3 74.5,64.9 13.4,9.5 27.6,18.1 42.7,25.6 15.4,8.4 28.8,13.3 50,21.1 31.4,11.6 66.2,-4.4 77.9,-35.8 6.3,-17.2 4.4,-35.5 -3.8,-50.4 l -13.8,-24.6"
         style="fill:#6b184e;fill-opacity:1;fill-rule:nonzero;stroke:none"
         id="path39110" /><path
         d="m 15408.7,6920.5 c -28.7,-33 -62.7,-73.8 -84.2,-113.4 -22.9,-40 -40.1,-80.8 -50.7,-123.2 -21.4,-80.8 -25.9,-185.3 -10.9,-279.7 13.9,-95.5 44.7,-189 90.6,-265.2 46.3,-76.8 105.5,-130.6 172.7,-153.4 l 8,-2.7 c 66,-22.4 101.3,-94.1 78.9,-160 -20.2,-59.6 -80.5,-94.1 -140.5,-83.9 -77.3,13.1 -151.5,47 -210.2,93.7 -60.1,45.8 -106.4,102.3 -143.9,161.1 -73.8,118.7 -110.7,249 -123.4,379.7 -6.4,65.5 -4.7,131.6 2.8,197.1 6.8,64.2 23.4,133.6 52.2,198.8 29.9,64.4 72.6,122.7 124.5,168.9 26.6,22.4 53.9,43.3 84.3,59.2 30.9,16.9 59.3,28.5 98.6,38.3 33.6,8.5 67.7,-11.9 76.2,-45.5 5.1,-20.6 -0.5,-41.3 -13.3,-56.3 l -11.7,-13.5"
         style="fill:#6b184e;fill-opacity:1;fill-rule:nonzero;stroke:none"
         id="path39112" /><path
         d="m 16566.8,5640.3 c -980,0 -1859.4,90.3 -2134.9,532.2 -159,254.9 -197.3,547.8 -105.3,803.3 69.5,192.9 245.8,451 687.7,632.5 -352.6,2501.3 405,4652.8 649.6,5261.1 35.8,89.1 136.9,132.3 226,96.5 89.1,-35.8 132.3,-137 96.5,-226.1 -240.7,-598.9 -996,-2745.2 -607.7,-5218.4 l 22.8,-145.3 -139.6,-46.6 c -325.9,-108.6 -536.3,-271.6 -608.3,-471.5 -79.1,-219.8 24.9,-424 73.3,-501.6 251.6,-403.5 1745.6,-374.1 2236.6,-364.2 87.3,1.7 161.3,3.1 217.7,3.1 1195.5,0 1378.1,968.6 1577,2548.9 121.8,968.3 260,2065.8 827.7,2872.1 55.3,78.5 163.7,97.3 242.2,42 78.5,-55.2 97.3,-163.7 42,-242.2 -517.9,-735.4 -644.5,-1742 -767,-2715.3 -91.8,-729.5 -178.5,-1418.4 -429.5,-1940.4 -295.2,-614.1 -783.4,-912.6 -1492.4,-912.6 -54.6,0 -126.3,-1.5 -210.9,-3.2 -135.4,-2.7 -270.5,-4.3 -403.5,-4.3"
         style="fill:#000072;fill-opacity:1;fill-rule:nonzero;stroke:none"
         id="path39114" /><path
         d="m 16577.1,6750.7 c -8,-14.4 -23.7,-36.5 -34.1,-55.1 -10.8,-20 -21.7,-39.2 -29.8,-60.2 -17.5,-40.4 -30.7,-81.9 -39,-125 -18.1,-86.8 -20.5,-174.8 -0.5,-261.2 18.7,-85.3 56.4,-166.5 106.9,-224.7 51.4,-58.7 108.5,-90.5 178.5,-95.8 l 7.8,-0.6 c 69.5,-5.3 121.6,-65.9 116.3,-135.4 -4.7,-62.3 -53.9,-110.6 -114.1,-116.2 -73.2,-6.8 -151.6,5.1 -220.4,36.1 -69.1,30.2 -128.1,76.5 -174.7,128.5 -93.7,105.3 -144.1,231.5 -165.5,359.1 -20.2,127.4 -9.7,262.4 37.2,383.2 24.4,60.5 59.2,118 103.9,166.5 22.6,24.1 47.2,46.3 74.5,64.9 13.4,9.5 27.6,18.1 42.7,25.6 15.4,8.4 28.8,13.3 50,21.1 31.4,11.6 66.2,-4.4 77.9,-35.8 6.3,-17.2 4.4,-35.5 -3.8,-50.4 l -13.8,-24.6"
         style="fill:#000072;fill-opacity:1;fill-rule:nonzero;stroke:none"
         id="path39116" /><path
         d="m 15408.7,6920.5 c -28.7,-33 -62.7,-73.8 -84.2,-113.4 -22.9,-40 -40.1,-80.8 -50.7,-123.2 -21.4,-80.8 -25.9,-185.3 -10.9,-279.7 13.9,-95.5 44.7,-189 90.6,-265.2 46.3,-76.8 105.5,-130.6 172.7,-153.4 l 8,-2.7 c 66,-22.4 101.3,-94.1 78.9,-160 -20.2,-59.6 -80.5,-94.1 -140.5,-83.9 -77.3,13.1 -151.5,47 -210.2,93.7 -60.1,45.8 -106.4,102.3 -143.9,161.1 -73.8,118.7 -110.7,249 -123.4,379.7 -6.4,65.5 -4.7,131.6 2.8,197.1 6.8,64.2 23.4,133.6 52.2,198.8 29.9,64.4 72.6,122.7 124.5,168.9 26.6,22.4 53.9,43.3 84.3,59.2 30.9,16.9 59.3,28.5 98.6,38.3 33.6,8.5 67.7,-11.9 76.2,-45.5 5.1,-20.6 -0.5,-41.3 -13.3,-56.3 l -11.7,-13.5"
         style="fill:#000072;fill-opacity:1;fill-rule:nonzero;stroke:none"
         id="path39118" /><path
         d="m 22721.2,21403.4 c 0,0 704.4,-2613 992.3,-4233.7 243,-1367.8 1090.1,-4259.7 -537.5,-6131.2 -1711.6,-1967.9 -6742.4,-1729.7 -7631.8,955.5 -883.2,2666.4 2210.2,6780.8 1658.9,9110.9 l 5518.1,298.5"
         style="fill:#8e8fb3;fill-opacity:1;fill-rule:nonzero;stroke:none"
         id="path39120" /><path
         d="m 19665.2,9915.6 c -404.3,0 -815.3,38.8 -1218.8,119.7 -1207.8,242.3 -2113.3,816 -2555.4,1602.5 1044.7,-475 2524.9,-676 3999.5,-676 241.9,0 483.5,5.4 723.1,15.9 l -193.4,-700.8 c -6.6,1.7 -13.5,2.5 -20.6,2.5 -0.3,0 -0.5,0 -0.7,0 -47.7,-0.3 -86.2,-39.3 -85.8,-87 l 0.1,-13.8 1,-146 c 0.2,-27.7 0.8,-55.5 1.6,-83.3 -213.5,-22.3 -431.2,-33.7 -650.6,-33.7"
         style="fill:#7272a6;fill-opacity:1;fill-rule:nonzero;stroke:none"
         id="path39122" /><path
         d="m 19665.9,9568.9 c -434.8,0 -870.1,41.8 -1287.8,125.6 -1535.3,308 -2628.4,1126.2 -2998.9,2244.9 -491.6,1484 181.3,3344.2 832.1,5143.1 548.7,1516.9 1067,2949.6 822.7,3982.4 -22.1,93.4 35.7,187 129.1,209.1 93.4,22.1 187.1,-35.7 209.2,-129.1 268.2,-1133.6 -267.3,-2613.6 -834.1,-4180.6 -630.6,-1743.3 -1282.7,-3545.9 -829,-4915.6 330.1,-996.8 1327.8,-1730.6 2737.2,-2013.4 1789.3,-358.9 3723.2,111 4598.4,1117.3 1383.9,1591.2 894.3,4008.6 601.7,5453 -39,192.4 -75.8,374.1 -104.1,533.7 -283.3,1594.6 -981.9,4192.8 -989,4218.9 -24.9,92.6 29.9,188 122.6,213 92.7,25 188.1,-29.9 213.1,-122.6 7,-26.2 709.6,-2638.9 995.5,-4248.5 27.7,-155.5 64.1,-335.2 102.6,-525.5 305.3,-1507.2 816.2,-4029.7 -680.1,-5750.1 -489.2,-562.5 -1244.1,-974.9 -2183.2,-1192.8 -467,-108.4 -962.2,-162.8 -1458,-162.8"
         style="fill:#000072;fill-opacity:1;fill-rule:nonzero;stroke:none"
         id="path39124" /><path
         d="m 23255.3,11301.7 c 2258.9,-1293.9 4403.8,-112.7 4729.1,1676.1 63.9,351.3 57,726.2 -32.5,1110.1 -52.5,225.3 -133.8,453.4 -246.4,682.7 -99.2,202.5 -200.9,405.4 -299.7,608.8 -345.2,709.5 -654.3,1417.5 -708.8,2078.2 -26,313.5 5.3,616.9 118,904.4 59.7,151.6 156.1,282.6 274.4,386.7 140.3,123.2 311.5,209 488,246.4 78.9,16.7 158.6,24 237.5,20.3 508.7,-21.5 970.2,-481.8 783.9,-1629.3 -261,-1612.3 1492,-2116.5 2136.1,-734 28.4,61.4 54,126.1 78,193.6 7.8,23.5 15.9,47.5 23.6,71.5 402.2,1287.4 -85,3516.6 -2073.8,3983.8 -91.1,21.9 -185.8,39.4 -283.8,53.2 -134.2,18.7 -266.4,30.1 -395.7,33.4 -239.9,6.5 -471.2,-13 -691.2,-56.1 -1615.6,-316.4 -2632.5,-1906.7 -2123,-3901.6 273.6,-1070.7 1380.9,-3089.6 912,-4064.7 -148.4,-309 -603.8,-549 -1143.4,-523.7 -13.8,0.4 -28.1,1.2 -42.3,2 h -0.4 c -389.1,28.1 -819,194.8 -1205.7,572.1 l -533.9,-1713.9"
         style="fill:#8e8fb3;fill-opacity:1;fill-rule:nonzero;stroke:none"
         id="path39126" /><path
         d="m 25183.2,10933.4 c -177.5,0 -358,15 -539.8,45.1 34.6,181.9 72.9,365.1 108.7,550.8 26,133.8 50.4,268.7 72.1,404.4 104,72.2 189.6,147.4 254.3,225.2 29.9,36 55.9,71.7 78.2,106.9 40.5,1.1 81.1,3.4 121.6,7.2 362.8,-222.5 741.4,-318.1 1097.6,-318.1 498.6,0 953.4,187.4 1259.1,476.2 -130.8,-284.3 -319.4,-547 -564.2,-776.7 -510.2,-478.8 -1174.7,-721 -1887.6,-721"
         style="fill:#7272a6;fill-opacity:1;fill-rule:nonzero;stroke:none"
         id="path39128" /><path
         d="m 26965.8,15914.6 c -373.9,512.4 -790.8,1255.3 -859.4,2086.1 -75.1,907.9 579.8,1463.8 1264.4,1639.2 -2.8,-10.9 -4.3,-20.8 -4.3,-29.3 0,-3.8 0.3,-7.3 1,-10.5 1.2,-6.7 3.8,-12.1 7.8,-16.4 2.1,-2.2 8,-3.2 16.3,-3.2 20.7,0 57,5.8 93,11.6 36,5.8 71.7,11.5 91.1,11.5 6.2,0 10.8,-0.6 13.1,-1.9 1.1,-0.7 1.7,-1.6 1.7,-2.7 0,-0.3 0,-0.6 -0.1,-0.9 -15.5,-63.5 -39.7,-169.1 -39.6,-319.2 0,-7.1 0.1,-14.2 0.2,-21.5 0.4,-28.5 1.7,-58.5 4.1,-90.1 -390.2,-79.1 -751.8,-358.5 -901.9,-742.2 -303.8,-776.5 -66.3,-1639.4 312.6,-2510.5"
         style="fill:#7272a6;fill-opacity:1;fill-rule:nonzero;stroke:none"
         id="path39130" /><path
         d="m 27375.3,19583.9 c 7.6,-8 58.9,0.1 109.5,8.3 54.7,8.8 108.6,17.6 105.6,5.9 -24,-98 -68.3,-296 -13,-603 1.2,0.4 2,0.4 3.2,0.4 15.5,3.7 30.5,6.5 46,8.5 13.4,2.5 26.8,4.1 40.3,5.7 10.5,1.3 21.5,2.5 32.5,3.3 9.8,0.8 19.9,1.6 30.1,2 28.4,1.7 56.9,1.7 85.4,0.4 508.7,-21.5 970.2,-481.8 783.9,-1629.3 -261,-1612.3 1492,-2116.5 2136.1,-734 28.4,61.4 54,126.1 78,193.6 -324,-243.2 -1133.6,-660.8 -1582.6,-161.9 -631.5,702.3 229,1874.6 -600.5,2738.3 -263.9,274.4 -769,343.6 -1259,217.9 -6.5,-25.6 -6.1,-45.1 4.5,-56.1"
         style="fill:#686868;fill-opacity:1;fill-rule:nonzero;stroke:none"
         id="path39132" /><path
         d="m 27577.4,18995.1 c 78.9,16.7 158.6,24 237.5,20.3 508.7,-21.5 970.2,-481.8 783.9,-1629.3 -261,-1612.3 1492,-2116.5 2136.1,-734 28.4,61.4 54,126.1 78,193.6 7.8,23.5 15.9,47.5 23.6,71.5 402.2,1287.4 -85,3516.6 -2073.8,3983.8 -91.1,21.9 -185.8,39.4 -283.8,53.2 -134.2,18.7 -266.4,30.1 -395.7,33.4 -131.1,-82 -459.2,-401.6 -550.1,-736.5 -5.5,-20.5 42.9,-11.1 91.3,-1.7 49.4,9.6 98.8,19.2 90.5,-3.1 -55.2,-148 -407.8,-590.8 -339.6,-662.6 7.5,-7.9 58.7,0.2 109.3,8.4 54.7,8.8 108.7,17.6 105.9,6 -23.9,-98.1 -68.5,-295.9 -13.1,-603"
         style="fill:#ffffff;fill-opacity:1;fill-rule:nonzero;stroke:none"
         id="path39134" /><path
         d="m 27551,19257.4 c -0.1,7.3 -0.2,14.4 -0.2,21.5 -0.1,150.1 24.1,255.7 39.6,319.2 0.1,0.3 0.1,0.6 0.1,0.9 0,1.1 -0.6,2 -1.7,2.7 1.5,-0.9 2.1,-2.1 1.7,-3.6 -16.2,-66.6 -42,-179.1 -39.5,-340.7 m -183.5,342.7 c -0.7,3.2 -1,6.7 -1,10.5 0,8.5 1.5,18.4 4.3,29.4 v 0 c -4,-15.8 -5.3,-29.3 -3.3,-39.9"
         style="fill:#595969;fill-opacity:1;fill-rule:nonzero;stroke:none"
         id="path39136" /><path
         d="m 29628.7,16023.4 c -83.6,0 -164.9,12.4 -240.8,35.8 -363.8,111.8 -743.7,519 -617.4,1298.8 230.1,1420.5 -497.3,1734.6 -725.7,1797 -87.1,23.8 -176.7,35.1 -266.5,35.1 -74.6,0 -149.4,-7.8 -223.2,-22.8 -2.4,31.6 -3.7,61.6 -4.1,90.1 v 0 c -2.5,161.6 23.3,274.1 39.5,340.7 0.4,1.5 -0.2,2.7 -1.7,3.6 v 0 c -2.3,1.4 -6.9,2 -13.2,2 -19.4,0 -54.9,-5.8 -90.8,-11.5 -35.9,-5.8 -72.2,-11.6 -92.9,-11.6 -8.5,0 -14.4,1 -16.6,3.3 -4,4.2 -6.6,9.6 -7.8,16.2 v 0 c -2,10.6 -0.7,24.1 3.4,39.9 156.6,40.2 314.8,60.4 466.2,60.4 322,0 613.2,-91.7 792.7,-278.3 829.5,-863.7 -31,-2036 600.5,-2738.3 153.4,-170.5 348.9,-233.9 552.7,-233.9 268.9,0 552.3,110.4 772.8,231.5 -234,-467.7 -599.3,-658 -927.1,-658"
         style="fill:#d9d9ea;fill-opacity:1;fill-rule:nonzero;stroke:none"
         id="path39138" /><path
         d="m 25184.4,10584.9 c -660,0 -1354.4,187.3 -2015.2,566 -83.3,47.7 -112.1,153.9 -64.4,237.2 47.7,83.3 153.9,112 237.2,64.4 1325.2,-759.4 2788.8,-680.2 3728.8,201.9 832.8,781.5 1016.4,1946.1 479,3039.2 -37.4,76.2 -75.1,152.4 -112.9,228.8 -591.4,1195.3 -1202.9,2431.2 -783.7,3502.7 212.7,543.7 850,877.9 1391.6,729.9 228.4,-62.4 955.8,-376.5 725.7,-1797 -126.3,-779.8 253.6,-1187 617.4,-1298.8 382.8,-117.8 898.9,42.8 1189.3,666.4 297.1,638.1 330.1,1777.3 -181.9,2719.7 -285.4,525.4 -853.8,1183.8 -1940.8,1336.7 -970.8,136.7 -1865.6,-162.6 -2454.9,-820.7 -642.8,-718.1 -847.8,-1770.9 -562.2,-2888.5 75.8,-296.7 222.2,-680.3 377.2,-1086.4 417.3,-1093.6 890.4,-2333 523.4,-3096.2 -141.3,-293.9 -491.6,-522.9 -914.1,-597.6 -614.4,-108.6 -1254.3,109.5 -1755.9,598.4 -68.8,67 -70.2,177.1 -3.2,245.8 67,68.7 177.1,70.2 245.8,3.1 420.5,-409.8 950,-593.9 1452.8,-505 309.5,54.7 569,214.1 661.3,405.9 302.2,628.4 -161.9,1844.5 -534.9,2821.6 -158.6,415.7 -308.5,808.3 -389.2,1124.4 -314.7,1231.8 -81.4,2400.5 640.1,3206.3 667.8,746 1674.6,1086.1 2762.2,933.1 1230.4,-173 1874.3,-919.3 2197.8,-1514.9 508.4,-935.9 587.2,-2182.9 191.6,-3032.4 -378.7,-813.3 -1079.8,-1013.9 -1606.6,-852 -536.5,164.9 -1010,750.4 -858.3,1686.7 124,765.4 -53.3,1291 -474.2,1406.1 -371.8,101.6 -827.9,-142 -976.3,-521.2 -363.2,-928.5 213.7,-2094.4 771.6,-3221.9 37.9,-76.7 75.7,-153.2 113.3,-229.6 598.1,-1216.8 381,-2569.5 -553.1,-3446.1 -577.1,-541.5 -1325.5,-816 -2124.3,-816"
         style="fill:#000072;fill-opacity:1;fill-rule:nonzero;stroke:none"
         id="path39140" /><path
         d="m 25312.5,6140.8 c -338.5,-554 -2247.7,-475 -2727.9,-442.8 -990.2,65.6 -1535.1,1297.9 -1834,2457.1 -259,1004.2 -332.9,1953.6 -352.4,2042.2 L 23259,20560.8 c 2186,-6835.7 1423.9,-8235.7 1163.2,-9834.2 -21.3,-132.1 -22.2,-343.3 -8.7,-604 30,-595.3 133.4,-1450 227.6,-2214.7 21.3,-169.5 41.8,-335 60.9,-491.9 454.5,-146.8 675.2,-407.1 729.1,-683.9 40,-201.2 -8.3,-410.6 -118.6,-591.3"
         style="fill:#8e8fb3;fill-opacity:1;fill-rule:nonzero;stroke:none"
         id="path39142" /><path
         d="m 21948.1,7823.8 c -198.9,26.1 -373.7,59.3 -526.8,96.1 -183.7,44.3 -336,93.7 -460.2,142.2 -33.4,117.5 -64.3,235.9 -93.2,355 -24,98 -46.4,196.5 -67.6,295.3 -22.3,98.6 -43.9,197.4 -63.9,296.7 l -121.8,597 -61.6,300 -32,150.5 -17.1,75.9 c -6.5,26.7 -11.3,47.9 -20.9,83.2 -8.3,30.2 -32.4,53.8 -62.8,61.2 l 193.4,700.8 c 1529.6,67 2973.6,341.3 3824.6,738.9 -7.6,-40.5 -15.5,-81 -23.5,-121.6 -53,-270.6 -113.6,-544.2 -160.8,-825.1 -25.9,-159.6 -24,-305.1 -21.6,-448.7 1.3,-53.8 3.3,-107.2 5.9,-160.4 -160,29.2 -323.5,43.9 -485.9,43.9 -977.5,0 -1921.6,-530 -1893.3,-1605.1 7,-263.5 35.4,-526.3 89.1,-775.8"
         style="fill:#7272a6;fill-opacity:1;fill-rule:nonzero;stroke:none"
         id="path39144" /><path
         d="m 25445,6590.9 c 0,-22.6 -0.9,-45.2 -3.1,-67.3 -0.8,-13.1 -2.1,-25.7 -4.3,-38.7 -0.9,-8.3 -2.2,-16.1 -3.5,-23.9 -0.8,-5.7 -1.7,-10.9 -3,-16.5 -4.4,-23.5 -9.6,-46.5 -16.1,-69.5 -3.5,-12.2 -6.9,-23.9 -10.9,-35.2 -0.8,-3.1 -1.7,-6.1 -2.6,-9.2 -9.5,-27.8 -20.4,-55.6 -32.5,-82.9 -1.4,-3.1 -2.7,-6.1 -4,-9.2 -7.3,-15.2 -14.7,-30.4 -22.5,-45.2 -9.6,-17.8 -19.6,-35.1 -30,-52.5 -338.5,-554 -2247.7,-475 -2727.9,-442.8 -990.2,65.6 -1535.1,1297.9 -1834,2457.1 221.6,-111.2 602.6,-253.3 1197.9,-331.5 167.7,-781.2 583.1,-1430.4 1365.7,-1554.7 936.3,-149 1756.7,77.4 2116.9,463.2 2.2,-11.7 4.3,-23.9 6.1,-35.6 1.7,-11.7 3.4,-23.5 4.3,-35.6 1.3,-11.8 2.2,-23.5 2.6,-35.7 0.5,-11.3 0.9,-22.6 0.9,-34.3"
         style="fill:#686868;fill-opacity:1;fill-rule:nonzero;stroke:none"
         id="path39146" /><path
         d="m 25312.5,6140.8 c -338.5,-554 -2247.7,-475 -2727.9,-442.8 -990.2,65.6 -1535.1,1297.9 -1834,2457.1 457.5,-229.8 1595.5,-590.9 3890.5,-247.2 21.3,-169.5 41.8,-335 60.9,-491.9 784.7,-253.3 872.5,-845.5 610.5,-1275.2"
         style="fill:#ffffff;fill-opacity:1;fill-rule:nonzero;stroke:none"
         id="path39148" /><path
         d="m 21421.3,7919.9 c -183.7,44.2 -335.9,93.6 -460.2,142.1 v 0.1 c 124.2,-48.5 276.5,-97.9 460.2,-142.2"
         style="fill:#53536a;fill-opacity:1;fill-rule:nonzero;stroke:none"
         id="path39150" /><path
         d="m 23356,5851.2 c -187.3,0 -375.1,4.8 -562.4,14 -99.8,5.4 -206.3,9.8 -287,22.6 -86.1,13.6 -170.2,37.8 -250.3,73.5 -160.6,70.8 -305.9,183.4 -433.6,318.8 -127.3,136.2 -238.3,293.9 -335.6,462 -194.5,337.3 -336.3,712.3 -458.3,1093.5 -23.6,75 -46.2,150.5 -67.7,226.4 124.3,-48.5 276.5,-97.9 460.2,-142.1 153.2,-36.9 328.2,-70.1 527.2,-96.3 167.7,-781.2 583.1,-1430.4 1365.7,-1554.7 197.8,-31.5 390.6,-46.2 574.9,-46.2 578.3,0 1073.6,145.1 1385.5,372.2 0,-11.1 -0.4,-22.4 -1.1,-33.6 -3.7,-79.8 -24.5,-160.5 -58.2,-237.1 -8.3,-19.2 -17.8,-37.9 -27.7,-56.6 -9.8,-17.4 -22.5,-39.7 -29.3,-48.9 -16.4,-24.1 -41.5,-48.3 -71.4,-71.3 -60.4,-46.1 -141,-84.9 -226.7,-116.3 -86.1,-31.6 -178.6,-56.1 -273,-76.7 -380.3,-80 -785.9,-100.4 -1188.1,-103.1 -14.4,-0.1 -28.7,-0.1 -43.1,-0.1"
         style="fill:#cccce3;fill-opacity:1;fill-rule:nonzero;stroke:none"
         id="path39152" /><path
         d="m 23424.6,20613.8 c 337.3,-1064.9 654,-2137.6 918.5,-3225.9 131.7,-544.2 250.9,-1092.2 348.9,-1645.2 98.1,-552.9 175.2,-1111.1 213.5,-1674.9 39.3,-563.1 39.6,-1133.5 -22.9,-1699.2 -30.1,-282.8 -76.8,-563.4 -130.5,-839.3 -53.2,-276.2 -112,-547 -156.2,-815.8 -19,-115.7 -18.5,-250.4 -16.7,-384.8 3,-134.9 10.4,-271.8 19.7,-408.9 19.1,-274.3 45.8,-550 75,-825.8 58.7,-551.7 128.2,-1103.7 195.2,-1657.3 l -115.3,139.6 0.1,-0.1 c 211.1,-68.8 425,-172.4 596.7,-348.4 85.4,-87 157.1,-193.6 203.4,-311.8 46.4,-118.1 66.9,-246.7 60.1,-371.7 -5.6,-125.3 -37.1,-246.4 -85.5,-357.5 -12,-27.9 -25.5,-55 -39.6,-81.7 -15.3,-27.1 -27.2,-49.9 -49.9,-82.8 -41.8,-60.5 -92.2,-107.6 -143.2,-147.2 -103.1,-78.4 -210.6,-127.2 -316.8,-167.1 -106.4,-39.4 -212.5,-67.5 -318.3,-91.1 -211.7,-46.1 -422.1,-71.9 -631.7,-89.4 -209.7,-17.4 -418.6,-25.9 -627.1,-28.4 -208.5,-2.5 -416.5,0.8 -624.6,9.4 -104.8,5.3 -203.8,6.8 -326,24 -116.5,17.5 -231.5,49.8 -339.1,96.7 -216.5,93.2 -401.6,237.1 -555.9,398.3 -154.8,162 -280.2,342.9 -388.8,529.2 -215.9,374 -367.8,770.9 -486.1,1173 -59.6,201.1 -111.4,403.6 -157.1,606.9 -23.1,101.7 -44.5,203.6 -64.6,305.6 -19,102.3 -36.6,204.7 -52.9,307.2 -31.4,205.4 -55,411.6 -71.5,618.1 -6.8,103.5 -14.2,206.7 -17.2,310.2 -2,51.7 -3.5,103.3 -4,154.9 l -1,146 -0.1,13.8 c -0.4,47.7 38.1,86.7 85.8,87 40.1,0.3 74,-26.8 84.1,-63.7 9.6,-35.3 14.4,-56.5 20.9,-83.2 l 17.1,-75.9 32,-150.5 61.6,-300 121.8,-597 c 20,-99.3 41.6,-198.1 63.9,-296.7 21.2,-98.8 43.6,-197.3 67.6,-295.3 47.5,-196 100.7,-390.3 160.9,-581.5 122,-381.2 263.8,-756.2 458.3,-1093.5 97.3,-168.1 208.3,-325.8 335.6,-462 127.7,-135.4 273,-248 433.6,-318.8 80.1,-35.7 164.2,-59.9 250.3,-73.5 80.7,-12.8 187.2,-17.2 287,-22.6 201.6,-9.9 403.9,-14.7 605.5,-13.9 402.2,2.7 807.8,23.1 1188.1,103.1 94.4,20.6 186.9,45.1 273,76.7 85.7,31.4 166.3,70.2 226.7,116.3 29.9,23 55,47.2 71.4,71.3 6.8,9.2 19.5,31.5 29.3,48.9 9.9,18.7 19.4,37.4 27.7,56.6 33.7,76.6 54.5,157.3 58.2,237.1 9.8,160.2 -50.8,312.2 -166.5,431.1 -115,120 -279.6,205.9 -456.5,263.6 l -0.1,0.1 -102.3,35.4 -13,104.2 c -68.8,552.2 -140.6,1105.5 -201.8,1661.6 -30.3,278.1 -58.5,556.9 -79,838.2 -10.2,140.8 -18.4,282.2 -22,425.7 -2.4,143.6 -4.3,289.1 21.6,448.7 47.2,280.9 107.8,554.5 160.8,825.1 53.6,270.8 99.3,540 129.2,811.2 61,541.9 65.7,1090.4 25.3,1638.3 -38.1,548 -114.4,1095 -211.8,1638.8 -97.2,544 -215.8,1085.2 -347,1623.6 -263.4,1076.9 -579.7,2142.3 -916.9,3201 l -0.2,0.6 c -29.2,91.5 21.4,189.3 112.8,218.4 91.5,29.1 189.2,-21.4 218.4,-112.9 l 0.1,-0.2"
         style="fill:#000072;fill-opacity:1;fill-rule:nonzero;stroke:none"
         id="path39154" /><path
         d="m 23289.1,6783.2 c 21.1,-7.8 34.6,-12.7 50,-21.1 15,-7.5 29.2,-16.1 42.6,-25.6 27.4,-18.6 51.9,-40.8 74.5,-64.8 44.8,-48.6 79.5,-106 103.9,-166.6 47,-120.7 57.4,-255.8 37.2,-383.2 -21.4,-127.6 -71.8,-253.8 -165.4,-359.1 -46.7,-52 -105.7,-98.3 -174.8,-128.5 -68.7,-31 -147.2,-42.9 -220.4,-36.1 -69.4,6.5 -120.4,68.1 -113.9,137.5 5.8,62.2 55.8,109.6 116.1,114.1 l 7.8,0.6 c 70,5.3 127.1,37.1 178.6,95.8 50.4,58.2 88.1,139.4 106.8,224.7 20,86.4 17.6,174.4 -0.5,261.2 -8.3,43.1 -21.4,84.6 -39,125.1 -8,20.9 -18.9,40.1 -29.8,60.1 -10.4,18.6 -26.1,40.7 -34.1,55.1 l -13.6,24.4 c -16.3,29.3 -5.8,66.2 23.4,82.5 16,8.9 34.6,9.7 50.6,3.9"
         style="fill:#000072;fill-opacity:1;fill-rule:nonzero;stroke:none"
         id="path39156" /><path
         d="m 24448.4,6912.2 c 39.2,-9.9 67.6,-21.4 98.5,-38.4 30.4,-15.9 57.8,-36.7 84.3,-59.2 51.9,-46.1 94.6,-104.5 124.5,-168.8 28.8,-65.2 45.4,-134.7 52.2,-198.8 7.5,-65.6 9.2,-131.6 2.8,-197.1 -12.6,-130.8 -49.6,-261 -123.4,-379.8 -37.4,-58.7 -83.8,-115.2 -143.8,-161.1 -58.8,-46.7 -133,-80.5 -210.2,-93.6 -68.7,-11.7 -133.9,34.6 -145.5,103.3 -10.6,62 26.1,121 83.8,140.6 l 8,2.7 c 67.2,22.8 126.5,76.5 172.7,153.4 45.9,76.2 76.7,169.7 90.6,265.2 15,94.3 10.6,198.9 -10.9,279.7 -10.5,42.3 -27.7,83.1 -50.7,123.2 -21.4,39.5 -55.5,80.4 -84.1,113.4 l -11.5,13.2 c -22.8,26.2 -20,65.9 6.2,88.6 15.9,13.9 37.3,18.2 56.5,13.5"
         style="fill:#000072;fill-opacity:1;fill-rule:nonzero;stroke:none"
         id="path39158" /><path
         d="m 25100.4,12619.7 c -6.5,-103 -48.6,-221.2 -155.5,-349.8 -961.2,-1154.9 -7222.4,-1763.2 -9529.7,-168.1 -354.5,245 -48.2,703 -48.2,703 -739.5,558.8 93,2478.9 93,2478.9 0,0 8704.9,2288.1 9162.9,1028 232,-638.7 340.7,-1225.3 382.8,-1720.6 81.3,-950.3 -81.2,-1564.3 -81.2,-1564.3 0,0 191.1,-159.4 175.9,-407.1"
         style="fill:#ffffff;fill-opacity:1;fill-rule:nonzero;stroke:none"
         id="path39160" /><path
         d="m 19860.8,11307.9 c -1889.4,0 -3479.3,337.2 -4346.9,936.9 -204.9,141.6 -23.4,431.2 -2.4,463.2 l 91.2,136.4 -130.9,98.9 c -305.6,230.9 -273.6,808.8 -151.8,1345.6 83.8,-63 172.7,-120.3 266.7,-169.8 156.9,-82.8 327.4,-143.9 502.8,-175.9 113.6,-21.1 227.8,-30.7 341.3,-30.7 238.2,0 473.3,42.2 693.5,108.5 292.2,87.9 564.6,214.8 823.7,358.5 h 844 c -753.2,-304.2 -1985.5,-868.3 -1867.7,-1261.8 281.7,-941 4232.5,-815.2 4033.5,-1054.6 -143.7,-172.5 -757.8,-264.4 -1503.2,-264.5 -604.6,0 -1295.6,60.5 -1892.5,187.6 106,-368.2 1124.7,-548.2 2392.5,-548.2 1718.5,-0.1 3895,330.5 4878.7,971.1 -6.9,-9.2 -14.2,-18.5 -22,-27.9 -427.1,-513.3 -2166.1,-956.2 -4134.9,-1053 -277,-13.6 -549.2,-20.3 -815.6,-20.3 m 3120.6,2473.5 c -1123.6,-0.1 -2353.7,357.5 -3054.4,598.1 h 990.7 c 704.4,-200.5 1296.3,-277.4 1790.1,-277.4 868.2,0.1 1432.7,237.9 1769.8,459.5 119.2,78.3 228.6,165.6 327.7,260.9 19.2,-153.9 31.7,-300.2 39,-438 -112.4,-123.8 -238.7,-224.8 -380,-298.8 -421.3,-220.7 -939.8,-304.3 -1482.9,-304.3"
         style="fill:#d9d9ea;fill-opacity:1;fill-rule:nonzero;stroke:none"
         id="path39162" /><path
         d="m 15586.8,15136.9 c -224.3,-551.8 -606.8,-1822 -115,-2193.6 l 130.9,-98.9 -91.2,-136.4 c -21,-32 -202.5,-321.6 2.4,-463.2 989.9,-684.2 2919.9,-1026.7 5162.5,-916.6 1968.8,96.8 3707.8,539.7 4134.9,1053 229.7,276.2 58.4,462.6 0.4,513.2 l -81.4,71 26.1,105.7 c 3.5,13.5 351.9,1396 -296.9,3181.3 -39.4,108.4 -444.2,610.4 -4556.6,-152.8 -1959.1,-363.5 -3897.3,-854.8 -4316.1,-962.7 m 4303.7,-4175.1 c -1771.6,0 -3551.4,290.1 -4574.2,997 -322.1,222.7 -271.8,576 -166.5,810 -636.8,702.5 64.3,2385 150.6,2583.9 l 33.6,77.5 81.6,21.4 c 21.9,5.8 2208.1,578.5 4422.3,989.5 4133.7,767.3 4803.8,327.6 4948.3,-69.9 595.7,-1639.3 401.4,-2935.1 328.2,-3292.6 141.3,-175.4 289.3,-528.7 -35.9,-919.7 -586.2,-704.6 -2880,-1197 -5188,-1197.1"
         style="fill:#000072;fill-opacity:1;fill-rule:nonzero;stroke:none"
         id="path39164" /><path
         d="M 17000.2,14379.6 H 22199 v 1932.3 h -5198.8 z"
         style="fill:#f93556;fill-opacity:1;fill-rule:nonzero;stroke:none"
         id="path39166" /><path
         d="M 17000.2,14379.6 H 22199 v 1932.3 h -5198.8 z"
         style="fill:#f93556;fill-opacity:1;fill-rule:nonzero;stroke:none"
         id="path39168" /><path
         d="m 22198.8,16311.7 v -1932.2 h -2272.9 c -355,122.1 -573.6,213.7 -573.6,213.7 0,0 -235,-83 -559.6,-213.7 h -1792.4 v 1283.1 c 859.5,201.1 1979.7,447.9 3096.3,649.1 h 2102.2"
         style="fill:#ce1940;fill-opacity:1;fill-rule:nonzero;stroke:none"
         id="path39170" /><path
         d="m 19352.3,14593.2 c 0,0 218.6,-91.6 573.6,-213.7 h -1133.2 c 324.6,130.7 559.6,213.7 559.6,213.7"
         style="fill:#f93556;fill-opacity:1;fill-rule:nonzero;stroke:none"
         id="path39172" /><path
         d="m 18940.8,15345.8 -417.5,170.8 -439.3,179.8 c 0,0 -2657.9,-359.3 -1916.2,2339.9 16.5,59.9 35.6,118.6 57.8,175.5 955.9,2508.9 6879.6,2186 6879.6,2186 413.2,-345 766,-699.5 1060.2,-1061.9 259.8,-320.7 473.6,-647.9 643,-980.7 298.5,-585.7 459.3,-1189.2 489.3,-1806.7 83.4,-1715.4 -1755,-3462.6 -6356.9,-1202.7"
         style="fill:#ffffff;fill-opacity:1;fill-rule:nonzero;stroke:none"
         id="path39174" /><path
         d="m 17205.6,18184.5 c -9.9,0 -19.5,0 -29.4,0 l 234,273 c 182.7,10.3 364.7,25.8 545.6,46.4 256.7,27.7 513.7,69.9 760.9,101.6 l 3.3,0.4 c 41.4,5.3 74.1,39.7 75.9,82.8 0.2,4.2 0,8.4 -0.4,12.5 l 2813.2,308.3 c 0.1,-0.3 0.1,-0.6 0.1,-0.9 5.4,-44.1 42.9,-76.4 86.2,-76.4 3.5,0 7.1,0.2 10.6,0.6 513.7,62.3 1023.3,161.4 1524.8,293.7 215.1,56.7 429.2,118.4 641.3,187.1 45.8,-52.4 90.4,-105 133.7,-157.9 -745.5,-352 -1911.1,-623.7 -3175.4,-805.5 -364.5,105.8 -736.4,145.6 -1105.6,145.6 -115.7,0 -231.2,-3.9 -346.1,-10.9 -490.7,-30 -974,-125.3 -1439,-271.9 -117.5,-37.8 -234,-79.5 -348.7,-125 -130.6,-2.4 -259,-3.5 -385,-3.5"
         style="fill:#d9d9ea;fill-opacity:1;fill-rule:nonzero;stroke:none"
         id="path39176" /><path
         d="m 22705.4,14446 c -800.5,0 -1893.8,220.3 -3361.8,900.1 349.2,276.8 688.6,562 1029.9,840.5 248.3,202.1 497.4,401.7 753.5,585.3 255.5,182.4 520.7,353.4 794.2,461.3 l 0.1,0.1 5.3,2 c 73.9,28.4 119.3,106.2 104.3,186.8 l -4.1,22.1 -3.8,16.4 c -2.5,9.9 -5,20.5 -7.9,29.5 -1.2,4.4 -2.5,8.8 -3.9,13.1 367.3,103.4 735.8,164.1 1094.6,164.1 176.9,0 351.2,-14.7 522.1,-46.4 0,0 -3147.2,-865.1 -2103,-2275.1 207,-279.5 495.2,-395.2 794.3,-395.2 620.5,0 1288.1,497.5 1376,1061.3 3,19 17.9,27 42.1,27 59.1,0 173.6,-47.2 304.9,-94.4 131.3,-47.1 279.4,-94.3 405.5,-94.3 120.2,0 220.5,42.9 267.3,169.5 142.1,385 42.2,793.4 -697.8,1375.7 -30.8,24.2 -20.9,31 15.7,31 23,0 56.5,-2.7 97,-5.3 40.5,-2.7 88.1,-5.3 139.2,-5.3 227.7,0 526.4,52.5 590.7,391.8 154.9,-412.1 243.1,-834.9 264.2,-1267.3 34.1,-700.7 -271.1,-1316.1 -837.3,-1688.2 -299.9,-197.2 -801.7,-406.1 -1581.3,-406.1"
         style="fill:#d9d9ea;fill-opacity:1;fill-rule:nonzero;stroke:none"
         id="path39178" /><path
         d="m 22707.8,14102.1 c -913.4,0 -2162.9,263.1 -3838.4,1085.1 l -851.1,348.5 c -88.8,36.4 -131.3,137.9 -94.9,226.7 36.4,88.8 137.9,131.4 226.7,95 l 867.2,-355.6 c 3116.7,-1530.4 4639.2,-1064 5269.4,-649.7 566.2,372.1 871.4,987.5 837.3,1688.2 -65.5,1345.8 -782.2,2598.8 -2130.2,3724.2 -73.7,61.5 -83.5,171.1 -22,244.8 61.5,73.7 171.1,83.5 244.8,22.1 1425.6,-1190.3 2184.1,-2527.4 2254.6,-3974.2 40.3,-826.7 -321.9,-1554.1 -993.6,-1995.6 -337.1,-221.6 -901.6,-459.4 -1769.8,-459.5"
         style="fill:#000072;fill-opacity:1;fill-rule:nonzero;stroke:none"
         id="path39180" /><path
         d="m 21859,17395.4 c -1797.6,-689.2 -4871.3,-5026.8 -6851.8,-2556.7 -403.2,503.2 -499.6,1051.5 -402.3,1598.6 118.6,669.1 527,1335.7 1016.7,1911.4 433.7,509.2 930.7,948.1 1347,1255.7 665.7,491.9 1520.4,113 1520.4,113 l -1314,-1533 -500.5,-583.9 c 1771,967.6 3662.9,983.7 4578.8,476.2 439.3,-243.8 563.6,-534.9 595.3,-640.5 8.2,-26 10.4,-40.8 10.4,-40.8"
         style="fill:#ffffff;fill-opacity:1;fill-rule:nonzero;stroke:none"
         id="path39182" /><path
         d="m 17158.5,18163.9 c 0,0 -0.4,0 -1.1,0 l 17.6,20.5 c 0.4,0.1 0.9,0.1 1.2,0.1 l -17.7,-20.6"
         style="fill:#d9d9ea;fill-opacity:1;fill-rule:nonzero;stroke:none"
         id="path39184" /><path
         d="m 17176.2,18184.5 c -0.3,0 -0.8,0 -1.2,0 l 234,272.9 c 0.4,0.1 0.8,0.1 1.2,0.1 l -234,-273"
         style="fill:#b9b9d8;fill-opacity:1;fill-rule:nonzero;stroke:none"
         id="path39186" /><path
         d="m 17157.4,18163.9 c -30.8,0 -663.3,3.1 -1356,126.2 60.5,69.9 122.4,138.6 185.7,206.1 310.5,-34.8 622.5,-53 934,-53 85.9,0 171.8,1.3 257.5,4.1 76.9,2.5 153.7,5.8 230.4,10.1 l -234,-273 -17.6,-20.5"
         style="fill:#d9d9ea;fill-opacity:1;fill-rule:nonzero;stroke:none"
         id="path39188" /><path
         d="m 16430.7,14260.1 c -93.6,0 -186.4,7.9 -277.4,24.8 -282.9,51.5 -542.3,195.1 -760.8,395.1 -108.8,99 -212,213.7 -298.1,333.9 -91.9,117.2 -159.5,248.2 -220.2,380.9 -53.5,135.6 -94.6,275.8 -113.9,420.7 -6.9,35.8 -6.6,72.8 -10.4,109.1 -3.1,36.4 -6.5,72.9 -4.8,109.8 l 0.6,91 c 62.8,-77.1 145.5,-130.3 254.2,-143.9 34,-4.3 66.2,-6.4 96.7,-6.4 630.4,0 541.9,885.1 1016,1192.2 3.2,2 5.8,3 8,3 85.3,0 -486.8,-1466.6 -285.2,-1824.5 36.9,-65.4 83.8,-93 137.3,-93 247.1,0 636.4,587.7 844.3,751.3 18.3,14.4 32,21 42.2,21 55.2,0 7,-192.5 10.8,-385.1 3.8,-192.6 59.6,-385.2 322.9,-385.2 98.6,0 226.2,27 391,91 829.8,322.3 2722.7,2132 3962.5,2132 21.7,0 43.3,-0.5 64.6,-1.6 -248.5,-119.8 -471,-268.8 -686.4,-421.7 -266.9,-191.4 -520.1,-394.6 -770.8,-598.5 -500.4,-408.4 -988.5,-824 -1500,-1200.8 -255.9,-187.6 -516.8,-366.7 -787.8,-522.8 -270.6,-155.9 -551.4,-291.4 -841.3,-378.4 -196,-59 -396.9,-93.9 -594,-93.9"
         style="fill:#d9d9ea;fill-opacity:1;fill-rule:nonzero;stroke:none"
         id="path39190" /><path
         d="m 16632.9,17676.9 c 396.7,278.9 842.5,486.8 1306.4,636.1 465,146.6 948.3,241.9 1439,271.9 489.9,29.8 990.4,3.4 1477.2,-142.2 241.6,-74.3 483.8,-178.3 695.9,-337.8 106.2,-79.4 205.4,-172.9 289.4,-282.9 42.9,-54.1 79.9,-114.3 112.5,-177.7 16.1,-32 30.9,-65 43.8,-100 6.5,-17.3 12.6,-35.3 18,-54.2 2.9,-9 5.4,-19.6 7.9,-29.5 l 3.8,-16.4 4.1,-22.1 c 15,-80.6 -30.4,-158.4 -104.3,-186.8 l -5.3,-2 -0.1,-0.1 c -273.5,-107.9 -538.7,-278.9 -794.2,-461.3 -256.1,-183.6 -505.2,-383.2 -753.5,-585.3 -496.5,-405.1 -988.8,-824.6 -1513.7,-1211.4 -262.9,-192.7 -533.2,-378.6 -819.9,-543.8 -286.5,-164.8 -588.7,-312.1 -915.6,-410.4 -325.1,-97.9 -682.5,-143.2 -1034.8,-77.8 -175.4,32 -345.9,93.1 -502.8,175.9 -157.1,82.8 -300.1,187.3 -428.4,304 -128.8,117.7 -242.1,243.7 -343.7,384.5 -106.4,136.9 -189,293.2 -261,452.9 -65.2,163.3 -114.5,333.7 -137.8,508.2 -7.9,43.4 -8.3,87.3 -12.6,131 -3.6,43.7 -7.3,87.4 -5.7,131 l 1.2,130.9 11.3,129.8 c 2.7,43.5 9.8,86 17.1,128.5 7.5,42.4 12.7,85.6 22.5,127.3 19.7,83.5 37.8,167.6 64.7,248.3 47.9,164 113,320.4 183.6,473.1 145.1,303.3 321.7,587.4 520.4,851.7 198.2,264.9 414.2,514.4 644.8,748.4 229.8,234.9 472.9,455.7 728.1,662.7 64.1,51.4 128.1,102.9 194,152.3 l 49.3,37.2 c 16.4,12.4 32.1,24.8 52.4,37.4 l 115.3,74.8 c 160,90.1 336.1,149.1 513.9,176.4 178.1,27.7 357.1,25.2 530.6,1.8 87.1,-10.6 172.4,-29.3 257,-50.3 42.2,-11.5 84.2,-22.7 126,-36.9 20.9,-6.7 41.9,-13.8 63,-21.7 21.7,-7.8 40.4,-15 66.7,-26.2 88.4,-37.4 129.6,-139.4 92.2,-227.8 -37.2,-87.7 -138.1,-129 -226,-92.8 l -7.1,2.9 c -10.8,4.4 -29.5,12 -45.6,17.6 -16.6,6.3 -33.7,12.1 -51.2,17.6 -34.3,11.7 -70.1,21.1 -105.5,30.9 -71.4,17.6 -143.6,33.6 -216.2,42.2 -145.1,19.7 -291.1,21 -430.9,-0.8 -139.9,-21.6 -273,-66.9 -393.8,-134.3 l -87,-56.6 c -14.1,-8.3 -30.1,-20.8 -45.8,-32.7 l -46.9,-35.5 c -62.9,-47 -124.2,-96.4 -185.6,-145.6 -244.5,-198.4 -478.5,-410.8 -698.7,-635.9 -221,-224.3 -427,-462.5 -614.2,-712.8 -188,-249.8 -352.2,-515.3 -484.9,-792.4 -64.2,-139.1 -123.1,-280.6 -165.4,-425.7 -24.1,-71.9 -39.4,-145.4 -57,-218.4 -8.7,-36.5 -12.7,-73.5 -19.4,-110.3 -6.3,-36.7 -12.7,-73.5 -14.7,-110.4 l -9.9,-110.7 -0.7,-110.3 c -1.7,-36.9 1.7,-73.4 4.8,-109.8 3.8,-36.3 3.5,-73.3 10.4,-109.1 19.3,-144.9 60.4,-285.1 113.9,-420.7 60.7,-132.7 128.3,-263.7 220.2,-380.9 86.1,-120.2 189.3,-234.9 298.1,-333.9 218.5,-200 477.9,-343.6 760.8,-395.1 282.7,-52.5 582.3,-17.9 871.4,69.1 289.9,87 570.7,222.5 841.3,378.4 271,156.1 531.9,335.2 787.8,522.8 511.5,376.8 999.6,792.4 1500,1200.8 250.7,203.9 503.9,407.1 770.8,598.5 267.7,190 546.1,373.9 872.2,503.3 h 0.1 l -109.5,-188.8 c 0.5,-4 0.1,-1.9 -0.4,-0.3 l -1.6,5.3 c -1.5,4.3 -2.3,8.2 -4.3,13.3 -3.2,9.5 -7.1,19.5 -11.6,29.8 -8.6,20.4 -19,41.3 -30.6,61.8 -24,40.9 -50.5,81.8 -82.4,120.1 -62.2,77.5 -138.8,147.3 -224.4,207.9 -85.5,61 -180.2,112.8 -278.6,156.2 -24.6,10.9 -47.3,24.8 -73.4,33.6 l -77.2,28.2 c -51.4,18.9 -102.1,39.1 -156.7,51.8 -211.6,65.3 -437,97.4 -662,121.2 -113.6,7.2 -226.7,17.7 -341.3,16.6 -57.1,0.4 -114.2,2.5 -171.5,1.7 l -171.8,-7.3 c -458.2,-23.6 -916.8,-99 -1362.2,-225.5 -446.9,-122.7 -882.7,-283.5 -1321.1,-459 l -0.5,-0.2 c -44.9,-18 -95.8,3.8 -113.7,48.7 -15.4,38.4 -1.6,81.2 30.8,104"
         style="fill:#000072;fill-opacity:1;fill-rule:nonzero;stroke:none"
         id="path39192" /><path
         d="m 21784.3,17552.4 c 44.1,18.1 79.5,30.7 118.5,43.5 38.1,13.2 76.3,24.1 114.3,35.7 76.4,21.4 152.9,40.9 229.8,57.2 153.8,33 308.9,56.3 464.8,68.1 155.8,12.5 312,16.2 467.5,6.5 155.5,-6.1 309.7,-29.6 461.9,-56.8 47.3,-8.4 78.7,-53.6 70.3,-100.8 -7.9,-44.3 -48.1,-74.7 -92,-71.4 l -4.4,0.4 c -146,11.6 -291.7,19.8 -437.4,11.4 -145.4,-4.9 -290,-22.5 -432.7,-47.9 -142.7,-24.7 -283.4,-60.1 -420.6,-103.6 -68.6,-21.7 -136.2,-46 -202.6,-71.8 -32.8,-13.6 -66,-26.6 -97.8,-41.2 -31.5,-13.6 -65.5,-30.1 -89.9,-43 l -2.3,-1.2 c -85,-45 -190.3,-12.6 -235.3,72.4 -45,84.9 -12.6,190.3 72.4,235.3 5,2.6 10.3,5.1 15.5,7.2"
         style="fill:#000072;fill-opacity:1;fill-rule:nonzero;stroke:none"
         id="path39194" /><path
         d="m 21692.3,19018.7 c 717.1,111.5 3855.3,660.6 5683.1,2787.2 1825.8,2124.1 626.4,6154.4 -989.5,8263.7 -1225.8,1600 -3386.9,4369.3 -8730.5,3455.7 -7054.1,-1205.9 -8750.33,-11328.5 -5062.8,-13668.6 2659.4,-1687.5 5355.5,-1183 6122,-1164.3 l 2977.7,326.3"
         style="fill:#ffffff;fill-opacity:1;fill-rule:nonzero;stroke:none"
         id="path39196" /><path
         d="m 21599.7,19317 c 686.9,106.1 3692.8,628.7 5443.6,2652.6 1748.8,2021.6 600,5857.3 -947.8,7864.8 -1174.2,1522.7 -3244.2,4158.3 -8362.6,3288.9 -6756.7,-1147.7 -8381.52,-10781.6 -4849.4,-13008.7 2547.3,-1606.1 5129.8,-1125.9 5864,-1108.2 l 2852.2,310.6"
         style="fill:#e8e8e8;fill-opacity:1;fill-rule:nonzero;stroke:none"
         id="path39198" /><path
         d="m 21678.9,19104.5 c 1000.3,193.2 1979.6,493.7 2899.1,913.7 229.3,105.9 455.2,218.7 674.2,342.9 219.5,123 435.7,251.6 643.2,392.5 208.3,139.3 410.8,287.1 604.2,445.5 191.9,159.9 377.4,327.5 549.6,507.8 44,44.1 84.2,91.7 126.5,137.4 l 62.8,69.2 c 19.8,23.5 37.9,47.6 57,71.4 37.2,48.1 76.8,94.4 112.3,143.8 l 102,151.5 25.5,37.8 22.6,39.8 45.3,79.5 45.4,79.4 c 15.3,26.4 26.9,54.9 40.5,82.2 26,55.3 53.5,109.9 78.5,165.7 l 67.7,170.9 c 83.2,230.6 153.8,467.5 194.9,711.8 13.2,60.4 21.9,121.7 30,183.2 7.9,61.5 18.8,122.5 24.3,184.4 10.7,123.8 23.9,247.3 26.3,372.1 22.3,498 -24.5,1000.2 -108.4,1495.3 -87.6,495 -218,983.6 -382.7,1460.2 -167.5,475.7 -364.9,941.9 -600.3,1387.7 -233.2,447.4 -501.2,873.8 -807.8,1272 -310.9,406.6 -626.9,802.2 -973.7,1168.3 -172.1,184 -352.7,359.1 -540,526.1 -186.3,168.3 -382.8,324.2 -584.8,471.9 l -152.9,108.9 -156.6,103.2 c -103.3,70.7 -213.1,130.7 -319.6,196.2 -218.5,121 -439.9,237.8 -670.4,334.5 -458.6,198.7 -938.3,349.7 -1430.3,446.6 -984,196.8 -2004.2,204.3 -3007.4,82.6 l -188.4,-21.7 c -62.6,-8.4 -125.1,-18.9 -187.7,-28.2 -124.6,-20.2 -251.3,-35.9 -374.3,-59.7 -122.7,-24.9 -246.6,-44.6 -367.9,-76.1 l -182.7,-43.5 c -60.7,-15.5 -120.6,-33.7 -180.9,-50.5 -241.5,-66.1 -477.1,-151.2 -710.6,-240.9 -231.2,-95.5 -460.2,-196.8 -680.8,-315.2 -55.1,-29.5 -110.9,-57.9 -165.5,-88.3 l -162.2,-94.5 -81,-47.3 -79.2,-50.5 -158.2,-101 c -206.8,-140.9 -411,-286.5 -603.5,-447 -195.5,-156.9 -379.3,-327.8 -559.3,-502.4 -87,-90.4 -177.6,-177.3 -260.8,-271.4 l -126.9,-139.1 -122.2,-143.4 c -648.7,-767.9 -1160.6,-1649.8 -1540.1,-2583.4 -186.5,-468.2 -345.7,-948.2 -463.8,-1438.6 -62.3,-244.4 -109.5,-492.2 -154.8,-740.1 -40.6,-248.7 -76.5,-498.3 -99.3,-749.1 -22.7,-250.7 -39.4,-502.1 -41.5,-753.6 -3.9,-125.8 0.5,-251.4 1.6,-377 5.6,-125.4 8.9,-251.1 19.7,-376.1 7.3,-125.3 22.7,-249.7 35.3,-374.4 17.5,-123.9 32.6,-248.4 55.7,-371.2 42.9,-246.3 97.3,-490.5 169.6,-728.6 71.4,-238.3 156.9,-471.7 259.2,-696.8 103.7,-224.3 224.7,-439.6 364.2,-640.8 139.5,-201.1 298,-387.9 475.5,-553.2 45.7,-39.7 89,-82.6 136.6,-119.9 47.9,-36.8 94.3,-75.8 143.3,-111.2 l 149.9,-102.2 160.6,-98.1 c 53.1,-33.4 107.3,-64.8 162.3,-94.9 l 164.1,-91.9 c 112,-56.4 221.8,-117.1 336.2,-168.6 225.8,-109.3 458.7,-203.2 694.4,-288.7 235.6,-86.4 476.8,-157.1 719.9,-219.6 243.1,-62.6 489.7,-112.6 738.1,-151.3 248.4,-39.4 498.7,-66.5 749.8,-87.1 125.6,-10.1 251.5,-16.6 377.5,-22.5 126.1,-6.2 252.3,-10.4 378.7,-12.2 252.9,-4.8 506.4,-1.7 761.2,3.2 255.5,4.2 509.1,18.3 774.8,7.3 48.1,-1.9 85.4,-42.5 83.4,-90.5 -1.8,-43.1 -34.5,-77.5 -75.9,-82.8 l -3.3,-0.4 c -247.2,-31.7 -504.2,-73.9 -760.9,-101.6 -257.3,-29.3 -516.8,-48.3 -777.2,-56.6 -520.7,-17 -1044.8,18.3 -1562,98.4 -258.8,39.6 -516,91.1 -770,155.8 -254,64.6 -506.2,137.9 -752.8,227.5 -246.8,88.9 -490.8,186.6 -727.4,300.3 -119.8,53.7 -235,116.7 -352.3,175.6 l -172,95.7 c -57.6,31.4 -114.5,64.2 -170.1,98.9 l -168.2,102.2 -168.4,114.1 c -55.1,39.6 -107.4,82.9 -161.1,124.3 -53.4,41.9 -102,89.2 -153,133.6 -198.6,184 -374.4,390.4 -527.8,610.4 -153.4,220.1 -285.3,453.6 -397.5,694.9 -110.8,242 -202.7,491.2 -279.2,744.3 -77.4,252.9 -135.5,510.5 -181.3,769.6 -24.6,129.3 -40.9,259.7 -59.5,389.8 -13.6,130.6 -29.9,261 -37.9,391.9 -11.6,130.7 -15.5,261.7 -21.6,392.6 -1.6,130.9 -6.4,262 -2.7,392.8 1.6,261.8 18.1,523 41.1,783.4 23.1,260.4 59.5,519.3 101,777.1 45.9,257.1 95.3,513.7 159.8,766.8 122.5,507.7 287.3,1004.6 480.8,1489.6 393.5,967 924.7,1882.6 1601.8,2683.8 l 127.6,149.5 132.6,145.2 c 86.9,98.3 181.6,189.3 272.7,283.6 188.2,182.7 380.9,361.4 585.8,525.9 201.9,168.1 416.1,321 633.4,468.8 l 166.2,106.1 83.2,52.9 85.2,49.7 170.4,99.2 c 57.4,32 116.1,61.9 174.1,92.9 231.9,124.3 472.7,230.9 715.9,331.1 245.4,94.4 493.2,183.5 746.9,252.7 63.4,17.5 126.4,36.5 190,52.7 l 191.8,45.4 c 127.4,32.7 257.2,53.5 386,79.3 129,24.7 257.2,40.6 385.9,61.2 64.3,9.5 128.5,20.1 193,28.7 l 194,22.2 c 1032.7,123.8 2092,116.3 3122.9,-91.1 515.2,-102.3 1020.1,-261.5 1502.9,-471.5 242.7,-102.3 476,-225.4 706,-353.4 112.1,-68.9 227.6,-132.6 336.2,-206.9 l 164.6,-108.8 160.5,-114.6 c 212,-155.4 417.9,-319.3 612.3,-495.3 195.5,-174.8 383.6,-357.5 561.8,-548.5 359,-380 683.8,-788.3 995.8,-1197.2 319.2,-415.5 598.8,-862 839.4,-1325 243.4,-462.4 446.8,-944.2 619.4,-1436.8 170,-493.5 304.6,-1000 395.2,-1515.8 86.9,-516.3 135.6,-1042.1 111.5,-1570.3 -2.9,-132 -16.8,-263.8 -28.5,-395.6 -6.1,-65.9 -17.6,-131.4 -26.2,-197.1 -8.7,-65.8 -18.3,-131.4 -32.4,-196.5 -44.8,-262.1 -121,-519.4 -212.3,-770.8 l -74.4,-186.8 c -27.4,-61.2 -57.6,-121.3 -86.3,-182 -15.1,-30.1 -28,-61.1 -44.9,-90.3 l -50,-87.7 -50.2,-87.6 -25.1,-43.8 -28.2,-42 -113.3,-167.6 c -39.4,-54.7 -83.1,-106.3 -124.6,-159.5 -21.1,-26.2 -41.8,-53.2 -63.3,-78.8 l -65.9,-73.9 c -44.4,-48.8 -86.9,-99.6 -133,-146.8 -180.9,-192.5 -375.2,-371.1 -576.3,-541.2 -201.9,-169.1 -415,-323.5 -632.6,-470.2 -219.4,-144.2 -446.6,-275.2 -677.8,-397.5 -231.7,-121.4 -469.2,-230.3 -709.3,-331.6 -240.3,-101 -483.7,-193.7 -729.9,-277 -246.4,-82.8 -495.8,-155.7 -746.6,-221.8 -501.5,-132.3 -1011.1,-231.4 -1524.8,-293.7 -47.7,-5.8 -91,28.2 -96.8,75.8 -5.5,45.6 25.8,87.3 70.1,95.9"
         style="fill:#000072;fill-opacity:1;fill-rule:nonzero;stroke:none"
         id="path39200" /><path
         d="m 27541.9,24808.5 c 122.9,-2945.9 -2589.2,-4216.1 -4679.3,-4959.9 -856.5,-304.8 -1742.4,-519.6 -2642.5,-647.9 -901.4,-128.4 -1813.4,-169.2 -2722.3,-115.6 -1240,73.3 -2712.6,250.8 -3892.1,895.6 -409,223.5 -782.7,503 -1099.5,853.9 -225.5,249.9 -422,536.3 -582,864.4 -107.9,222.4 -199.1,463.8 -270.9,726.4 -27.4,99.7 -51.9,202.3 -73.4,308.2 -63.3,309.9 -101,647 -110.2,1012.5 -7.8,316.8 78.9,1416.7 255.2,2507.7 59.9,371.5 130.2,742 210.9,1079.9 -754,1984.9 -1310.1,4540.9 -742.7,5529.7 368.9,643 1673.7,236.3 3751.9,-1086.6 1239.9,770.9 3048.2,1063.3 3326.6,1101.9 278,40.7 2096.1,264.9 3501.6,-129.1 1626.1,1850.6 2765.4,2605.5 3299.2,2091.1 820.9,-791 1000.7,-3400.6 831,-5517.1 676.1,-1189.2 1340.9,-2904 1449.4,-3314.7 113.2,-428.5 174,-827.8 189.1,-1200.4"
         style="fill:#8e8fb3;fill-opacity:1;fill-rule:nonzero;stroke:none"
         id="path39202" /><path
         d="m 15018.4,31261.4 c -1428.8,909.5 -2492,1386 -3136.8,1386 -293.2,0 -499.8,-98.4 -615.1,-299.3 -44.2,-77.1 -81.6,-163.7 -112.6,-258.7 29.1,275.9 91.2,509.6 192.4,686 56.6,98.6 140.6,158.7 264.2,189.1 55.3,13.7 121.2,21.8 199.9,21.8 455.1,0 1336.1,-274 3039.7,-1358.7 l 93.8,-59.7 94.5,58.7 c 1277.4,794.4 3177.1,1066 3258.5,1077.3 46.1,6.7 692.6,98.6 1509.2,98.6 604.9,0 1303.2,-50.4 1919.4,-223.2 l 107.1,-30 73.4,83.5 c 1563.5,1779.7 2351.6,2172.4 2737.4,2188.5 8.3,0.3 16.4,0.5 24.4,0.5 115.3,0 205.5,-34.7 282.1,-108.4 146.5,-141.2 271.4,-348.3 376.4,-605.2 -56.3,82.7 -116.5,155.5 -180.5,217.1 -109.7,105.7 -245,157.8 -404.8,157.8 -617.9,0 -1602.5,-778.6 -2894.4,-2248.9 -632.4,177.3 -1348.3,229.4 -1969.9,229.4 -759.9,0 -1378.8,-77.9 -1531.7,-100.3 -278.4,-38.5 -2086.7,-330.9 -3326.6,-1101.9"
         style="fill:#c7c7d9;fill-opacity:1;fill-rule:nonzero;stroke:none"
         id="path39204" /><path
         d="m 27541.9,24808.5 c 122.9,-2945.9 -2589.2,-4216.1 -4679.3,-4959.9 -856.5,-304.8 -1742.4,-519.6 -2642.5,-647.9 -901.4,-128.4 -1813.4,-169.2 -2722.3,-115.6 -1240,73.3 -2712.6,250.8 -3892.1,895.6 -409,223.5 -782.7,503 -1099.5,853.9 -225.5,249.9 -422,536.3 -582,864.4 -107.9,222.4 -199.1,463.8 -270.9,726.4 3510.8,-2240.8 5596.7,-714.2 6313.9,1481.8 277,847.7 1033.7,1033.2 1366.8,1080.6 333.1,47.5 1111.5,80.7 1613.8,-656 1320.4,-1935.5 3801.2,-2816.8 6594.1,476.7"
         style="fill:#ffffff;fill-opacity:1;fill-rule:nonzero;stroke:none"
         id="path39206" /><path
         d="m 18279.2,19238.9 c -258,0 -515.1,7.5 -770.5,22.6 -1158.3,68.5 -2639.1,229.7 -3818.4,874.2 -412.8,225.6 -767,500.6 -1052.7,817.3 -7.2,7.9 -14.4,15.9 -21.5,24 47.3,-27.8 95,-54.8 143.2,-81.2 927.4,-507 3348.5,-753.8 5325.7,-753.8 771.3,0 1474.7,37.5 1996.1,111.8 1705.7,243 5565.5,1584.9 6978.1,2854 -708.8,-1596.5 -2519.1,-2471.2 -4215.1,-3078.1 -852.5,-305 -1743.8,-525.1 -2649.3,-654.1 -638.7,-91 -1280.1,-136.7 -1915.6,-136.7"
         style="fill:#d9d9ea;fill-opacity:1;fill-rule:nonzero;stroke:none"
         id="path39208" /><path
         d="m 14205,27988.7 c -114.8,133 320.9,1530.3 1548.8,1310.9 442.3,-79 540.7,-485.2 225.7,-619.8 -300.1,-128.2 -450.2,-80.6 -909.5,-319.8 -259.9,-135.2 -750.3,-504.2 -865,-371.3"
         style="fill:#000072;fill-opacity:1;fill-rule:nonzero;stroke:none"
         id="path39210" /><path
         d="m 23541.7,29318.9 c 73.1,159.7 -735.5,1379.8 -1853.3,826.2 -402.6,-199.4 -383.7,-617 -43.7,-658.2 324,-39.3 454.9,48.3 962.7,-53 287.3,-57.4 861.2,-274.7 934.3,-115"
         style="fill:#000072;fill-opacity:1;fill-rule:nonzero;stroke:none"
         id="path39212" /><path
         d="m 13256.7,29957.5 c -482.9,-688.4 -720.8,-1589.4 -785.6,-1497.3 -6.2,8.8 -12.8,19.5 -19.6,32.1 -147.5,263 -483,1341 -620.6,2324.3 -21.8,158.6 -37.4,299.2 -46.7,423.8 -25.2,336.3 -7.9,556.6 30.9,701.5 48.6,177.2 203.4,251.3 354.8,215.4 402.7,-96 1586.9,-655.8 2004.3,-1062.9 74.4,-72.4 -434.1,-448.3 -917.5,-1136.9"
         style="fill:#f27e80;fill-opacity:1;fill-rule:nonzero;stroke:none"
         id="path39214" /><path
         d="m 13256.7,29957.5 c -482.9,-688.4 -720.8,-1589.4 -785.6,-1497.3 -6.2,8.8 -12.8,19.5 -19.6,32.1 54,533.8 302.6,1295.9 497.5,1849 266.6,755.4 -316,1243.9 -776.5,1349.7 -157.9,36.4 -301.1,-235 -388.3,-450.6 -25.2,336.3 -7.9,556.6 30.9,701.5 48.6,177.2 203.4,251.3 354.8,215.4 402.7,-96 1586.9,-655.8 2004.3,-1062.9 74.4,-72.4 -434.1,-448.3 -917.5,-1136.9"
         style="fill:#ff5c64;fill-opacity:1;fill-rule:nonzero;stroke:none"
         id="path39216" /><path
         d="m 12026.6,30843.8 c 101.4,-726.3 312.7,-1496.6 464.2,-1932.4 133.1,315.3 328.5,766 604.5,1159.5 259.1,369.2 528.1,654.4 706.1,843.1 42.9,45.4 88.8,94.1 125.5,134.9 -464.4,370.7 -1470.9,837.3 -1802.7,916.1 -34.4,8.2 -95.4,9.3 -118.5,-75.2 -37.6,-139.2 -64.6,-434.2 20.9,-1046 z m 455.3,-2587.5 c -67.7,0 -132.2,33.4 -172.3,90.4 -164,233.1 -531.2,1420.1 -674,2442.4 -77.1,551.8 -80.6,945.7 -10.9,1204.1 73.8,270.3 322.2,419.7 590.8,355.9 426.4,-101.3 1639.9,-668.1 2096.7,-1113.3 45.4,-44.2 134.2,-168.6 -21.2,-367.7 -46.7,-60 -115.5,-132.8 -202.5,-225 -180.3,-191.2 -427.3,-453.1 -670,-798.9 -266.7,-380.1 -458.2,-834.9 -584.9,-1135.8 -137.1,-325.5 -183.2,-435.1 -329.7,-450.9 -7.4,-0.8 -14.7,-1.2 -22,-1.2"
         style="fill:#000072;fill-opacity:1;fill-rule:nonzero;stroke:none"
         id="path39218" /><path
         d="m 23922.2,31477 c 656,-526.2 1136,-1324.9 1172.5,-1218.4 3.6,10.2 6.9,22.3 9.9,36.3 68.2,293.7 89.3,1422.5 -53.2,2405.1 -23.3,158.4 -47.6,297.8 -73.5,420 -69.7,330 -147.8,536.7 -225.6,665 -96.1,156.6 -265.4,184.4 -400.8,107.7 -359.9,-204.6 -1340.6,-1072.9 -1627.7,-1580.4 -51.3,-90.2 542,-309.2 1198.4,-835.3"
         style="fill:#f27e80;fill-opacity:1;fill-rule:nonzero;stroke:none"
         id="path39220" /><path
         d="m 23922.2,31477 c 656,-526.2 1136,-1324.9 1172.5,-1218.4 3.6,10.2 6.9,22.3 9.9,36.3 -200.9,497.5 -652.5,1159.8 -994.1,1636.5 -466.9,650.9 -43.9,1282.7 368.7,1512.8 141.5,79.1 354.7,-141.5 498.7,-324.2 -69.7,330 -147.8,536.7 -225.6,665 -96.1,156.6 -265.4,184.4 -400.8,107.7 -359.9,-204.6 -1340.6,-1072.9 -1627.7,-1580.4 -51.3,-90.2 542,-309.2 1198.4,-835.3"
         style="fill:#ff5c64;fill-opacity:1;fill-rule:nonzero;stroke:none"
         id="path39222" /><path
         d="m 22973.9,32337.8 c 46.7,-29 104.3,-62.9 158.2,-94.6 223.6,-131.4 561.5,-330.1 913.4,-612.3 375,-300.7 688.5,-678.9 904.4,-944.6 23.7,460.8 11.4,1259.5 -94,1985.2 -88.8,611.3 -197.1,887 -272.4,1010.7 -45.4,74.1 -103.7,56 -134.5,38.6 -296.5,-168.3 -1132.6,-897.4 -1475.1,-1383 z m 2101.9,-2287.1 c -118.6,0 -199.6,99.8 -398.5,345 -205.7,253.5 -516.6,636.7 -878.8,927.2 -329.6,264.4 -639.9,446.8 -866.5,580 -109.3,64.3 -195.6,115 -257.2,159.5 -204.8,147.8 -154.3,292.1 -123,347.3 314.3,555.1 1321.2,1438.1 1702.4,1654.5 240.1,136.2 520.3,62.1 666.3,-176.3 139.5,-229.2 246,-608.4 326.1,-1159.7 148.4,-1021.6 127.3,-2263.9 34.9,-2533.5 -25,-73 -87,-126.6 -161.7,-139.9 -15.3,-2.7 -29.9,-4.1 -44,-4.1"
         style="fill:#000072;fill-opacity:1;fill-rule:nonzero;stroke:none"
         id="path39224" /><path
         d="m 11810.4,32986.3 c -78.7,0 -144.6,-8.1 -199.9,-21.8 -123.6,-30.4 -207.6,-90.5 -264.2,-189.1 -532.5,-928 17.9,-3438.8 754.7,-5378.9 l 19.3,-50.8 -12.6,-52.9 c -74.2,-311.3 -144.3,-670.3 -208.4,-1067.1 -181.3,-1122.9 -259.8,-2192 -252.8,-2475 8.6,-346.5 44.4,-676.9 106.5,-981.8 72.7,-357.9 183.9,-691.8 330.3,-992.6 146.7,-301.2 333.1,-578.2 554.3,-823.3 285.7,-316.7 639.9,-591.7 1052.7,-817.3 1179.3,-644.5 2660.1,-805.7 3818.4,-874.2 884.4,-52.3 1788.2,-13.9 2686.1,114.1 905.5,129 1796.8,349.1 2649.3,654.1 2511.9,898.9 5275,2385.7 4337.8,5934.2 -110.4,417.8 -783.3,2131.3 -1432.1,3272.4 l -26.8,47.2 4.3,54.2 c 165.7,2068.7 -6.9,4633.3 -777.4,5375.7 -81.9,78.9 -179.4,113 -306.5,107.9 -385.8,-16.1 -1173.9,-408.8 -2737.4,-2188.5 l -73.4,-83.5 -107.1,30 c -1448.2,406 -3348.4,136.3 -3428.6,124.6 -81.4,-11.3 -1981.1,-282.9 -3258.5,-1077.3 l -94.5,-58.7 -93.8,59.7 c -1703.6,1084.7 -2584.6,1358.7 -3039.7,1358.7 M 18279,18885.4 c -265,0 -528.8,7.7 -791.1,23.2 -1195.2,70.7 -2726.2,238.7 -3967.2,916.9 -447.7,244.7 -833.2,544.4 -1145.6,890.7 -243.4,269.7 -448.5,574.3 -609.6,905.4 -159.5,327.5 -280.3,689.8 -358.9,1076.8 -66.2,325.2 -104.4,676.3 -113.5,1043.5 -8.5,343 85.3,1475.2 257.3,2540.2 61.8,383.1 129.4,732.6 201,1039.6 -780.4,2073.6 -1299.8,4604.8 -711.6,5629.7 104.9,182.9 268.5,302.8 486.2,356.4 640.1,157.5 1759.7,-275.4 3421.1,-1323.2 1336.5,788.8 3218.6,1058 3299.9,1069.3 80.2,11.7 1962.8,278.7 3466.2,-105.4 1302.7,1470.1 2256.9,2198.5 2915.5,2225.9 224.2,8.9 414.5,-60.1 566.4,-206.4 851,-819.9 1059.1,-3395.4 888.8,-5604.4 664.9,-1183.3 1324.1,-2871.8 1439.7,-3309.5 459.4,-1739.3 118.7,-3202.7 -1012.6,-4349.8 -996.9,-1010.7 -2419.6,-1603.7 -3547.8,-2007.4 -874.9,-313.1 -1789.5,-538.9 -2718.5,-671.3 -655.2,-93.3 -1313.6,-140.2 -1965.7,-140.2"
         style="fill:#000072;fill-opacity:1;fill-rule:nonzero;stroke:none"
         id="path39226" /><path
         d="m 20984.3,23752.2 c 0,0 120.6,-843.9 -640.8,-907 -539.3,-44.9 -712.9,379.6 -726,413.9 -3.3,-36.6 -51.5,-492.7 -581.9,-600.2 -749,-152.1 -868.9,691.9 -868.9,691.9 l 1246.7,1293.6 12.9,1.8 1558,-894"
         style="fill:#e8e8e8;fill-opacity:1;fill-rule:nonzero;stroke:none"
         id="path39228" /><path
         d="m 20977.5,23745.5 c 0,0 -154.7,-677.2 -749.3,-609.4 -676.7,77.2 -707.6,867 -707.6,867 l -24.1,-3.4 c 0,0 187.8,-767.7 -441.5,-1028.4 -552.8,-228.9 -888.2,379.5 -888.2,379.5 0,0 -366.1,1418.8 1196.9,1641.4 1563,222.7 1613.8,-1246.7 1613.8,-1246.7"
         style="fill:#ffffff;fill-opacity:1;fill-rule:nonzero;stroke:none"
         id="path39230" /><path
         d="m 20924.3,23591.8 c -85.3,-195.5 -286.3,-502.5 -695.8,-455.5 -677.2,77 -708.2,866.9 -708.2,866.9 l -23.7,-3.4 c 0,0 187.9,-768 -441.7,-1028.7 -380.4,-157.4 -658.3,81.9 -794.3,246.3 111.8,5.6 230.5,31.3 356.4,83.4 1039.2,430.5 761.6,1469.3 761.6,1469.3 l 39.9,5.7 c 0,0 18.4,-1075.2 1136.2,-1203.1 137,-15.6 259.8,-7.4 369.6,19.1"
         style="fill:#e8e8e8;fill-opacity:1;fill-rule:nonzero;stroke:none"
         id="path39232" /><path
         d="m 18253.3,23398.4 c 23.9,-28.4 54.5,-63.9 84.4,-93.2 29.6,-31.1 61.8,-58.8 93.6,-85.6 64.5,-52.4 133.3,-94.4 203.2,-119.2 69.6,-26.3 139.6,-33.7 209.8,-29.2 35.3,8.2 70.8,9.1 106,24.7 17.5,6.9 35.7,10.7 53.2,18.4 l 52.1,25.8 c 139.4,68.6 235.1,186.2 291.1,336.3 28.1,74.8 44.4,157.7 52.5,242.9 5,42.5 5.8,86 6.4,129.5 0,42.5 -1.5,89.9 -5,127.4 l -0.7,7.9 c -5.1,54.3 34.9,102.4 89.2,107.4 47.1,4.4 89.5,-25.1 103.2,-68.3 17.6,-55.2 28.1,-102.3 36.7,-154.5 8.8,-51 13.6,-102.8 15.4,-155.1 3,-104.5 -3.8,-212.4 -34.7,-318.7 -53.1,-212.6 -208.8,-420.1 -412.2,-520.6 l -75.3,-38.1 c -25.7,-11.9 -54,-19.6 -81.2,-28.7 -53.4,-20.6 -114.1,-25.9 -172,-34.9 -119.9,-8 -241.4,17.5 -346.5,65.8 -105.3,49.4 -193.9,119.6 -266.3,198.6 -35.9,39.9 -68.8,81.6 -97.9,125.3 -29.9,44.6 -53.8,87.3 -77.9,140.9 -22.4,49.6 -0.3,108.1 49.3,130.5 41.1,18.5 88.2,6.6 116,-26.2 l 7.6,-9.1"
         style="fill:#000072;fill-opacity:1;fill-rule:nonzero;stroke:none"
         id="path39234" /><path
         d="m 21073.7,23723.5 c -8.4,-58.1 -19.6,-105.7 -36,-156.8 -16,-50.1 -36.1,-99.2 -59.7,-147.4 -47.8,-96 -113.6,-187.9 -201.2,-264.3 -87.8,-75.4 -197.6,-133.4 -315,-158.7 -58.2,-7.3 -117.9,-18.9 -175,-13.9 -28.6,1.3 -58,0.9 -85.9,5.3 l -82.9,15.9 c -223.3,40.6 -430,197.1 -539.6,386.9 -59.1,93.7 -95.3,195.6 -121.3,296.8 -12.6,50.8 -22.2,101.9 -27.8,153.4 -6.1,52.5 -9,100.6 -7.3,158.5 1.6,54.6 47.1,97.5 101.6,95.9 47.2,-1.4 85.7,-35.8 94.2,-80.4 l 1.4,-7.8 c 7,-37 18.6,-83 30.3,-123.8 12.6,-41.7 25.4,-83.3 41.8,-122.8 31.3,-79.6 69.8,-154.9 117.4,-219 95.1,-128.9 219.6,-215.6 372.5,-243.1 l 57.2,-10.4 c 18.9,-2.7 37.4,-1.3 56.1,-3.1 38.2,-5.4 72.6,3.6 108.7,5.4 68.8,15 134.1,41.5 193.8,85.9 60.3,43.1 114.8,102.4 162.4,170.6 23.3,34.5 46.6,70 66.4,108 20.7,36.4 40.3,79 55.5,112.9 l 4.8,10.7 c 22.3,49.7 80.7,71.9 130.4,49.6 41.2,-18.5 63.4,-61.8 57.2,-104.3"
         style="fill:#000072;fill-opacity:1;fill-rule:nonzero;stroke:none"
         id="path39236" /><path
         d="m 20237.8,24520 c 25.9,-184.2 -191.6,-380.7 -396.6,-522.2 -214.5,-148.1 -473,-184.4 -720,-101.1 -236.1,79.6 -499.2,208.6 -525.1,392.8 -78,555.6 1563.7,786.2 1641.7,230.5"
         style="fill:#000072;fill-opacity:1;fill-rule:nonzero;stroke:none"
         id="path39238" /><path
         d="m 19364.4,24352.7 c -29.1,0 -58.3,3 -87,9.1 -91.9,19.6 -193.8,53.1 -201.2,106.2 -14.3,101.4 241,175.2 436.2,175.2 113.4,0 206.5,-24.9 214.7,-83.7 7.5,-53.2 -81.2,-113.5 -164.2,-157.6 -60.9,-32.5 -129.7,-49.2 -198.5,-49.2"
         style="fill:#8080b9;fill-opacity:1;fill-rule:nonzero;stroke:none"
         id="path39240" /><path
         d="m 17224.8,24687.5 c 104.3,-732.5 -377.1,-1407 -1075.3,-1506.5 -698.1,-99.4 -1348.7,413.8 -1453.1,1146.3 -104.3,732.6 377,1407 1075.2,1506.5 698.2,99.5 1348.8,-413.7 1453.2,-1146.3"
         style="fill:#3a3a3a;fill-opacity:1;fill-rule:nonzero;stroke:none"
         id="path39242" /><path
         d="m 16702.6,24299.7 c 44.2,-310 -159.5,-595.4 -455,-637.5 -295.5,-42.1 -570.8,175.1 -615,485.1 -44.2,310 159.6,595.4 455,637.5 295.5,42.1 570.9,-175.1 615,-485.1"
         style="fill:#ffffff;fill-opacity:1;fill-rule:nonzero;stroke:none"
         id="path39244" /><path
         d="m 15801.6,25040.7 c 25.5,-178.7 -92,-343.3 -262.4,-367.5 -170.3,-24.3 -329.1,100.9 -354.5,279.6 -25.5,178.8 92,343.3 262.3,367.6 170.4,24.3 329.1,-100.9 354.6,-279.7"
         style="fill:#ffffff;fill-opacity:1;fill-rule:nonzero;stroke:none"
         id="path39246" /><path
         d="m 24056.1,25660.7 c 104.4,-732.5 -377,-1407 -1075.2,-1506.4 -698.2,-99.5 -1348.8,413.7 -1453.1,1146.2 -104.4,732.6 377,1407.1 1075.2,1506.5 698.2,99.5 1348.8,-413.7 1453.1,-1146.3"
         style="fill:#3a3a3a;fill-opacity:1;fill-rule:nonzero;stroke:none"
         id="path39248" /><path
         d="m 23534,25272.9 c 44.1,-310 -159.6,-595.4 -455.1,-637.5 -295.4,-42.1 -570.8,175.1 -614.9,485.1 -44.2,310 159.5,595.4 455,637.5 295.5,42.1 570.8,-175.1 615,-485.1"
         style="fill:#ffffff;fill-opacity:1;fill-rule:nonzero;stroke:none"
         id="path39250" /><path
         d="m 22632.9,26013.9 c 25.5,-178.7 -91.9,-343.3 -262.3,-367.5 -170.4,-24.3 -329.1,100.9 -354.6,279.7 -25.4,178.7 92,343.3 262.4,367.5 170.3,24.3 329.1,-100.9 354.5,-279.7"
         style="fill:#ffffff;fill-opacity:1;fill-rule:nonzero;stroke:none"
         id="path39252" /><path
         d="m 12553.1,22952.8 c -33.6,13.4 -72.6,27.4 -110,40.2 -37.3,13.8 -75.5,26.1 -114,37.9 -38.1,12.6 -76.6,24 -115.6,34.2 -39.1,10.1 -77.1,22.8 -116.3,32.3 -156.3,39 -313.1,75.9 -472.1,101.9 -317.5,53.5 -638.5,89.3 -961.3,92.5 -48.9,2.1 -97.8,0.7 -146.7,-0.8 -31.7,-0.9 -63.5,-1.9 -95.2,-1.8 l -121,-2.1 c -40.4,-1 -80.5,-5.7 -120.8,-8.4 -80.5,-6.5 -161,-12.7 -241.75,-17.8 l -240.6,-31.2 c -161.54,-15.7 -318.52,-57.5 -478.76,-84.3 l -59.92,-11.1 -58.99,-15.1 -118.08,-30.2 -237.18,-58.8 -5.72,-1.4 c -46.53,-11.5 -93.6,16.8 -105.14,63.4 -10.95,44.1 14.34,88.8 56.67,103.1 l 238.12,79.9 119.56,39 59.84,19.6 60.96,15.6 c 81.2,21.1 162.81,41 244.55,60.5 40.99,9.1 81.42,21.2 122.91,28 l 124.27,21.6 248.95,42.4 251.41,26.1 c 42,3.6 83.8,9.3 125.9,11.3 l 126.4,4.9 c 84.3,2.2 168.7,8.6 253,5.6 l 253.2,-6.8 c 84.3,-4.1 168.4,-13.1 252.5,-20.4 84.3,-5.7 167.6,-21.1 251.4,-32.3 83.7,-11.1 166.5,-28.8 249.2,-46 331.6,-71.3 652.6,-171.7 959.3,-336.6 42.2,-22.8 58.1,-75.4 35.3,-117.6 -21,-39.2 -68,-55.7 -108.4,-39.6 l -5.9,2.3"
         style="fill:#000072;fill-opacity:1;fill-rule:nonzero;stroke:none"
         id="path39254" /><path
         d="m 12943.3,21735.8 c -138.2,-3.4 -283.4,-13.1 -424.5,-27.4 -142,-14.3 -283.3,-32.4 -423.6,-55.6 -280.2,-47.3 -557.5,-110 -824.3,-202.6 -133.4,-46 -264.7,-97.6 -391.6,-158.2 -64.2,-28.9 -125.6,-63 -188.4,-94.6 -60.5,-35.3 -122.8,-68.2 -181.1,-107.3 -238.8,-148 -454,-331.4 -645.19,-539.8 l -1.17,-1.3 c -32.47,-35.4 -87.48,-37.8 -122.88,-5.3 -33.14,30.4 -37.08,80.9 -10.81,116.2 180.37,240.8 400.65,454.9 650.25,626 124.3,86.3 254.4,164.4 389.9,230.9 134.8,67.9 273.6,127.9 415.8,177 283.5,101 577.3,169.9 874,206.1 297.7,36 594.1,44.9 896.4,9.3 47.7,-5.7 81.8,-48.9 76.1,-96.6 -5.1,-43.5 -41.5,-75.7 -84.1,-76.7 l -4.8,-0.1"
         style="fill:#000072;fill-opacity:1;fill-rule:nonzero;stroke:none"
         id="path39256" /><path
         d="m 26415,25071.2 c 248.5,244 528.7,430.1 827.2,591.2 74.6,39.6 149.1,79.7 226.5,113.7 77.2,34.1 152.9,72.2 232.3,101.2 78.7,30.5 157,62.6 236.8,90.1 l 241.2,77.3 c 80.2,26.4 162.9,43.8 244.5,65.2 l 122.7,30.7 c 41,9.8 82.8,16 124.1,24.2 l 248.7,45.2 250.9,28.8 125.3,13.9 c 41.7,5.2 83.9,4.8 125.9,7.5 83.9,4.1 167.8,7.8 251.7,10.2 l 62.9,2 62.9,-2 125.7,-4.2 250.9,-10.1 c 47.9,-1.9 85.2,-42.3 83.3,-90.2 -1.9,-45.5 -38.3,-81.3 -83,-83.3 l -6.2,-0.2 -244.2,-9.8 -121.8,-3.9 -60.8,-2 -60.7,-6.1 c -161.3,-19.1 -323.7,-22.7 -483.2,-52.8 l -239.7,-37.2 c -79,-17.6 -158.1,-34.1 -237.1,-50.4 -39.5,-8.7 -79.4,-15.4 -118.4,-25.6 l -116.8,-31.9 c -77.4,-22.6 -156.6,-39.2 -233,-65 -309,-93.3 -607.3,-217.2 -897.2,-357.3 -145.4,-69.4 -285.7,-148.5 -424.9,-229.7 -34.9,-20.1 -67.9,-42.9 -102.6,-63.4 -34.6,-20.7 -68.4,-42.5 -101.5,-65.1 -33.6,-22.1 -66.9,-44.6 -98.9,-68.3 -32.3,-22.7 -65.8,-47.1 -94.4,-69.3 l -5,-3.9 c -37.9,-29.4 -92.4,-22.5 -121.8,15.3 -27.3,35.2 -23.3,84.8 7.7,115.2"
         style="fill:#000072;fill-opacity:1;fill-rule:nonzero;stroke:none"
         id="path39258" /><path
         d="m 26438.6,23829.9 c 280.4,118.7 567.5,192.9 863.4,241.5 295,48.1 596.3,63.9 896.7,46.1 150.3,-7.5 300.3,-26.3 448.7,-53.8 148.7,-26 295.4,-64.7 438.9,-112.9 287.5,-94.6 558.7,-238.6 799.2,-419.4 38.4,-28.9 46.1,-83.4 17.2,-121.8 -27,-36 -76.6,-45 -114.3,-22.3 l -1.8,1.1 c -241.8,146.8 -499.6,262.8 -770.3,338.2 -66.8,21.2 -135.8,35.5 -203.8,52.4 -69.2,12.9 -137.6,28.5 -207.3,38.3 -138.8,22.7 -279.3,35.7 -420.2,42.5 -282.1,14.4 -565.8,-2.8 -848.1,-35.6 -141.2,-16.9 -282,-39.1 -422.3,-64.9 -139.5,-25.7 -281.6,-57 -415.3,-92.3 l -4.6,-1.2 c -46.4,-12.2 -94,15.5 -106.2,61.9 -11.2,42.3 10.9,85.6 50.1,102.2"
         style="fill:#000072;fill-opacity:1;fill-rule:nonzero;stroke:none"
         id="path39260" /><path
         d="m 18227.2,24625.5 c -84,0 -157.8,61 -171.5,146.5 l -177,1110.5 c -54.6,342.5 27.4,685.7 231,966.5 203.5,280.7 504.2,465.4 846.7,520 706.9,112.7 1373.8,-370.7 1486.5,-1077.7 l 177.1,-1110.5 c 15.1,-94.8 -49.5,-183.8 -144.3,-199 -94.9,-15.2 -183.9,49.5 -199,144.3 l -177,1110.5 c -82.6,517.7 -570.9,871.9 -1088.6,789.2 -250.8,-40 -471,-175.3 -620,-380.9 -149.1,-205.6 -209.1,-456.9 -169.2,-707.7 l 177.1,-1110.5 c 15.1,-94.8 -49.5,-183.8 -144.3,-199 -9.2,-1.5 -18.5,-2.2 -27.5,-2.2"
         style="fill:#000072;fill-opacity:1;fill-rule:nonzero;stroke:none"
         id="path39262" /><path
         d="m 15726.4,21478.4 c -149.9,-23.9 -299,-36.5 -446.3,-37.8 -282.4,-3 -558.3,33.9 -821.2,105.6 -151.2,41.3 -298.5,94.3 -440.2,158.2 -570.9,256.8 -1054.9,687.8 -1373.9,1237 -180.7,311.6 -308.5,660.9 -368.4,1038.1 -262,1643.7 857.7,3188.4 2501,3450.4 90.4,14.3 180.7,24.8 270.2,30.8 649.2,44.8 1272.3,-122 1794.1,-446.6 132.6,-82.1 258.6,-174.7 376.8,-276.8 209,-179.5 393.6,-388 547.4,-620.9 230.8,-347.6 392,-749.1 461.9,-1188 262,-1643.3 -857.7,-3187.9 -2501.4,-3450"
         style="fill:#000072;fill-opacity:1;fill-rule:nonzero;stroke:none"
         id="path39264" /><path
         d="m 14018.7,21704.4 v 0 c -570.9,256.8 -1054.9,687.8 -1373.9,1237 l 2402.8,4519.3 c 69.6,4.8 139,7.2 207.9,7.2 573.8,0 1120.3,-164 1586.2,-453.8 l -2823,-5309.7"
         style="fill:#8080b9;fill-opacity:1;fill-rule:nonzero;stroke:none"
         id="path39266" /><path
         d="m 15247.8,21440.5 c -271.2,0 -536.1,36.8 -788.9,105.7 l 2759.6,5191.1 c 209,-179.5 393.6,-388 547.4,-620.9 l -2485.8,-4675.8 v 0 c -10.8,-0.1 -21.5,-0.1 -32.3,-0.1"
         style="fill:#8080b9;fill-opacity:1;fill-rule:nonzero;stroke:none"
         id="path39268" /><path
         d="m 15253.6,27293.9 c -148.1,0 -297.9,-11.7 -448.7,-35.7 -1546.2,-246.5 -2603.6,-1705 -2357.1,-3251.2 119.4,-749.1 523.4,-1406.7 1137.5,-1851.9 614,-445.2 1364.7,-624.5 2113.7,-505.2 1546.2,246.5 2603.6,1705 2357.1,3251.2 -222.5,1395.4 -1432.2,2392.8 -2802.5,2392.8 z m -8.4,-6027.8 c -666.4,0 -1314,208.8 -1864,607.5 -689.2,499.7 -1142.6,1237.9 -1276.7,2078.6 -276.7,1735.5 910.2,3372.5 2645.6,3649.2 1735.6,276.9 3372.6,-910.1 3649.3,-2645.5 276.7,-1735.5 -910.1,-3372.6 -2645.6,-3649.3 -169.9,-27.1 -339.9,-40.5 -508.6,-40.5"
         style="fill:#000072;fill-opacity:1;fill-rule:nonzero;stroke:none"
         id="path39270" /><path
         d="m 26347.8,26223.2 c 262.1,-1643.5 -857.8,-3188.3 -2501.3,-3450.3 -1643.5,-262 -3188.2,857.9 -3450.2,2501.3 -262.1,1643.5 857.8,3188.2 2501.3,3450.3 1643.5,262 3188.2,-857.9 3450.2,-2501.3"
         style="fill:#000072;fill-opacity:1;fill-rule:nonzero;stroke:none"
         id="path39272" /><path
         d="m 19356.3,11715.5 c -355.9,-14.6 -703.5,2.6 -1053.3,37.6 -348.9,34.5 -696,91.5 -1038.9,169.1 -172.5,35 -341.4,85.3 -511.9,129.8 l -252.2,79.9 c -41.9,13.7 -84.4,25.8 -125.8,41 l -124.2,46.2 c -334.1,116.3 -653.8,271.5 -969.4,434.7 -85.3,44.1 -118.7,149 -74.5,234.3 44.1,85.3 149,118.7 234.3,74.6 1.9,-1 3.7,-2 5.6,-3 l 7.4,-4.3 c 292.8,-166.8 591.2,-328.1 907,-452.9 l 117.3,-49.4 c 39.2,-16.3 79.6,-29.5 119.4,-44.4 l 239.7,-87.2 c 162.6,-49.7 323.8,-105.3 489.5,-146.2 329.1,-89 664.4,-158.7 1003.1,-206.6 337.5,-48.4 682.6,-79.3 1019.3,-79.5 h 4.2 c 47.9,-0.1 86.8,-39 86.7,-87 0,-46.7 -37.1,-84.7 -83.3,-86.7"
         style="fill:#000072;fill-opacity:1;fill-rule:nonzero;stroke:none"
         id="path39274" /><path
         d="m 23719.1,12430.8 c 101.2,36 206.5,81.6 305.8,130.5 99.9,49.4 196.7,104.1 289.4,163.3 93.3,58.4 180,124.9 262,194 82,69.3 154,146.5 220,225.4 l 3.6,4.3 c 61.7,73.8 171.6,83.6 245.4,21.9 73.9,-61.8 83.7,-171.7 21.9,-245.5 -4.4,-5.3 -9.8,-10.9 -14.6,-15.5 -93.2,-87.1 -190.5,-166.8 -293.9,-234 -103.3,-66.9 -208.9,-128 -318.3,-178.8 -108.9,-51.5 -219.7,-96.8 -332.3,-135.7 -113.3,-38.9 -224.8,-71.8 -345.2,-98 -46.9,-10.3 -93.2,19.5 -103.4,66.4 -9.4,43.3 15.1,86 55.8,100.4 l 3.8,1.3"
         style="fill:#000072;fill-opacity:1;fill-rule:nonzero;stroke:none"
         id="path39276" /><path
         d="m 24966.1,28306 c -452.6,282.4 -981.2,446.3 -1537.2,456 556.4,-8.7 1085.6,-171.6 1538.6,-453.4 l -1.4,-2.6"
         style="fill:#c7c7d9;fill-opacity:1;fill-rule:nonzero;stroke:none"
         id="path39278" /><path
         d="m 22144.5,22998.9 c -570.9,256.8 -1055,687.8 -1373.9,1237 l 2402.8,4519.4 c 69.6,4.8 138.9,7.1 207.8,7.1 15.9,0 31.8,-0.1 47.7,-0.4 556,-9.7 1084.6,-173.6 1537.2,-456 l -2821.6,-5307.1"
         style="fill:#8080b9;fill-opacity:1;fill-rule:nonzero;stroke:none"
         id="path39280" /><path
         d="m 25889.4,27406.5 c -153.7,232.9 -338.2,442 -546.8,622.2 l 1.6,3.1 c 209,-179.4 393.7,-388 547.5,-620.9 l -2.3,-4.4"
         style="fill:#c7c7d9;fill-opacity:1;fill-rule:nonzero;stroke:none"
         id="path39282" /><path
         d="m 23373.7,22735 c -271.2,0 -536.1,36.8 -789,105.7 l 2757.9,5188 c 208.6,-180.2 393.1,-389.3 546.8,-622.2 l -2483.5,-4671.3 c -10.7,-0.2 -21.5,-0.2 -32.2,-0.2"
         style="fill:#8080b9;fill-opacity:1;fill-rule:nonzero;stroke:none"
         id="path39284" /><path
         d="m 23373.7,28588.5 c -148.1,0 -297.9,-11.6 -448.7,-35.6 -1546.3,-246.6 -2603.6,-1705.1 -2357.1,-3251.3 222.5,-1395.4 1432.2,-2392.7 2802.5,-2392.7 148.1,0 297.9,11.6 448.7,35.6 749.1,119.5 1406.7,523.4 1851.9,1137.5 445.2,614.1 624.6,1364.8 505.2,2113.8 -222.5,1395.4 -1432.2,2392.7 -2802.5,2392.7 z m -3.5,-6027.3 c -1538.2,0 -2895.8,1119.4 -3145.6,2685.7 -276.7,1735.5 910.1,3372.5 2645.6,3649.2 1735.5,277 3372.6,-910.1 3649.3,-2645.6 134,-840.7 -67.4,-1683.3 -567,-2372.5 -499.7,-689.3 -1237.9,-1142.7 -2078.6,-1276.7 -169.2,-27 -337.5,-40.1 -503.7,-40.1"
         style="fill:#000072;fill-opacity:1;fill-rule:nonzero;stroke:none"
         id="path39286" /><path
         d="m 12682,16640.1 -684.3,-51.3 c -286.4,-21.5 -514.1,-249.2 -535.5,-535.6 l -51.3,-684.2 -51.3,684.2 c -21.5,286.4 -249.2,514.1 -535.6,535.6 l -684.2,51.3 684.2,51.3 c 286.4,21.5 514.1,249.1 535.6,535.5 l 51.3,684.3 51.3,-684.3 c 21.4,-286.4 249.1,-514 535.5,-535.5 l 684.3,-51.3"
         style="fill:#ffffff;fill-opacity:1;fill-rule:nonzero;stroke:none"
         id="path39288" /><path
         d="m 31290.8,30248.1 -684.3,-51.3 c -286.4,-21.5 -514.1,-249.1 -535.5,-535.6 l -51.3,-684.2 -51.4,684.2 c -21.4,286.5 -249.1,514.1 -535.5,535.6 l -684.3,51.3 684.3,51.3 c 286.4,21.5 514.1,249.2 535.5,535.6 l 51.4,684.2 51.3,-684.2 c 21.4,-286.4 249.1,-514.1 535.5,-535.6 l 684.3,-51.3"
         style="fill:#ffffff;fill-opacity:1;fill-rule:nonzero;stroke:none"
         id="path39290" /><path
         d="m 29923.6,11346.5 -365.7,-27.4 c -153.1,-11.5 -274.7,-133.2 -286.2,-286.2 l -27.4,-365.7 -27.4,365.7 c -11.5,153 -133.2,274.7 -286.3,286.2 l -365.7,27.4 365.7,27.4 c 153.1,11.5 274.8,133.2 286.3,286.2 l 27.4,365.7 27.4,-365.7 c 11.5,-153 133.1,-274.7 286.2,-286.2 l 365.7,-27.4"
         style="fill:#ffffff;fill-opacity:1;fill-rule:nonzero;stroke:none"
         id="path39292" /><path
         d="m 9995.25,30651 -374.03,-28.1 c -156.57,-11.7 -281.02,-136.2 -292.76,-292.7 l -28.04,-374.1 -28.04,374.1 c -11.74,156.5 -136.19,281 -292.76,292.7 l -374.03,28.1 374.03,28 c 156.57,11.8 281.02,136.2 292.76,292.8 l 28.04,374 28.04,-374 c 11.74,-156.6 136.19,-281 292.76,-292.8 l 374.03,-28"
         style="fill:#ffffff;fill-opacity:1;fill-rule:nonzero;stroke:none"
         id="path39294" /></g></g></svg>
