<?xml version="1.0" encoding="UTF-8" standalone="no"?>
<!-- Created with Inkscape (http://www.inkscape.org/) -->

<svg
   version="1.1"
   id="svg2700"
   width="500"
   height="500"
   viewBox="0 0 500 500"
   sodipodi:docname="4500_9_07.eps"
   xml:space="preserve"
   xmlns:inkscape="http://www.inkscape.org/namespaces/inkscape"
   xmlns:sodipodi="http://sodipodi.sourceforge.net/DTD/sodipodi-0.dtd"
   xmlns="http://www.w3.org/2000/svg"
   xmlns:svg="http://www.w3.org/2000/svg"><defs
     id="defs2704" /><sodipodi:namedview
     id="namedview2702"
     pagecolor="#ffffff"
     bordercolor="#000000"
     borderopacity="0.25"
     inkscape:showpageshadow="2"
     inkscape:pageopacity="0.0"
     inkscape:pagecheckerboard="0"
     inkscape:deskcolor="#d1d1d1"
     showgrid="false" /><g
     id="g2708"
     inkscape:groupmode="layer"
     inkscape:label="Page 1"
     transform="matrix(1.3333333,0,0,-1.3333333,0,5333.3332)"><g
       id="g2710"
       transform="matrix(0.009375,0,0,0.009375,0,3625)"><path
         d="M 0,0 H 40000 V 40000 H 0 Z"
         style="fill:#1f2937;fill-opacity:1;fill-rule:nonzero;stroke:none"
         id="path2712" /><path
         d="m 21915.6,8968.7 c -6293.8,0 -11395.9,519.4 -11395.9,1160.1 0,201.4 504.3,390.8 1391.4,555.9 237.4,-424.1 696.6,-725.4 1522.8,-725.4 58.5,0 119.1,1.5 181.2,4.6 842.1,41.9 1283.3,477.1 1487.4,1094.9 159.1,12.1 321.5,23.8 487,35 104,-91.7 212.3,-179 324.9,-261.8 947.8,-697.2 2172.1,-1050.8 3639,-1050.8 H 26006 c 190.1,-30.8 381.5,-43.7 571.4,-43.7 33.8,0 67.5,0.5 101.1,1.2 172.2,4.4 343.3,18.8 512.9,42.5 h 3259 c 1177,0 1788.6,374.6 2106.1,763.7 487.7,-129.2 755,-269.5 755,-416.1 0,-640.7 -5102.1,-1160.1 -11395.9,-1160.1"
         style="fill:#e5e7eb;fill-opacity:1;fill-rule:nonzero;stroke:none"
         id="path2714" /><path
         d="m 30450.4,9964.1 c -3637.4,0 -9530.3,0 -10897.1,0 -3034.7,0 -4626.8,1540.7 -5260,3500.2 -664.4,2056.3 1022.2,5196.8 1022.2,5196.8 0,0 4071.8,-150.6 7224.5,-383.7 2493.6,-184.3 3123.5,-443.9 4043.7,-1291.3 1450.9,-1336.4 1423.8,-3334.2 1423.8,-3334.2 0,0 1711.6,11.4 3281.6,-421.9 1851,-510.9 2238.4,-3265.9 -838.7,-3265.9"
         style="fill:#9e9e9e;fill-opacity:1;fill-rule:nonzero;stroke:none"
         id="path2716" /><path
         d="M 30450.3,9963.9 H 19553.5 c -3035,0 -4627.1,1540.9 -5260.1,3500.3 -555.7,1719.7 533.3,4198.1 904.2,4963.3 72.7,149.5 118,233.7 118,233.7 0,0 3558.3,-131.7 6598,-339.4 211.7,-14.1 421.2,-29.2 626.6,-44.3 2493.5,-184.4 3123.3,-444.1 4043.5,-1291.6 1450.8,-1336.5 1423.8,-3333.8 1423.8,-3333.8 0,0 779.4,5.1 1769.1,-125.3 476.6,-62.2 1002.1,-155.9 1512.5,-296.8 1851,-510.9 2238.4,-3266.1 -838.8,-3266.1"
         style="fill:#8e8fb3;fill-opacity:1;fill-rule:nonzero;stroke:none"
         id="path2718" /><path
         d="m 24242.1,10980.9 c -557.5,88.3 -1265.9,243.3 -1923.4,512.5 152,20.1 302,56.7 448.7,112.3 99,38.2 196.7,85.4 292.4,152.8 45.2,33.3 81.6,66.1 122.7,99.4 19.7,16.8 40.5,32.5 59.1,50.5 l 54.9,55 c 75.6,71.2 139.6,152.2 204.5,232.1 l 88.4,125.9 c 28.9,42.3 53.1,87.2 79.8,130.7 101.2,177 181,363.8 241.9,555.5 31.5,95.6 55.5,193.3 77.5,291.4 9.9,49.5 20.2,98.6 27.7,149 3,18 5.8,36.2 8.3,54.5 8.6,5 17.2,10 26,15.1 5.5,3.2 10.9,6.5 16.3,9.7 -91,-331.6 -142.5,-674.4 -152.1,-1021.5 -8.6,-361.9 29.2,-731.3 142.8,-1086.4 48.2,-150.2 109,-297.7 184.5,-438.5 m -3518.3,4689.2 c 19.2,49.9 37.5,98.8 54.3,146.5 183.1,78.8 363.8,164.1 543.2,252.3 125,63.8 250.2,127.1 372.2,197.3 74.4,39.9 147.1,83.1 219.4,127.1 -304.5,-242.3 -727.3,-481 -1189.1,-723.2"
         style="fill:#797aa9;fill-opacity:1;fill-rule:nonzero;stroke:none"
         id="path2720" /><path
         d="m 25765.5,9963.9 h -6212 c -3035,0 -4627.1,1540.9 -5260.1,3500.3 -555.7,1719.7 533.3,4198.1 904.2,4963.3 2759.8,-325.2 5577.6,-1434.3 5677.3,-2001.5 38.4,-219 -40.7,-469.2 -151.4,-756 -1212.9,-636.2 -2694.8,-1295.7 -3005.8,-2106.6 -433.6,-1131.1 484.8,-1921.4 1489.2,-2103.4 903.3,-164.2 1664.8,65.4 2317,441.8 1444.4,-936.7 3741.7,-1033.7 3741.7,-1033.7 l 499.9,-904.2"
         style="fill:#686868;fill-opacity:1;fill-rule:nonzero;stroke:none"
         id="path2722" /><path
         d="m 30450.3,9963.9 h -901 c 380.5,565.8 834.2,1710.1 227.3,3562.9 476.6,-62.2 1002.1,-155.9 1512.5,-296.8 1851,-510.9 2238.4,-3266.1 -838.8,-3266.1"
         style="fill:#ffffff;fill-opacity:1;fill-rule:nonzero;stroke:none"
         id="path2724" /><path
         d="m 31157.6,10207 c 54.7,65 103.1,133.6 146.7,204.3 47.4,80.4 89.5,163.2 124.7,248.5 140,341.3 182,719 121.5,1082.4 -61.1,363.7 -228.7,705.2 -460.6,982 -115.6,139.1 -245.9,263.5 -384.5,374.9 l -105.7,81 c -17,12.1 -34.1,24 -51.3,35.8 36.3,-7.2 72.8,-14.6 109.2,-22.2 487.8,-370.1 1030.6,-909 1115.4,-1845.8 14.2,-157.6 145.6,-252 277.9,-252 84,0 168.4,38 223.5,122.1 95.6,146 182,330.8 234.5,561.4 19.6,-92.2 29.5,-184.2 29.5,-274 0,-53.1 -3.4,-105.4 -10.4,-156.6 -80.2,-591.9 -578,-996.2 -1370.4,-1141.8"
         style="fill:#d9d9ea;fill-opacity:1;fill-rule:nonzero;stroke:none"
         id="path2726" /><path
         d="m 31468.8,10658.2 c 37.9,-6.1 85.5,-11.7 129.2,-13.3 44.5,-2.3 89.1,-1.5 133.3,0.5 88.5,5.1 175,20.2 256.8,44.4 41.4,10.9 80.2,27.7 119,42.9 18.9,8.6 37.1,18.8 55.6,27.9 18.8,8.5 36.3,19.2 53.3,30.7 70.9,40.7 129.5,97.7 185.5,153.9 l 7.4,7.5 c 71.7,71.9 188,72.2 259.9,0.6 71.9,-71.7 72.1,-188 0.5,-259.9 -6.2,-6.3 -13.6,-12.6 -20.5,-17.8 -90.8,-67.6 -185.3,-130.3 -289.8,-170.7 -25.4,-11.5 -51.2,-21.7 -77.8,-29.4 -26.4,-8.2 -52.5,-17.3 -78.9,-24.4 -53.5,-12.2 -106.5,-24.8 -160.2,-30.4 -106.9,-13.6 -213.3,-14.5 -317.4,-3.9 -51.9,5.8 -103.4,13.2 -154.3,24.1 -51.7,10.7 -99,23.3 -154,42.1 -47.7,16.3 -73.2,68.2 -56.9,115.9 14.6,42.8 57.8,67.8 101,60.7 l 8.3,-1.4"
         style="fill:#000072;fill-opacity:1;fill-rule:nonzero;stroke:none"
         id="path2728" /><path
         d="m 31765.5,12073.4 c 84.7,6.3 163,7.1 245,4.6 81.2,-2.8 162.9,-9.6 245.2,-21.1 82.3,-12.2 165.1,-30 248.5,-54.6 83.2,-26 166.7,-60.5 249,-107.3 l 1.3,-0.7 c 88.3,-50.2 119.1,-162.5 68.9,-250.8 -50.2,-88.3 -162.5,-119.2 -250.8,-69 -10.6,6 -21.1,13.6 -29.9,21.2 -45.7,39.8 -99.2,77.1 -158.6,109.9 -60.3,31.6 -124.9,60.2 -192.5,84.5 -67.9,23.7 -138.2,44.1 -210,61 -71,16.7 -146.6,30.6 -216.1,39.4 l -4.6,0.5 c -50.3,6.3 -85.9,52.2 -79.6,102.4 5.5,44.1 41.5,76.9 84.2,80"
         style="fill:#000072;fill-opacity:1;fill-rule:nonzero;stroke:none"
         id="path2730" /><path
         d="m 25765.5,9963.9 h -6212 c -3035,0 -4627.1,1540.9 -5260.1,3500.3 -555.7,1719.7 533.3,4198.1 904.2,4963.3 2759.8,-325.2 5577.8,-1434.2 5677.2,-2001.3 129.1,-736.9 -1070.5,-1826.4 -318.7,-3472.9 878.3,-1923.7 4709.4,-2085.2 4709.4,-2085.2 l 500,-904.2"
         style="fill:#ffffff;fill-opacity:1;fill-rule:nonzero;stroke:none"
         id="path2732" /><path
         d="m 24242.1,10980.9 c -557.4,88.2 -1265.9,243.2 -1923.5,512.5 0,0 0,0 0.1,0 657.5,-269.2 1365.9,-424.2 1923.4,-512.5 v 0"
         style="fill:#595969;fill-opacity:1;fill-rule:nonzero;stroke:none"
         id="path2734" /><path
         d="m 25017.8,10147.1 h -5464.4 c -2224.6,0 -3534.4,832.5 -4304.3,1846.1 1.7,53.7 2.4,107.8 2.4,162.3 0,99.9 -2.7,201 -7.7,302.9 -12.4,256.1 -39.3,516.8 -74.6,775.2 -43,318.8 -99.2,633 -156.8,928 v 0 c -14.8,76.6 -32.7,148.8 -53.5,216.8 -31.5,103.8 -69.5,198.4 -112.9,283.9 43.4,-0.3 86.9,-0.5 130.3,-0.5 229.7,0 459,4.5 687.8,12.1 h 0.4 c 41.7,1.4 78,31.8 85.2,74.5 1.4,8.4 1.6,16.6 0.7,24.6 l 2315.8,295.8 c 0.4,-2.8 1,-5.7 1.7,-8.6 9.9,-40.8 46.4,-68.1 86.6,-68.1 7,0 14.1,0.8 21.2,2.5 l 0.7,0.2 c 533.7,130.1 1068.2,270.8 1595.9,444 131.9,42.6 263.1,89.1 394.3,135.2 130,49.8 260.8,97.4 389.7,150.9 74.3,29.4 148.2,60 221.7,91.6 -16.9,-47.7 -35.2,-96.5 -54.5,-146.5 -1212.9,-636.2 -2694.8,-1295.7 -3005.8,-2106.6 -433.6,-1131.1 484.8,-1921.4 1489.2,-2103.4 202.5,-36.9 398,-53.9 586.6,-53.9 495.4,0 944.2,117.4 1353,301.6 122.2,-73.3 254,-128.9 388.7,-165.8 165.6,-46.7 335,-67 503.1,-67 40,0 79.9,1.1 119.7,3.3 53.8,3.1 107.3,8.1 160.6,15.2 657.6,-269.3 1366.1,-424.3 1923.5,-512.5 13.5,-25.2 27.5,-50.2 42,-75 95.8,-162.5 211.8,-314.8 346.4,-448.7 116.9,-118 248.1,-221.4 387.3,-310.1"
         style="fill:#d9d9ea;fill-opacity:1;fill-rule:nonzero;stroke:none"
         id="path2736" /><path
         d="m 15425,18473.9 c -274.4,-547.1 -1525.3,-3196.5 -957.6,-4953.4 497.3,-1538.9 1783.3,-3373.4 5086,-3373.4 h 10897 c 1199,0 1975.7,449.2 2077.6,1201.7 86.6,639.4 -371.3,1451.9 -1287.5,1704.8 -1526.2,421.2 -3215,415.5 -3231.9,415.3 l -186.6,-1.1 2.6,186.6 c 0.2,19 6.1,1934.3 -1364.9,3197.1 -885,815.2 -1474.3,1061.7 -3933.2,1243.5 -2817.5,208.3 -6413.4,352.3 -7101.5,378.9 M 30450.4,9781.2 h -10897 c -1466.9,0 -2691.2,353.6 -3639,1050.8 -838.1,616.5 -1442,1483.2 -1795.1,2576 -680.7,2106.3 964.6,5208.6 1035,5339.7 l 53.9,100.5 114.1,-4.3 c 40.7,-1.4 4111.2,-153.4 7231.2,-384 2550.4,-188.5 3210.1,-469.8 4154.1,-1339.3 1250.5,-1151.8 1447.3,-2748.1 1477.5,-3287.5 483.3,-9.4 1854.5,-68.5 3152.7,-426.8 993.6,-274.2 1675.6,-1199.6 1552.8,-2106.6 -48.3,-356.2 -366.9,-1518.5 -2440.2,-1518.5"
         style="fill:#3a3a3a;fill-opacity:1;fill-rule:nonzero;stroke:none"
         id="path2738" /><path
         d="m 15425,18473.9 c -274.4,-547.1 -1525.3,-3196.5 -957.6,-4953.4 497.3,-1538.9 1783.3,-3373.4 5086,-3373.4 h 10897 c 1199,0 1975.7,449.2 2077.6,1201.7 86.6,639.4 -371.3,1451.9 -1287.5,1704.8 -1526.2,421.2 -3215,415.5 -3231.9,415.3 l -186.6,-1.1 2.6,186.6 c 0.2,19 6.1,1934.3 -1364.9,3197.1 -885,815.2 -1474.3,1061.7 -3933.2,1243.5 -2817.5,208.3 -6413.4,352.3 -7101.5,378.9 M 30450.4,9781.2 h -10897 c -1466.9,0 -2691.2,353.6 -3639,1050.8 -838.1,616.5 -1442,1483.2 -1795.1,2576 -680.7,2106.3 964.6,5208.6 1035,5339.7 l 53.9,100.5 114.1,-4.3 c 40.7,-1.4 4111.2,-153.4 7231.2,-384 2550.4,-188.5 3210.1,-469.8 4154.1,-1339.3 1250.5,-1151.8 1447.3,-2748.1 1477.5,-3287.5 483.3,-9.4 1854.5,-68.5 3152.7,-426.8 993.6,-274.2 1675.6,-1199.6 1552.8,-2106.6 -48.3,-356.2 -366.9,-1518.5 -2440.2,-1518.5"
         style="fill:#000072;fill-opacity:1;fill-rule:nonzero;stroke:none"
         id="path2740" /><path
         d="m 33290.2,22078.6 c -3.6,-27.9 -7.7,-56.2 -11.9,-83.7 -12.8,-79.5 -27.9,-156.4 -47.1,-230 -431.3,-1660.2 -2473,-1459 -2511.8,377.8 -27.5,1307.1 -631.7,1722.9 -1198.8,1643.3 -87.8,-12.4 -174.7,-36.6 -258.4,-70.9 -187.5,-77.3 -359.5,-207.2 -489.8,-371.8 -109.8,-139.1 -189.8,-303.7 -225.1,-483.5 -65.8,-341.2 -38.8,-682.8 53.5,-1024.5 194.4,-719.9 680.6,-1440.2 1206.6,-2155.1 150.5,-204.9 304.1,-408.4 455.1,-612.4 171.5,-231 307.8,-466.5 411.6,-705.2 177,-406.6 260.7,-819.7 261.6,-1221.7 0.5,-352.6 -62.2,-696.1 -181.1,-1018.1 -569,-1546.8 -2424.1,-2601.9 -4710,-1797 l 242.4,2004.7 c 451.5,-303.3 907,-413.5 1310.4,-397.9 47.1,1.3 93.7,5 139.5,10 h 0.4 c 16.1,1.9 32.1,3.7 47.2,6.4 602.3,81.4 1057.4,439.6 1158.5,811.9 320.6,1173.6 -1314.5,3182.3 -1835,4311.1 -969.1,2102.9 -167.4,4069.2 1555.5,4747.4 234.6,92.4 486.6,161 753.3,202.7 143.6,22.8 292.2,37 444.6,43.4 111.1,4.6 219.5,4.6 324.7,-0.9 2295,-113 3287.1,-2479.8 3104.1,-3986"
         style="fill:#8e8fb3;fill-opacity:1;fill-rule:nonzero;stroke:none"
         id="path2742" /><path
         d="m 28392.8,14133.5 c -6.6,57.5 -14.1,114.9 -22.6,172 -37.4,250.7 -92.6,498.6 -166.2,741.4 -50.2,165.2 -109,328.1 -176.6,487.6 311,-197 709.9,-319.2 1119.3,-319.2 591.5,-0.1 1204.9,254.9 1607.9,907.5 -355.3,-965.8 -1211.9,-1739.9 -2361.8,-1989.3"
         style="fill:#797aa9;fill-opacity:1;fill-rule:nonzero;stroke:none"
         id="path2744" /><path
         d="m 29247.6,20483.5 c -241,375.4 -445.4,751.7 -577.2,1128.1 131.9,-376.3 336.3,-752.7 577.2,-1128.1 m -577.3,1128.2 c 0,0.1 0,0.2 -0.1,0.2 0.1,0 0.1,-0.1 0.1,-0.2 m -156.2,748 c -8.9,166.8 1.1,333.5 33.2,500.1 35.3,179.8 115.3,344.4 225.1,483.5 24.5,31 50.5,60.7 77.8,89.1 -27.2,-28.4 -53.1,-58.2 -77.6,-89.3 -110,-139.1 -189.9,-303.6 -224.9,-483.5 -32.3,-166.5 -42.5,-333.1 -33.6,-499.9"
         style="fill:#d9a6cf;fill-opacity:1;fill-rule:nonzero;stroke:none"
         id="path2746" /><path
         d="m 29807.3,19680.3 c -494.2,369.3 -1616.3,1327 -1970.3,2635.7 -267.5,989.1 343.9,1737.2 1065.6,2070.4 -0.3,-4.3 -0.4,-8.5 -0.4,-12.5 0,-12.7 1.5,-23.5 4.8,-32.1 2.7,-7.1 6.6,-12.7 12,-16.6 1.4,-1.1 3.9,-1.6 7.1,-1.6 18.9,0 65.3,16.4 111.4,32.8 46,16.3 91.8,32.7 109.3,32.7 1.9,0 3.5,-0.2 4.7,-0.7 1.7,-0.6 2.6,-1.7 2.6,-3.3 0,-0.1 0,-0.2 0,-0.3 -1.6,-27 -3.3,-60.5 -3.3,-100.3 0,-71.6 5.5,-163.6 27,-275 16.7,-86.6 43.2,-184.8 84.4,-294.3 -152.5,-62.8 -294.4,-160 -412,-282.8 -27.3,-28.4 -53.3,-58.1 -77.8,-89.1 -109.8,-139.1 -189.8,-303.7 -225.1,-483.5 -32.1,-166.6 -42.1,-333.3 -33.2,-500.1 9.3,-174.7 39.4,-349.6 86.7,-524.5 20.1,-74.4 43.4,-148.8 69.4,-223.3 0.1,0 0.1,-0.1 0.1,-0.2 l 0.1,-0.1 c 131.8,-376.4 336.2,-752.7 577.2,-1128.1 172.3,-268.4 363.1,-536.2 559.7,-803.2"
         style="fill:#797aa9;fill-opacity:1;fill-rule:nonzero;stroke:none"
         id="path2748" /><path
         d="m 31969.9,20633.4 c -98.3,0 -196.3,12.9 -291.7,38.5 72.7,-19.5 146.7,-31.6 221.4,-36.3 23.5,-1.4 46.9,-2.2 70.3,-2.2 245.2,0 492.5,80.1 706.8,242.5 -214.3,-162.4 -461.6,-242.5 -706.8,-242.5"
         style="fill:#d9a6cf;fill-opacity:1;fill-rule:nonzero;stroke:none"
         id="path2750" /><path
         d="m 31899.6,20635.6 c -74.7,4.7 -148.7,16.8 -221.4,36.3 -197.9,53.2 -384.5,161.3 -539.6,322.9 212,-220.9 483,-341.7 761,-359.2 m -1298,2322.4 c -0.1,0.1 -0.1,0.1 -0.1,0.2 l 0.1,-0.2 m -0.2,0.6 c -42.8,137.5 -95.7,255.9 -156.4,356.9 60.8,-101 113.6,-219.4 156.4,-356.9"
         style="fill:#797aa9;fill-opacity:1;fill-rule:nonzero;stroke:none"
         id="path2752" /><path
         d="m 28919,24325.4 c 10,-7.3 64.5,11.9 118.6,31 59,21 117.4,41.9 116.5,28.4 -6.7,-113.3 -15.5,-341.4 108.1,-669.7 1.3,0.7 2.2,0.8 3.5,1.1 16.4,7.2 32.5,13.4 49.1,18.8 14.4,5.4 28.9,9.9 43.4,14.4 11.5,3.5 23.4,7.1 35.3,10.3 10.7,2.8 21.8,5.8 32.9,8.3 31.2,7.6 62.7,13.4 94.4,17.8 567.1,79.6 1171.2,-335.8 1198.5,-1643.1 38.9,-1836.7 2080.6,-2038.2 2512.1,-377.8 19,73.7 34.2,150.4 47.1,230 -309.1,-334.9 -1119.9,-961.4 -1717.9,-500.7 -841.3,648.5 -127.8,2120.2 -1221,2907.1 -347.7,250 -920.4,223.8 -1437,-14.8 -2,-29.6 2.5,-51.1 16.4,-61.1"
         style="fill:#686868;fill-opacity:1;fill-rule:nonzero;stroke:none"
         id="path2754" /><path
         d="m 29262.2,23715.1 c 83.9,34.4 170.6,58.7 258.6,70.7 567.1,79.6 1171.2,-335.8 1198.5,-1643.1 38.9,-1836.7 2080.6,-2038.2 2512.1,-377.8 19,73.7 34.2,150.4 47.1,230 3.7,27.6 7.8,55.8 11.5,83.9 183.2,1506 -808.8,3873 -3103.9,3985.6 -105.2,5.7 -213.6,5.8 -324.8,1.2 -152.2,-6.6 -300.8,-20.8 -444.5,-43.5 -128.3,-117.4 -426.4,-537.6 -458.8,-926.6 -2,-23.8 49.6,-3.5 101.2,16.7 52.8,20.6 105.5,41.3 100.8,15 -31,-175 -331,-736.5 -241,-802 9.9,-7.2 64.4,12 118.5,31.2 59,20.9 117.5,41.8 116.7,28.4 -6.5,-113.3 -15.7,-341.2 108,-669.7"
         style="fill:#ffffff;fill-opacity:1;fill-rule:nonzero;stroke:none"
         id="path2756" /><path
         d="m 30042.3,23704.5 c -123.8,62.2 -255.8,90.7 -388.5,90.7 -44.4,0 -88.8,-3.2 -133,-9.4 -31.7,-4.4 -63.2,-10.2 -94.4,-17.8 -10.7,-2.4 -21.8,-5.4 -32.9,-8.3 -11.9,-3.2 -23.8,-6.8 -35.3,-10.3 -14.5,-4.5 -29,-9 -43.4,-14.4 -16.6,-5.9 -32.6,-12.1 -49.1,-18.8 -0.6,-0.1 -1.1,-0.2 -1.6,-0.4 v 0 c 0.5,0.2 1,0.3 1.6,0.4 4.4,1.9 8.8,3.8 13.2,5.6 5.4,2.1 10.9,4.2 16.4,6.3 3.4,1.3 6.9,2.5 10.4,3.8 3,1 6.1,2.1 9.1,3.1 14.4,5.4 28.9,9.9 43.4,14.4 11.5,3.5 23.4,7.1 35.3,10.3 10.7,2.8 21.8,5.8 32.9,8.3 31.2,7.6 62.7,13.4 94.4,17.8 v 0 c 44.2,6.2 88.6,9.4 133,9.4 132.7,0 264.7,-28.5 388.5,-90.7 v 0"
         style="fill:#d9a6cf;fill-opacity:1;fill-rule:nonzero;stroke:none"
         id="path2758" /><path
         d="m 29295.3,23728.1 c 3.2,1.2 6.4,2.4 9.6,3.5 0.2,0.1 0.5,0.2 0.8,0.3 -3.5,-1.3 -7,-2.5 -10.4,-3.8"
         style="fill:#797aa9;fill-opacity:1;fill-rule:nonzero;stroke:none"
         id="path2760" /><path
         d="m 29264.1,23715.8 c 4.9,2 9.8,4 14.8,6 -4.4,-1.8 -8.8,-3.7 -13.2,-5.6 -0.6,-0.1 -1.1,-0.2 -1.6,-0.4 m 40.8,15.8 c 70.5,25.8 142.7,44.3 215.9,54.2 -31.7,-4.4 -63.2,-10.2 -94.4,-17.8 -11.1,-2.5 -22.2,-5.5 -32.9,-8.3 -11.9,-3.2 -23.8,-6.8 -35.3,-10.3 -14.5,-4.5 -29,-9 -43.4,-14.4 -3,-1 -6.1,-2.1 -9.1,-3.1 -0.3,-0.1 -0.6,-0.2 -0.8,-0.3"
         style="fill:#595969;fill-opacity:1;fill-rule:nonzero;stroke:none"
         id="path2762" /><path
         d="m 29177.8,24009.5 c -21.5,111.4 -27,203.4 -27,275 0,39.8 1.7,73.3 3.3,100.3 0,0.1 0,0.2 0,0.3 0,1.6 -0.9,2.7 -2.6,3.3 1.9,-0.6 2.8,-1.8 2.7,-3.6 -4.4,-75.5 -9.9,-202 23.6,-375.3"
         style="fill:#595969;fill-opacity:1;fill-rule:nonzero;stroke:none"
         id="path2764" /><path
         d="m 28907,24341.8 c -3.3,8.6 -4.8,19.4 -4.8,32.1 0,4 0.1,8.2 0.4,12.6 v 0 c -1.2,-18.2 0.1,-33.4 4.4,-44.7"
         style="fill:#595969;fill-opacity:1;fill-rule:nonzero;stroke:none"
         id="path2766" /><path
         d="m 31969.9,20633.4 c -621.6,0 -1229.6,515.2 -1250.6,1509.3 -18.8,900.7 -311.4,1378 -677,1561.8 -123.8,62.2 -255.8,90.7 -388.5,90.7 -44.4,0 -88.8,-3.2 -133,-9.4 v 0 c -73.2,-9.9 -145.4,-28.4 -215.9,-54.2 -3.2,-1.1 -6.4,-2.3 -9.6,-3.5 -5.5,-2.1 -11,-4.2 -16.4,-6.3 -5,-2 -9.9,-4 -14.8,-6 v 0 c -0.6,-0.1 -1.2,-0.4 -1.9,-0.7 v 0 0 c -41.2,109.5 -67.7,207.8 -84.4,294.4 v 0 c -33.5,173.3 -28,299.8 -23.6,375.3 0.1,1.8 -0.8,3 -2.7,3.6 v 0 c -1.2,0.5 -2.8,0.7 -4.8,0.7 -17.5,0 -63.1,-16.3 -109.1,-32.7 -46,-16.3 -92.4,-32.6 -111.4,-32.6 -3.3,0 -5.7,0.5 -7.2,1.6 -5.4,3.8 -9.3,9.4 -12,16.4 v 0 c -4.3,11.3 -5.6,26.5 -4.3,44.7 269,124.3 553.3,191 813.1,191 239,0 457.2,-56.4 623.8,-176.2 1093.2,-786.9 379.7,-2258.6 1221,-2907.1 150.9,-116.2 315.1,-163.3 481.6,-163.3 493.4,0.1 1005.1,413.6 1236.3,664 -12.9,-79.6 -28.1,-156.3 -47.1,-230 -197.9,-761.7 -734.6,-1131.5 -1261.5,-1131.5"
         style="fill:#d9d9ea;fill-opacity:1;fill-rule:nonzero;stroke:none"
         id="path2768" /><path
         d="m 27588.6,13866.4 c -521.2,0 -1062.7,96 -1604.5,286.8 -95.3,33.6 -145.3,138.1 -111.7,233.4 33.6,95.3 137.9,145.4 233.3,111.7 1625.6,-572.7 3234.3,-185.8 4098.3,985.7 765.8,1038.4 732.2,2369.8 -87.8,3474.4 -56.9,76.6 -114.1,153.3 -171.4,230 -895.6,1199.9 -1821.8,2440.7 -1576.7,3705.9 123.6,638.6 753.5,1133.8 1377.7,1080.1 262.7,-22.4 1122.6,-220.4 1156.5,-1828.1 18.9,-896.4 528,-1273.2 958.1,-1323.6 452.1,-53 997.4,232 1193.8,988.3 199.8,769.4 4.1,2041 -756.4,2982.8 -424.3,525.4 -1189.5,1140.8 -2429,1088.8 -1106.1,-46.4 -2038.8,-561.4 -2559.1,-1412.8 -567.4,-928.7 -580.4,-2139.3 -35.5,-3321.5 144.5,-313.5 384.5,-708.4 638.8,-1126.5 682.6,-1122.7 1456.3,-2395.2 1206.9,-3309 -95.6,-350 -433.5,-671.2 -882,-838.4 -653.7,-243.5 -1401.9,-132.8 -2052.8,303.8 -83.9,56.3 -106.3,169.9 -50,253.8 56.3,83.9 170,106.3 253.8,50 551.9,-370.2 1179.2,-466.8 1721.2,-264.7 334.9,124.8 592.7,357.1 656.8,591.9 208,761.8 -554.2,2015.3 -1166.6,3022.5 -259.8,427.3 -505.2,830.9 -658.5,1163.5 -596.7,1294.9 -576.4,2630.9 55.7,3665.3 585,957.4 1625.9,1536.1 2856,1587.7 1392.3,58.6 2251.8,-633.7 2729,-1224.5 750.2,-929.1 1089.9,-2288 825.8,-3304.7 -251.7,-969.3 -979.9,-1331 -1590.4,-1259.7 -621.7,72.8 -1259,620.2 -1281.4,1679.3 -18.5,879 -325.8,1429 -821.9,1471.3 -438.2,37.5 -899.2,-329.6 -987.4,-785.1 -214.2,-1106.5 662.8,-2281.4 1510.8,-3417.6 57.5,-76.9 114.9,-153.9 171.9,-230.7 905.7,-1220 940.4,-2754.6 88.5,-3909.7 -449.4,-609.4 -1088.2,-1044.3 -1847.4,-1257.6 -339.3,-95.3 -695.9,-142.8 -1062.4,-142.8"
         style="fill:#000072;fill-opacity:1;fill-rule:nonzero;stroke:none"
         id="path2770" /><path
         d="m 30901.7,10206.3 c -532.3,-465.1 -1509.3,-80.9 -2235.6,250.2 -7.3,-4.1 -14.6,-8.7 -21.9,-12.8 -778.5,-452.3 -2150.1,-718.1 -3109.7,-350.3 -2154.6,826 -1380.8,3890.3 -900.1,4390.7 l 286.3,2655 84.7,787.1 c 3418.3,-1020.8 3232.6,-4378.4 3232.6,-4378.4 0,0 71.8,18.3 196.7,32.5 354.4,41.6 1135.6,54.9 1918.2,-452.3 364.5,-236.5 617.4,-504.5 782.5,-782.1 v -0.5 c 500.4,-839.7 197.2,-1763.1 -233.7,-2139.1"
         style="fill:#8e8fb3;fill-opacity:1;fill-rule:nonzero;stroke:none"
         id="path2772" /><path
         d="m 26576.4,10103.4 c -299.6,0 -597.8,36.1 -874.1,125 -304.4,100.1 -587.2,265.2 -805.7,491.4 -219.6,225.8 -376.6,509 -473.9,815.9 -96.9,307.4 -141.3,636.2 -145.9,967.8 -4.9,332 29.3,667.5 94.1,996.7 19.5,95.6 41.3,190.9 66.5,285 107.3,86.3 209.7,178.7 307.3,276.3 236,239.8 437.1,518.2 584.4,825.2 18.2,38.5 37.5,76.5 54.6,115.4 l 45.1,119.6 c 10,27.3 20.7,54.3 30.6,81.6 -7.8,-116.4 -19.1,-237.8 -34.6,-364.3 -46.7,-380.5 -697.1,-1267.8 -778,-1739.4 -357.7,-2084.8 1192.6,-2460.3 2186.8,-2460.3 187.9,0 355.8,13.4 487.4,31.3 1033.1,139.8 1854.2,1166.2 1854.2,1166.2 0,0 2.1,-25.9 8.6,-70.6 -34.3,-307.3 -145.8,-606.6 -270,-858.4 -52.4,-106.3 -107.1,-204.1 -159.2,-290.6 -4.2,1.9 -8.4,3.8 -12.6,5.8 -23.8,10.6 -49.8,16.2 -76.2,16.2 -31.6,0 -63.7,-8.1 -92.6,-25.1 l -0.5,-0.3 c -278.8,-164.2 -594.7,-282 -916.3,-367.2 -322.7,-83.8 -655.5,-133.9 -986.8,-142.1 -31.1,-0.7 -62.1,-1.1 -93.2,-1.1"
         style="fill:#797aa9;fill-opacity:1;fill-rule:nonzero;stroke:none"
         id="path2774" /><path
         d="m 30901.7,10206.3 c -532.3,-465.1 -1509.3,-80.9 -2235.6,250.2 -7.3,-4.1 -14.6,-8.7 -21.9,-12.8 187.5,279 480.2,789 539.7,1323.2 25.1,-174.3 117.5,-635.8 413,-956.4 473.3,-512.2 1877.4,36.1 1538.5,1534.9 11.5,-19.2 22.4,-38.8 33.4,-58.1 21.1,-38.8 41.2,-77.7 59,-117 9.2,-19.2 17.4,-38.5 26.1,-58.1 l 0.4,-0.9 c 7.8,-19.3 15.6,-38.9 22.9,-58.1 7.8,-19.7 14.6,-38.9 21.5,-58.6 v -0.9 c 6.9,-19.2 12.8,-38.9 18.8,-58.1 5.9,-19.2 11.4,-37.9 16.4,-57.1 0.5,-1 0.5,-2.3 0.9,-3.2 5.1,-18.8 9.7,-38 14.2,-57.2 3.7,-15.6 6.9,-31.1 10.1,-46.7 5,-23.3 9.1,-46.6 12.8,-69.9 2.7,-16.5 5.5,-32.5 7.3,-49 81.4,-609.6 -164.2,-1172.7 -477.5,-1446.2"
         style="fill:#e8e8e8;fill-opacity:1;fill-rule:nonzero;stroke:none"
         id="path2776" /><path
         d="m 30901.7,10206.3 c -532.3,-465.1 -1509.3,-80.9 -2235.6,250.2 -7.3,-4.1 -14.6,-8.7 -21.9,-12.8 271.2,403.9 762.4,1289.3 450,2034.4 -295.4,703.9 -528.7,920.2 -659.5,1102.2 354.4,41.6 1135.6,54.9 1918.2,-452.3 1469,-952.2 1121.9,-2421.3 548.8,-2921.7"
         style="fill:#ffffff;fill-opacity:1;fill-rule:nonzero;stroke:none"
         id="path2778" /><path
         d="m 28913.8,10907.8 c 124.3,252 235.8,551.5 270.1,859.1 0,-0.1 0,-0.3 0,-0.4 -34.3,-307.5 -145.8,-606.8 -270.1,-858.7"
         style="fill:#c5c5d6;fill-opacity:1;fill-rule:nonzero;stroke:none"
         id="path2780" /><path
         d="m 30246.7,10174 c -46.2,0 -93.1,2.4 -140.3,6.8 -150.7,14.4 -304.4,47.1 -457,90.9 -301.6,86.5 -598.8,211.2 -894.8,345.5 52.1,86.4 106.8,184.3 159.2,290.6 124.3,251.9 235.8,551.2 270.1,858.7 25.2,-174.5 117.7,-635.6 413,-956 115.7,-125.3 287.2,-187.1 475.2,-187.1 465.6,0 1032.7,379 1107.3,1112.9 3.7,-18.2 7.2,-36.4 10.3,-54.7 49.3,-295.2 14.6,-605.7 -99,-882.3 -28.4,-69 -62.3,-135.1 -99.5,-198.6 -38.6,-62.4 -81.2,-121.5 -128,-174.8 l -35.9,-38.6 -37.6,-35.5 c -25.2,-22.2 -49.6,-41.6 -77,-59.1 -53.9,-35.2 -113.8,-62.1 -178.6,-81.2 -89,-26.1 -186.5,-37.5 -287.4,-37.5"
         style="fill:#d9d9ea;fill-opacity:1;fill-rule:nonzero;stroke:none"
         id="path2782" /><path
         d="m 24700.4,14420.6 c -43.5,-56.5 -81.3,-129.3 -115,-202.9 -33.4,-74.5 -62.3,-152.4 -88,-231.6 -52.6,-158.1 -93,-321.5 -126.5,-485.9 -64.8,-329.2 -99,-664.7 -94.1,-996.7 4.6,-331.6 49,-660.4 145.9,-967.8 97.3,-306.9 254.3,-590.1 473.9,-815.9 218.5,-226.2 501.3,-391.3 805.7,-491.4 304.9,-98.1 636.6,-131.9 967.3,-123.9 331.3,8.2 664.1,58.3 986.8,142.1 321.6,85.2 637.5,203 916.3,367.2 l 0.5,0.3 c 53.1,31.2 116.5,32.2 168.8,8.9 300.1,-136.5 601.5,-263.6 907.4,-351.3 152.6,-43.8 306.3,-76.5 457,-90.9 150.4,-14.1 298,-7.3 427.7,30.7 64.8,19.1 124.7,46 178.6,81.2 27.4,17.5 51.8,36.9 77,59.1 l 37.6,35.5 35.9,38.6 c 46.8,53.3 89.4,112.4 128,174.8 37.2,63.5 71.1,129.6 99.5,198.6 113.6,276.6 148.3,587.1 99,882.3 -50.2,295.7 -185.2,574.4 -381.4,809 -194.9,235.2 -448.4,430.4 -721.4,583.4 -273.5,151.8 -573.3,255 -882.4,305.3 -154.5,25.1 -311.4,37.3 -467.8,36.3 -78.2,-0.5 -156.3,-4.4 -233.6,-11.9 -38.6,-3.6 -76.9,-8.3 -114.7,-14 l -55.8,-9.2 c -17.4,-3.1 -38.5,-7.6 -49.6,-10.1 l -0.6,-0.2 c -99.3,-23.3 -198.8,38.3 -222.1,137.6 -3.9,16.5 -5.3,33.9 -4.7,50 2.1,49.4 1.7,111.5 0.2,168.3 -1.6,58.1 -4.6,116.6 -8.7,175.1 -8.5,117 -21.6,234.1 -38.8,350.6 -34.8,233 -86.1,463.7 -154.4,688.9 -136.9,449.9 -341.4,878.8 -616.1,1257 -273.5,378.9 -616.4,705.5 -1006.4,964.7 -389.8,260.2 -825.3,452 -1278.6,588.3 l -0.7,0.2 c -96.7,29.2 -151.6,131.2 -122.5,227.9 29.1,96.8 131.1,151.6 227.9,122.5 482.6,-145 952.3,-351.1 1376.7,-634.3 424.5,-282 801.1,-640.5 1100,-1054.8 300.4,-413.7 522.3,-880.1 669.8,-1365.3 73.6,-242.8 128.8,-490.7 166.2,-741.4 18.6,-125.3 32.7,-251.4 41.8,-378.3 4.5,-63.4 7.8,-127.1 9.6,-191.1 1.5,-65.4 2.4,-125.7 -0.7,-198.5 l -227.5,187.5 c 29.6,7.1 49.4,10.9 73.1,15.3 l 67.6,11.1 c 44.8,6.7 89.3,12.2 133.7,16.4 88.9,8.6 177.6,13 266.3,13.6 177.3,1.2 354.4,-12.6 529.3,-41.1 349.6,-56.7 690.6,-174.1 1000.6,-346.3 77.4,-43.2 153.7,-88.7 226.6,-138.6 36.3,-25.2 73.1,-49.6 109.1,-75.4 l 105.7,-81 c 138.6,-111.4 268.9,-235.8 384.5,-374.9 231.9,-276.8 399.5,-618.3 460.6,-982 60.5,-363.4 18.5,-741.1 -121.5,-1082.4 -35.2,-85.3 -77.3,-168.1 -124.7,-248.5 -49.1,-79.6 -104.2,-156.4 -167.6,-228.5 l -49.4,-52.9 -53.4,-50.5 c -37.2,-33.1 -78.3,-65.6 -121.2,-93.1 -85.9,-56.2 -179.9,-97.8 -275.2,-125.7 -191.3,-55.7 -383.5,-60.7 -564.7,-44.1 -181.7,17.3 -355.7,55.3 -523.8,103.3 -336.2,96.6 -651.5,230.7 -958.7,370.2 l 169.2,9.2 c -320.4,-188.2 -662,-313.8 -1010.6,-406.6 -349.2,-90.6 -707.5,-144.8 -1070.4,-153.9 -362.2,-8.4 -731.6,27 -1088.9,141.6 -178.9,58.2 -348.7,134.4 -511.7,229.8 -161.6,96.6 -313.8,212.2 -447.4,347.1 -134.6,133.9 -250.6,286.2 -346.4,448.7 -95.3,163.1 -169.7,336.4 -226.5,513.5 -113.6,355.1 -151.4,724.5 -142.8,1086.4 10,362.5 65.7,720.2 164.5,1065.6 49.1,172.8 109.5,342.4 184.6,507.2 38.4,82.1 80.2,163 128,242 48.2,79 101.3,156.1 176.5,226.8 36.8,34.6 94.7,32.8 129.4,-4 31.2,-33.2 32.8,-83.5 5.9,-118.5 l -3.3,-4.3"
         style="fill:#000072;fill-opacity:1;fill-rule:nonzero;stroke:none"
         id="path2784" /><path
         d="m 25361.7,15528.4 c -97.1,-438.5 -295.1,-795.8 -517,-1078.2 -447.8,-570 -991.3,-832 -991.3,-832 0,0 -73.3,-1093.2 -886.8,-1701.6 -440.3,-329.1 -1735.1,-507.3 -2224.8,514.4 -247.9,517.5 -296.4,1586.9 161.9,2433.9 293.4,542.2 794.6,993.1 1584.3,1149.7 l -412.5,2100.3 c 2488.6,530.8 3640.9,-984.2 3286.2,-2586.5"
         style="fill:#8e8fb3;fill-opacity:1;fill-rule:nonzero;stroke:none"
         id="path2786" /><path
         d="m 23962.1,13892.9 c -65.5,14.2 -119.4,47.9 -173.2,95.6 -85.2,75.6 -170.1,186.4 -300,311.3 179.2,200.4 697.8,318.1 1226.5,651.2 145.4,91.7 292.2,245.5 416.3,429.3 l -7.3,-26.8 c -11.5,-35.1 -25.8,-69.4 -38.5,-104.1 l -38.9,-104 c -14.9,-33.9 -32,-66.9 -47.8,-100.4 -128.2,-267.2 -304.5,-512.6 -515,-726.6 -106.4,-106.1 -219.4,-206 -339,-297.4 -60.2,-44.2 -120.7,-87.8 -183.1,-128.1"
         style="fill:#797aa9;fill-opacity:1;fill-rule:nonzero;stroke:none"
         id="path2788" /><path
         d="m 24395.7,13987.4 c -1.8,-1.9 -3.2,-3.2 -5.1,-4.6 -15.5,-12.8 -30.6,-25.6 -45.7,-37.5 -19.6,-16 -38.4,-31.1 -57.6,-45.7 -17.4,-13.8 -34.8,-26.6 -51.7,-39.4 -16.9,-12.8 -33.4,-24.7 -49.8,-36.1 -13.8,-10.1 -27,-19.2 -39.8,-28.4 -2.3,-1.8 -5.1,-3.2 -7.4,-5 -15.5,-10.5 -30.6,-20.6 -44.8,-30.2 -144.5,-96 -240.5,-142.2 -240.5,-142.2 0,0 -73.2,-1093.1 -886.9,-1701.9 -440,-328.8 -1734.8,-507.2 -2224.6,514.6 -4.6,9.1 -8.7,18.7 -12.8,28.3 -4.6,9.6 -8.7,19.2 -12.8,29.3 -18.8,43.9 -35.7,91 -51.3,141.3 -4.5,14.6 -9.1,29.7 -13.7,44.8 -7.7,27.9 -15.5,57.2 -22.4,87.4 -5,20.6 -9.6,41.6 -14.2,62.6 -1.8,6.9 -3.2,13.8 -4.1,21.1 -4.5,21 -8.2,42.5 -12.3,64.5 v 1.4 c -4.6,26.5 -9.2,53.5 -12.8,80.9 8.7,-21 17.8,-41.2 27,-60.8 489.8,-1021.8 1784.6,-843.4 2225,-514.1 813.2,608.3 520.1,1505.6 592.8,1778.2 10.1,37.5 29.7,71.4 59,103.4 339.8,-326.6 370.9,-556.2 906.5,-311.9"
         style="fill:#e8e8e8;fill-opacity:1;fill-rule:nonzero;stroke:none"
         id="path2790" /><path
         d="m 24396.1,13987.5 c -297.1,-250.9 -542.7,-369.3 -542.7,-369.3 0,0 -73.3,-1093.2 -886.8,-1701.6 -440.3,-329.1 -1735.1,-507.3 -2224.8,514.4 -247.9,517.5 -296.4,1586.9 161.9,2433.9 514.9,216.6 1462.6,236.6 2308.7,-340.6 627.2,-427.7 530.3,-835.3 1183.7,-536.8"
         style="fill:#ffffff;fill-opacity:1;fill-rule:nonzero;stroke:none"
         id="path2792" /><path
         d="m 23961.9,13892.8 c -65.4,14.3 -119.3,48 -173,95.7 53.8,-47.7 107.7,-81.4 173.2,-95.6 -0.1,-0.1 -0.1,-0.1 -0.2,-0.1"
         style="fill:#c5c5d6;fill-opacity:1;fill-rule:nonzero;stroke:none"
         id="path2794" /><path
         d="m 22049.5,11844.1 c -141.2,0 -281.3,17.4 -413.2,55.7 -160.3,44.3 -306.3,122.1 -429.3,225.4 -61.3,52.1 -115.5,112 -164.8,176.2 -49,64.6 -89.4,136.3 -126.3,210.2 -1.4,3 -2.8,6 -4.1,9 284.6,-263 654.8,-360.6 1003.6,-360.6 377.9,0 730.6,114.6 922,257.7 813.2,608.3 520.1,1505.6 592.8,1778.2 10.1,37.5 29.7,71.4 59,103.4 129.8,-124.7 214.6,-235.4 299.7,-310.8 53.7,-47.7 107.6,-81.4 173,-95.7 -0.4,-0.3 -0.8,-0.6 -1.3,-0.9 -31.3,-20.2 -63.2,-39.6 -94.9,-58.6 -30.9,-18 -65.9,-37.7 -91.7,-50.6 -56,-28.1 -96.9,-83.7 -102.9,-150.7 l -0.1,-1.8 -0.1,-0.3 c -1.4,-15.7 -3.7,-39.3 -6.6,-59.9 -2.5,-21.3 -5.7,-42.9 -9.4,-64.6 -6.3,-43.3 -15.6,-86.9 -24.1,-130.2 -19.5,-86.5 -40.6,-173 -68.6,-257.1 -53.6,-169.1 -123.6,-332.1 -210.3,-483.8 -22.9,-37.1 -43.5,-75.9 -68.1,-111.6 l -74.7,-106.6 c -54.7,-66.5 -107.8,-134.9 -170.6,-193.3 l -45.3,-45.8 c -15.3,-14.9 -32.7,-27.5 -48.9,-41.4 -32.5,-26.1 -66.7,-56.9 -97.6,-79.6 -59.1,-41.8 -132.6,-79 -210.1,-108.5 -156.1,-59.3 -328.1,-92.6 -498.6,-101.2 -29.5,-1.5 -59,-2.2 -88.5,-2.2"
         style="fill:#d9d9ea;fill-opacity:1;fill-rule:nonzero;stroke:none"
         id="path2796" /><path
         d="m 22037.3,18293.7 c 321.5,68.5 651.5,110 985.5,110.8 l 125.2,-0.4 125.6,-7 c 83.7,-2.6 167.4,-15.5 251,-24.2 166.7,-26 333.9,-57 496.2,-111.5 325.6,-101.8 635.7,-273.6 892.3,-509.6 254.9,-237.9 449.8,-539.8 563.7,-867.5 111.3,-328.2 151.4,-677.7 120.1,-1017.4 -2.4,-42.6 -7.5,-84.9 -13.7,-127 -6.2,-42.1 -10,-84.7 -19,-126.2 l -24.2,-125.1 -33.4,-123.5 -33.8,-123.3 c -13.2,-40.5 -29.3,-80 -44,-120.1 l -45.1,-119.6 c -17.1,-38.9 -36.4,-76.9 -54.6,-115.4 -147.3,-307 -348.4,-585.4 -584.4,-825.2 -119.1,-119.1 -245.2,-230.4 -378.8,-332.3 -67.6,-49.9 -135.9,-99 -206.9,-144.7 -35.5,-23 -71.7,-45 -108.4,-66.9 -37.9,-21.9 -72.1,-41.7 -117.6,-64.4 l 103,152.5 v -0.6 c -2.6,-31.4 -5.2,-55 -8.7,-81.2 -3.1,-25.7 -6.8,-50.9 -11,-75.9 -7.5,-50.4 -17.8,-99.5 -27.7,-149 -22,-98.1 -46,-195.8 -77.5,-291.4 -60.9,-191.7 -140.7,-378.5 -241.9,-555.5 -26.7,-43.5 -50.9,-88.4 -79.8,-130.7 l -88.4,-125.9 c -64.9,-79.9 -128.9,-160.9 -204.5,-232.1 l -54.9,-55 c -18.6,-18 -39.4,-33.7 -59.1,-50.5 -41.1,-33.3 -77.5,-66.1 -122.7,-99.4 -95.7,-67.4 -193.4,-114.6 -292.4,-152.8 -198.1,-75 -402.2,-115.6 -609.4,-127.5 -206.9,-11.5 -417.9,5.9 -622.8,63.7 -204.8,56 -402.8,155.4 -570.8,294.4 -83.9,69.7 -158.5,149.7 -225.2,235 -66.4,85.8 -120.6,178.9 -168.9,273.9 -93.1,198 -142.3,398.7 -172.3,599.1 -29.7,200.6 -39.8,401.6 -32.3,601.8 18.3,399.8 102,797.6 263,1168.7 81.7,184.8 184.5,361.4 307.4,523.6 124.7,160.7 268.4,307.9 431.3,429.6 162.1,122.2 340,222.8 527.1,294.2 187.5,70.7 381.1,117.9 575.8,142.1 50.2,6.2 96,-29.5 102.2,-79.7 5.6,-44.9 -22.2,-86.2 -64,-99 l -2.7,-0.8 c -175.9,-53.9 -346.1,-116.8 -505.2,-199.2 l -117.3,-64.2 -111.8,-72.3 c -72.2,-50.9 -143.7,-102.7 -208.5,-162.1 -263.7,-232.2 -464,-528.7 -596.9,-855.7 -135.3,-326.3 -204.7,-683.1 -214.6,-1039.4 -6,-178.1 2,-356.8 27.7,-530.8 24.6,-173.7 69.5,-343.9 136.7,-489.5 36.9,-73.9 77.3,-145.6 126.3,-210.2 49.3,-64.2 103.5,-124.1 164.8,-176.2 123,-103.3 269,-181.1 429.3,-225.4 159.4,-46.3 330.9,-62.1 501.7,-53.5 170.5,8.6 342.5,41.9 498.6,101.2 77.5,29.5 151,66.7 210.1,108.5 30.9,22.7 65.1,53.5 97.6,79.6 16.2,13.9 33.6,26.5 48.9,41.4 l 45.3,45.8 c 62.8,58.4 115.9,126.8 170.6,193.3 l 74.7,106.6 c 24.6,35.7 45.2,74.5 68.1,111.6 86.7,151.7 156.7,314.7 210.3,483.8 28,84.1 49.1,170.6 68.6,257.1 8.5,43.3 17.8,86.9 24.1,130.2 3.7,21.7 6.9,43.3 9.4,64.6 2.9,20.6 5.2,44.2 6.6,59.9 l 0.1,0.3 0.1,1.8 c 6,67 46.9,122.6 102.9,150.7 25.8,12.9 60.8,32.6 91.7,50.6 31.7,19 63.6,38.4 94.9,58.6 63,40.6 124,84.5 184.6,129.1 119.6,91.4 232.6,191.3 339,297.4 210.5,214 386.8,459.4 515,726.6 15.8,33.5 32.9,66.5 47.8,100.4 l 38.9,104 c 12.7,34.7 27,69 38.5,104.1 l 29,107.2 29.4,107 21,109.5 c 8.2,36.3 11.1,73.3 16.6,110 5.5,36.7 9.9,73.4 11.9,110.3 27.5,294.7 -8.3,591.8 -101.1,866.7 -95.7,274.2 -256.3,522.2 -467.1,719.6 -213,195.2 -472.3,340.8 -754.5,429 -139.9,47.5 -287.3,74.3 -434.9,97.7 -74.7,7.4 -148.7,19.3 -224.4,21.5 l -112.9,6.4 -113.7,0.2 c -303.2,-0.6 -608.8,-38.5 -910.1,-102.8 -98.8,-21.1 -196,42 -217.1,140.8 -21.1,98.8 41.9,196 140.7,217.1 h 0.1"
         style="fill:#000072;fill-opacity:1;fill-rule:nonzero;stroke:none"
         id="path2798" /><path
         d="m 24074,20245.9 c 96.6,-3547 -4011.9,-4525.6 -5925.9,-5166.6 l -2477.9,-316.5 c -1301.3,90.2 -3525.7,86.1 -5151.7,1005.7 -392.7,222 -750.45,497.8 -1052.14,841.8 -214.69,245.1 -400.91,525 -551.11,844.8 -101.38,216.7 -186.22,451.6 -252.06,706.8 -25.05,96.9 -47.38,196.5 -66.68,299.3 -56.94,300.9 -88.73,627.6 -92.46,981.5 -3.19,306.7 96.13,1370 282.08,2423.4 63.17,358.7 136.44,716.3 219.23,1042.3 -701.92,1931.6 -1204.32,4413.1 -641.38,5362.2 366.08,617.1 1623.16,205.2 3616.02,-1104.3 1210.8,728.8 2965,986.5 3235,1019.9 269.6,35.5 2032.3,227.1 3387.1,-174 1599.7,1768.3 2712.9,2483 3222.3,1977.7 783.5,-777.1 920.9,-3305.3 727.1,-5351.3 637.7,-1160.4 1257,-2829.4 1356.3,-3228.4 103.6,-416.2 156.8,-803.6 166.2,-1164.3"
         style="fill:#8e8fb3;fill-opacity:1;fill-rule:nonzero;stroke:none"
         id="path2800" /><path
         d="m 12043.8,26666.5 c -1383.3,909 -2412.14,1385.5 -3034.5,1385.5 -274.22,0 -469.51,-92.5 -581.48,-281.3 -23.31,-39.2 -44.8,-81.2 -64.52,-125.6 25.04,150.8 64.4,295.4 121.35,423.9 7.68,20.2 17.97,38 27.74,56.2 l 14.51,27.3 c 4.79,9.4 9.63,18.8 14.24,24.4 9.58,12.9 17.12,27.9 28.3,38.6 l 15.06,17.8 c 5.37,5.5 11.54,10.1 17.08,15.4 45.23,40.6 103.12,69.8 175.23,86 50.97,11.7 106.55,16.8 164.94,16.8 107.41,0 224.28,-17.3 339.04,-42.5 178.96,-40.3 359.27,-102.6 537.16,-173.5 356.25,-143.4 703.95,-325 1044.95,-518.3 341,-194.5 675.3,-404.1 1005.4,-620.9 l 105.8,-69.5 110.8,65.2 c 234,137.9 481.9,257.1 736.9,362.8 255.2,105.5 519.3,193.7 785.8,274 266.9,79.8 537.9,148.4 811.1,207.2 272.6,58.9 550,108.7 822.3,145.7 272.6,33.5 553.7,54.5 832.3,66.2 156.4,6.7 312.9,10.1 469.2,10.1 122.9,0 245.6,-2.1 368.1,-6.5 278.2,-10.7 555.9,-29.6 829.6,-67.6 273.4,-38.1 543.3,-91.1 804.6,-165.7 l 122.9,-35.1 84.5,93.4 c 264.9,292.8 535.8,579.8 816.9,853.8 281.5,272.9 572.3,536.2 881.1,764.7 154.4,113.4 313.3,219.1 476.5,303.2 161.7,82.3 333.1,147.6 482,151.9 5.6,0.2 11.1,0.3 16.6,0.3 67.1,0 125.4,-13.7 175.6,-39.7 6.8,-3.8 13.9,-6.7 20.6,-10.7 l 19.1,-13.5 c 13.6,-7.5 24.8,-20.3 37.3,-30.4 6,-4.3 13,-12.2 20,-20 l 21,-22.9 c 14,-15.2 28.5,-29.8 41,-47.5 89.2,-112.3 164.9,-245.2 227.8,-387.8 -31.9,40.6 -65,78.1 -99.4,112.1 -107,106.2 -240.8,158.5 -400,158.5 -598.7,0 -1558.7,-739.3 -2822.4,-2136.1 -663.9,196.5 -1426,250.8 -2062.2,250.8 -661.8,0 -1187.4,-58.7 -1324.9,-76.8 -269.9,-33.4 -2024.2,-291.1 -3235,-1019.9"
         style="fill:#c7c7d9;fill-opacity:1;fill-rule:nonzero;stroke:none"
         id="path2802" /><path
         d="m 24074,20245.9 c 96.6,-3547 -4011.9,-4525.6 -5925.9,-5166.6 l -2477.9,-316.5 c -1301.3,90.2 -3525.7,86.1 -5151.7,1005.7 -392.7,222 -750.45,497.8 -1052.14,841.8 -214.69,245.1 -400.91,525 -551.11,844.8 -101.38,216.7 -186.22,451.6 -252.06,706.8 3366.41,-2217.8 5406.71,-769.6 6131.51,1345.7 280,816.6 1014.9,985.5 1338,1026.8 323.1,41.2 1076.9,62.4 1552.7,-657.6 1250.7,-1891.7 3639.4,-2779.4 6388.6,369.1"
         style="fill:#ffffff;fill-opacity:1;fill-rule:nonzero;stroke:none"
         id="path2804" /><path
         d="m 15750.4,14773 c -4.2,38.8 -33.6,71.7 -74,78.5 -274.2,46.3 -548.7,77.9 -822.2,107.2 l -229.6,23.7 c -25.6,27.6 -52,53.6 -79.2,78.1 -325.9,295 -759.1,382.9 -1159.7,382.9 -427.9,0 -818.6,-100.4 -1001.2,-155.6 -50.3,11.2 -100.5,22.7 -150.6,34.6 -316.7,509.3 -684.8,716.7 -1001.9,716.7 -139.3,0 -268.8,-40 -379.7,-112.2 -0.2,-0.1 -0.4,-0.3 -0.6,-0.4 -0.2,-0.1 -0.3,-0.1 -0.4,-0.3 -33.8,-22 -65.9,-47 -96,-74.8 -422.2,219.7 -808.08,502.2 -1120.67,852 -4.72,5.3 -9.4,10.5 -14.08,15.7 30.35,-18 60.9,-35.6 91.64,-53 730.31,-413.1 2416.91,-555.5 4046.91,-555.5 1132.8,0 2238.1,68.7 2976.9,163.1 1647.7,210.4 5423.3,1168.7 6829.1,2325.2 l -60.5,-125.9 c -123.4,-229.9 -263.1,-453.2 -435.2,-653.1 l -62.3,-76.5 c -21,-25.4 -44.8,-48.5 -67,-72.8 l -135.5,-144.5 -144.9,-136.1 c -24.3,-22.5 -48.1,-45.7 -72.8,-67.8 l -76.7,-63.8 c -200.4,-174.7 -421.8,-326.4 -645.7,-473.3 -114.8,-69.8 -227.7,-142.2 -346.5,-206.1 -116.4,-67.5 -236.8,-128.6 -356.9,-190.3 -483.1,-242.5 -988.6,-443.5 -1499.1,-637.4 -510,-195.7 -1030.7,-371.5 -1542.2,-587.7 -37,-15.6 -59.4,-54.6 -53.6,-94.8 L 15750.4,14773"
         style="fill:#d9d9ea;fill-opacity:1;fill-rule:nonzero;stroke:none"
         id="path2806" /><path
         d="m 11210.7,23510.5 c -109.2,130.3 332,1476.6 1517.3,1247.1 427,-82.7 516.6,-477.2 209.9,-603.1 -292.3,-119.8 -436.9,-71.7 -884.8,-296.7 -253.5,-127.3 -733.2,-477.6 -842.4,-347.3"
         style="fill:#000072;fill-opacity:1;fill-rule:nonzero;stroke:none"
         id="path2808" /><path
         d="m 20265.7,24667.1 c 72.9,153.6 -692.5,1345.7 -1782.1,825.6 -392.5,-187.3 -380,-591.7 -51.5,-636.4 313,-42.6 440.8,40.3 930.9,-64.8 277.3,-59.5 829.7,-277.9 902.7,-124.4"
         style="fill:#000072;fill-opacity:1;fill-rule:nonzero;stroke:none"
         id="path2810" /><path
         d="m 10320.5,25429.3 c -477,-659.6 -719.83,-1528.2 -781.24,-1438.2 -5.96,8.6 -12.15,19.1 -18.58,31.3 -139.1,256.6 -448.63,1304.6 -568.07,2258.2 -18.9,153.9 -32.04,290.2 -39.24,410.9 -19.68,325.8 0.1,538.8 39.74,678.5 49.46,170.8 200.33,240.3 346.39,203.5 388.35,-98.5 1526.6,-657 1924.9,-1056.8 71,-71.1 -426.4,-427.8 -903.9,-1087.4"
         style="fill:#f27e80;fill-opacity:1;fill-rule:nonzero;stroke:none"
         id="path2812" /><path
         d="m 10320.5,25429.3 c -477,-659.6 -719.83,-1528.2 -781.24,-1438.2 -5.96,8.6 -12.15,19.1 -18.58,31.3 59.73,515.9 311.05,1250 507.42,1782.6 268.6,727.4 -288.42,1208.3 -732.6,1317.1 -152.35,37.4 -294.7,-223.2 -382.13,-430.6 -19.68,325.8 0.1,538.8 39.74,678.5 49.46,170.8 200.33,240.3 346.39,203.5 388.35,-98.5 1526.6,-657 1924.9,-1056.8 71,-71.1 -426.4,-427.8 -903.9,-1087.4"
         style="fill:#ff5c64;fill-opacity:1;fill-rule:nonzero;stroke:none"
         id="path2814" /><path
         d="m 9158.94,26306.3 c 88.13,-705 272.51,-1412.4 408.44,-1830.9 132.91,301.2 323.44,714 585.02,1075.6 256.6,354.7 521.4,627.5 696.7,807.9 37.5,38.7 77.4,79.7 111,115.6 -447.8,361.9 -1395.99,817.5 -1711.61,897.3 -48.69,12.3 -80.62,-7.8 -95.61,-59.5 -37.84,-132.7 -67.72,-415.4 6.06,-1006 z m 390.72,-2529.4 c -72.02,0 -140.48,36.1 -182.13,97.2 -156.35,229.2 -496.73,1387 -620.9,2380.7 -67.14,537.4 -64.89,920.8 6.84,1172.1 77.78,269.6 328.81,415.5 596.87,347.8 412.89,-104.4 1583.86,-672.2 2021.46,-1111.2 46.5,-46.7 137.1,-176.9 -24.5,-378 -46.6,-57.9 -114.3,-127.7 -200.1,-216.1 -176.9,-182.1 -419.1,-431.6 -658.1,-761.9 -262.4,-362.7 -453.7,-799.2 -580.26,-1088 -140.19,-319.8 -187.4,-427.5 -339.21,-441.7 -6.69,-0.6 -13.33,-0.9 -19.97,-0.9"
         style="fill:#000072;fill-opacity:1;fill-rule:nonzero;stroke:none"
         id="path2816" /><path
         d="m 20664.2,26750.5 c 627.5,-518.5 1080.8,-1298.2 1117.6,-1195.7 3.6,9.9 7,21.5 10.1,35 70.2,283.3 106.4,1375.5 -17.7,2328.5 -20.4,153.7 -42,288.9 -65.3,407.5 -62.9,320.4 -135.6,521.5 -209,646.8 -90.8,152.9 -254.3,182.2 -386.5,109.9 -351.1,-193 -1312.4,-1019.6 -1597.4,-1506.8 -50.9,-86.6 520.2,-306.8 1148.2,-825.2"
         style="fill:#f27e80;fill-opacity:1;fill-rule:nonzero;stroke:none"
         id="path2818" /><path
         d="m 20664.2,26750.5 c 627.5,-518.5 1080.8,-1298.2 1117.6,-1195.7 3.6,9.9 7,21.5 10.1,35 -187.4,484.4 -615.2,1131.7 -939.2,1597.8 -442.7,636.6 -24.5,1242 378.1,1459 138,74.5 341.3,-142 478.1,-320.8 -62.9,320.4 -135.6,521.5 -209,646.8 -90.8,152.9 -254.3,182.2 -386.5,109.9 -351.1,-193 -1312.4,-1019.6 -1597.4,-1506.8 -50.9,-86.6 520.2,-306.8 1148.2,-825.2"
         style="fill:#ff5c64;fill-opacity:1;fill-rule:nonzero;stroke:none"
         id="path2820" /><path
         d="m 19782.4,27601.4 c 41.6,-26.3 90.5,-56 136.5,-84 215,-130.6 539.9,-328 877.4,-606.8 344.1,-284.3 632.3,-636 836.6,-894.1 26.3,439.2 27,1170.3 -64.9,1874.8 -77,590.2 -177,856.3 -247.3,975.7 -27.2,45.9 -63.5,57.1 -107.2,33.1 -285.4,-156.6 -1088.5,-835.8 -1431.1,-1298.7 z M 21762.3,25337 c -123.1,0 -201.6,99.7 -395.6,346.1 -195.1,247.7 -490,622 -835.1,907.1 -314.3,259.7 -611.5,440.3 -828.5,572.1 -105.2,63.9 -188.4,114.5 -248,158.8 -207,154.1 -151.9,302.9 -118.6,359.7 313.2,535 1303.8,1378.8 1677.1,1583.6 242.7,133 522.2,54.8 664.9,-186.1 132.9,-225.7 231.5,-596.2 301.5,-1133.2 129.6,-993 91.2,-2199.1 -2.5,-2460.3 -27.3,-76.1 -93,-131.3 -171.5,-144 -15.3,-2.5 -29.8,-3.8 -43.7,-3.8"
         style="fill:#000072;fill-opacity:1;fill-rule:nonzero;stroke:none"
         id="path2822" /><path
         d="m 18119.8,15163.6 c 511.5,216.2 1032.2,392 1542.2,587.7 510.5,193.9 1016,394.9 1499.1,637.4 120.1,61.7 240.5,122.8 356.9,190.3 118.8,63.9 231.7,136.3 346.5,206.1 223.9,146.9 445.3,298.6 645.7,473.3 l 76.7,63.8 c 24.7,22.1 48.5,45.3 72.8,67.8 l 144.9,136.1 135.5,144.5 c 22.2,24.3 46,47.4 67,72.8 l 62.3,76.5 c 172.1,199.9 311.8,423.2 435.2,653.1 l 84.9,176.6 c 6.9,14.8 14.4,29.3 21,44.3 l 17.2,45.8 34.6,91.6 34.7,91.5 c 5.6,15.3 11.9,30.4 17,45.9 l 13.2,47.2 53,188.6 13.4,47.2 9.2,48.2 18.1,96.4 c 11,64.6 27,128.2 34,193.4 l 19.5,195.9 10,98 1.4,98.8 3.2,197.6 c 1.5,32.9 -0.1,66 -2.8,99 l -6.5,99 -12.7,198.1 c -8,65.9 -18.3,131.6 -27.3,197.4 l -28.3,197.4 -42.1,195.7 -41.9,195.8 -25.4,91.4 -29.5,94.9 c -83,255.3 -178.2,512.2 -276.1,766.6 -98.4,254.6 -200.8,508.1 -308.3,759.1 -214.4,502.1 -444.6,997.8 -703.7,1472.4 l -28.1,51.5 5.3,58.3 c 72.2,784.2 95.2,1575 58.2,2360 -19.8,392.2 -53.9,783.4 -114.4,1167.9 -60.2,383.6 -145.1,764.3 -283.6,1112.1 -69.1,173.3 -155.9,335.7 -261.9,469.1 -12.5,17.7 -27,32.3 -41,47.5 l -21,22.9 c -7,7.8 -14,15.7 -20,20 -12.5,10.1 -23.7,22.9 -37.3,30.4 l -19.1,13.5 c -6.7,4 -13.8,6.9 -20.6,10.7 -54.3,28.1 -118,41.8 -192.2,39.4 -148.9,-4.3 -320.3,-69.6 -482,-151.9 -163.2,-84.1 -322.1,-189.8 -476.5,-303.2 -308.8,-228.5 -599.6,-491.8 -881.1,-764.7 -281.1,-274 -552,-561 -816.9,-853.8 l -84.5,-93.4 -122.9,35.1 c -261.3,74.6 -531.2,127.6 -804.6,165.7 -273.7,38 -551.4,56.9 -829.6,67.6 -278.4,10 -558,8.3 -837.3,-3.6 -278.6,-11.7 -559.7,-32.7 -832.3,-66.2 -272.3,-37 -549.7,-86.8 -822.3,-145.7 -273.2,-58.8 -544.2,-127.4 -811.1,-207.2 -266.5,-80.3 -530.6,-168.5 -785.8,-274 -255,-105.7 -502.9,-224.9 -736.9,-362.8 l -110.8,-65.2 -105.8,69.5 c -330.1,216.8 -664.4,426.4 -1005.4,620.9 -341,193.3 -688.7,374.9 -1044.95,518.3 -177.89,70.9 -358.2,133.2 -537.16,173.5 -177.14,39 -359.26,58.9 -503.98,25.7 -72.11,-16.2 -130,-45.4 -175.23,-86 -5.54,-5.3 -11.71,-9.9 -17.08,-15.4 l -15.06,-17.8 c -11.18,-10.7 -18.72,-25.7 -28.3,-38.6 -4.61,-5.6 -9.45,-15 -14.24,-24.4 l -14.51,-27.3 c -9.77,-18.2 -20.06,-36 -27.74,-56.2 -68.89,-155.5 -112.02,-334.4 -135.24,-519.3 -46.57,-371.2 -32.98,-760.8 5.25,-1147.2 38.16,-387.3 103.53,-774.4 183.04,-1158.9 161.69,-768.8 382.84,-1528.3 649.87,-2269 l 20.27,-56.2 -14.57,-57.7 c -132.45,-523.9 -229.23,-1062.1 -310.9,-1601.8 -40.51,-270 -76.18,-541 -107.33,-812.2 -30.84,-270.8 -58.34,-543.5 -74.08,-811.2 -4.12,-67.1 -6.26,-132.5 -6.4,-193.9 0.69,-66.9 2.47,-133.6 5.21,-200.3 5.65,-133.3 15.69,-266.1 30.77,-398.1 30.14,-263.8 80.48,-524.4 154.99,-776.7 147.75,-504.8 399.08,-975.1 749.1,-1363.1 348.28,-389.8 787.57,-696 1266.67,-924.8 480.3,-228.8 997.4,-385.7 1524.6,-499.8 527.9,-114.9 1068,-180.5 1610.9,-235.5 l 817.4,-84.6 c 273.5,-29.3 548,-60.9 822.2,-107.2 48.7,-8.2 81.5,-54.4 73.3,-103.1 -7.2,-42.7 -43.5,-73.1 -85.2,-74.5 h -0.4 c -549.9,-18.2 -1102.7,-18.6 -1657.3,18.3 -554.1,36.9 -1108.9,109.9 -1657.8,226.7 -548.3,117.6 -1092.7,280.6 -1608.1,524.9 -513.9,244.1 -997.43,577.3 -1385.02,1009.4 -389.63,429.7 -670.52,954.7 -832.61,1505.9 -82,275.6 -136.84,557.7 -169.74,840.7 -16.46,141.5 -27.45,283.3 -33.74,425.1 -3.06,70.9 -5.06,141.7 -5.94,212.5 -0.1,76.3 2.41,148.5 6.53,218.8 16.07,282.1 43.46,557.5 74.32,833.7 31.13,275.9 66.8,551 107.41,825.6 82.07,549 179.02,1096.4 315.33,1640.6 l 5.71,-113.9 c -274.67,757.4 -501.71,1530.8 -669.56,2320.8 -82.54,395.3 -151.01,794.6 -191.84,1200.2 -40.42,405.3 -57.76,817.2 -6.3,1237.5 26.53,209.7 74.05,423.2 166.16,632.4 10.31,26.3 24.4,52 38.08,77.8 l 20.56,38.5 c 6.69,12.8 13.37,25.5 23.53,40 18.95,27.8 36.16,56.4 59.62,81.9 l 33.72,38.7 c 11.88,12.3 25.02,23.7 37.66,35.4 102.59,93.2 230.75,151.6 352.7,178.8 122.83,28.1 241.46,31.3 354.13,24.1 112.74,-7.7 221.55,-24.4 326.32,-48.1 209.87,-46.9 407.2,-115.4 599.29,-191.4 383.28,-153.6 743.48,-341.6 1095.58,-540.1 351.4,-199.5 692.7,-412.7 1028.9,-632.5 l -216.6,4.3 c 512.2,302.9 1059.9,515 1615.3,681.3 277.9,83.7 558.5,155.3 841.1,216.7 283.2,61.3 565.7,114.1 857.1,152.5 291.9,35.2 578.6,55.7 868.1,67.2 289,11.6 578.5,12.8 868.5,1.6 579.3,-21.6 1162.6,-89.3 1734.4,-253.8 l -207.4,-58.2 c 270.1,297.1 547,589.2 837,870.5 290.9,280.6 592.3,553 924.6,797.9 166.8,121.7 340.6,237.5 531.8,335.6 95.4,49.2 196.5,92.7 303.5,128.4 107.1,35.3 222.6,61.9 348.3,65.6 124.7,4.3 263,-20 385.4,-84.3 15.1,-8.1 30.6,-15.8 45.2,-24.7 l 42.3,-29 c 29,-18.7 52.8,-41.9 78,-64.1 13.5,-11.4 23.1,-22.1 32.8,-32.7 l 29.5,-32.1 c 19.7,-21.5 39.8,-42.8 56.3,-65.6 141.6,-179.2 241.1,-373.7 319.4,-569.9 155.3,-393.7 241.9,-796.6 304.6,-1198.9 62.3,-402.7 96.3,-806.4 115.7,-1209.7 36,-806.6 10.5,-1612.2 -65.2,-2414.1 l -22.7,109.8 c 267.4,-492.7 500.1,-997.6 716.9,-1508.5 108.6,-255.3 211.9,-512.7 311.3,-771.9 99.2,-259.6 194.8,-519.3 281.4,-787.9 l 31.6,-102.4 29.5,-107.5 44.3,-208.1 44,-208.1 30,-211.4 c 9.5,-70.6 20.2,-140.9 28.5,-211.6 l 13.5,-214.1 6.6,-107 c 2.7,-35.6 4.3,-71.3 2.7,-107.3 l -3.9,-215.2 -2,-107.6 -10.9,-107.5 -22.1,-214.9 c -8.1,-71.5 -25.4,-142 -37.8,-213 l -20.4,-106.4 -10.5,-53.1 -14.7,-52.2 -59.2,-208.8 -14.9,-52.1 c -5.7,-17.2 -12.6,-33.9 -18.9,-50.9 l -38.6,-101.5 -38.7,-101.4 -19.4,-50.7 c -7.3,-16.5 -15.5,-32.6 -23.2,-49 l -94.4,-195.4 c -136.7,-254.1 -292.4,-499.6 -480.1,-717.2 l -68.4,-83.3 c -23,-27.6 -48.7,-52.6 -72.9,-79 l -147.4,-156.2 -156.4,-146.4 c -26.2,-24.1 -51.9,-49 -78.5,-72.6 l -82.1,-68.2 c -215.6,-186.6 -450,-346.5 -686.4,-500.7 -120.6,-73 -239.8,-148.8 -363.7,-215.2 -122,-70.2 -247.2,-133.5 -372.2,-197.3 -251.5,-123.6 -505.6,-241.5 -765,-344 -128.9,-53.5 -259.7,-101.1 -389.7,-150.9 -131.2,-46.1 -262.4,-92.6 -394.3,-135.2 -527.7,-173.2 -1062.2,-313.9 -1595.9,-444 l -0.7,-0.2 c -47.9,-11.6 -96.2,17.7 -107.8,65.6 -10.6,43.2 12.3,86.7 51.9,103.4"
         style="fill:#000072;fill-opacity:1;fill-rule:nonzero;stroke:none"
         id="path2824" /><path
         d="m 17712.6,19315.4 c 0,0 104.9,-818.5 -632.9,-868.8 -522.5,-35.9 -684.7,377.3 -696.8,410.7 -3.7,-35.4 -56.8,-476.2 -571.6,-572.8 -727,-136.7 -831.2,681.9 -831.2,681.9 l 1224.7,1234.4 12.4,1.6 1495.4,-887"
         style="fill:#e8e8e8;fill-opacity:1;fill-rule:nonzero;stroke:none"
         id="path2826" /><path
         d="m 17705.9,19309 c 0,0 -159.2,-653.3 -733.7,-579.3 -653.9,84.2 -672.7,849 -672.7,849 l -23.4,-3 c 0,0 171,-745.6 -441.7,-989.1 -538.2,-213.8 -854.3,379.7 -854.3,379.7 0,0 -334.5,1378.3 1181.4,1571.9 1515.9,193.6 1544.4,-1229.2 1544.4,-1229.2"
         style="fill:#ffffff;fill-opacity:1;fill-rule:nonzero;stroke:none"
         id="path2828" /><path
         d="m 15603.9,18540.1 c -250.9,-0.1 -434.2,170.4 -534.9,295.8 0.1,0 0.2,0.1 0.2,0.1 100.7,-125.4 283.6,-295.8 534.6,-295.8 71.5,0 148.5,13.8 230.6,46.4 452,179.6 477.5,632.5 459.8,857.7 0,0 0,0 0.1,0 17.7,-225.3 -7.8,-678.3 -460,-857.8 -82,-32.6 -159,-46.4 -230.4,-46.4 m 1569.5,194.1 c 0.1,0 0.1,0 0.2,0 -0.1,0 -0.1,0 -0.2,0 m 0.3,0.1 c 264.4,50.5 408.9,273.6 478.3,426.5 0.1,0.1 0.2,0.1 0.3,0.1 -69.4,-153 -214,-376.3 -478.6,-426.6 m -626.6,206.7 c -150.4,160 -209.7,372 -232.9,506.7 0,0 0.1,0 0.2,0.1 23.2,-134.7 82.4,-346.7 232.7,-506.8"
         style="fill:#c5c5d6;fill-opacity:1;fill-rule:nonzero;stroke:none"
         id="path2830" /><path
         d="m 15603.8,18540.2 c -251,0 -433.9,170.4 -534.6,295.8 108.3,3.8 223.5,27 345.9,75.6 331.1,131.6 526.6,328.2 639.9,533.1 40.5,-6.4 81,-9.6 121.3,-9.6 39.6,0 78.9,3.1 117.9,9.2 17.7,-225.2 -7.8,-678.1 -459.8,-857.7 -82.1,-32.6 -159.1,-46.4 -230.6,-46.4 m 1457.8,183.7 c -28.5,0 -58.2,1.9 -89.2,5.9 -190.6,24.5 -327.3,106.8 -425.3,211.2 -150.3,160.1 -209.5,372.1 -232.7,506.8 73.6,13.6 145.5,38.1 214.1,73.4 160.4,-177.3 402,-326.6 765.8,-373.6 50.7,-6.5 99.4,-9.6 146.3,-9.6 75.3,0 145.6,8 211.4,22.8 -69.4,-152.9 -213.9,-376 -478.3,-426.5 -0.1,0 -0.1,-0.1 -0.1,-0.1 -0.1,0 -0.1,0 -0.2,0 -35.1,-6.6 -72.3,-10.3 -111.8,-10.3"
         style="fill:#d9d9ea;fill-opacity:1;fill-rule:nonzero;stroke:none"
         id="path2832" /><path
         d="m 15071.8,19015.2 c 22.9,-26.8 52.2,-61.3 80.8,-89.4 28.2,-30 58.9,-56.7 89.2,-82.5 61.4,-50.5 126.6,-91 192.3,-114.9 65.5,-25.4 131,-32.8 197,-29.5 33.3,7.4 66.6,7.6 100.1,22 16.6,6.4 33.8,9.6 50.5,16.7 l 49.8,23.7 c 133.1,63.1 224.9,171.8 281.2,313.7 28.1,70.6 45.5,149.6 55,231.1 5.6,40.7 7.3,82.3 8.9,124.2 0.9,40.6 0.5,86.6 -1.8,122.2 l -0.6,9.2 c -3.6,57.3 40,106.7 97.3,110.3 48.9,3.1 92,-28.2 105.8,-73 16.9,-54.5 26.7,-100.2 34.7,-151.2 8.2,-49.8 12.3,-100.3 13.7,-151.5 1.8,-101.9 -5.9,-207.3 -37.4,-311.1 -54.3,-207.7 -210.4,-410.1 -411.5,-505.8 l -74.4,-36.3 c -25.3,-11.3 -53.3,-18.6 -80.2,-27.1 -52.7,-19.4 -112.6,-23.8 -169.7,-31.8 -118.2,-6.2 -237.6,21.1 -340.2,70.2 -102.7,50.3 -188.3,120.7 -257.6,199.4 -34.4,39.6 -65.6,81 -93.2,124.3 -28.2,44.2 -50.4,86.2 -73.1,139.4 -22.4,52.8 2.2,113.7 55,136.2 42.8,18.2 90.9,5.5 119.5,-28.1 l 8.9,-10.4"
         style="fill:#000072;fill-opacity:1;fill-rule:nonzero;stroke:none"
         id="path2834" /><path
         d="m 17806.9,19284.4 c -8.8,-57.2 -19.9,-103.4 -36.3,-153.2 -16,-48.7 -36,-96.6 -59.5,-143.5 -47.7,-93.3 -113.2,-182.7 -200.3,-256.9 -87.2,-73 -196.1,-129 -312.2,-152.2 -57.3,-6.5 -116.4,-17 -172.3,-11.3 -28.2,1.6 -57.1,1.8 -84.4,6.4 l -81.1,16.9 c -218.5,42.9 -419.8,200.3 -523.8,388.1 -56.3,92.8 -89.8,193 -113.3,292.2 -11.3,49.9 -19.8,99.9 -24.2,150.2 -4.9,51.4 -6.7,98.1 -3.9,155 2.9,57.4 51.7,101.5 109.1,98.7 48.9,-2.5 88.2,-38.3 97,-84.4 l 1.6,-9.2 c 6.7,-35 17.6,-79.7 28.6,-118.8 11.9,-40.2 23.8,-80.1 39.4,-118.2 29.4,-76.5 65.7,-148.8 110.4,-210.2 89.7,-123.6 205.5,-206.2 350.1,-234.4 l 54.1,-10.6 c 18,-2.7 35.4,-1.6 53.1,-3.6 36,-5.8 68.4,2.4 102.5,3.4 64.7,13.1 126.3,36.5 183.5,77.3 57.8,39.5 110.9,94.8 157.9,158.9 22.9,32.5 46.1,66 66,102 20.8,34.3 40.6,75 56.1,106.6 l 6,12.2 c 25.3,51.5 87.5,72.8 139,47.5 41.7,-20.4 63.5,-65.3 56.9,-108.9"
         style="fill:#000072;fill-opacity:1;fill-rule:nonzero;stroke:none"
         id="path2836" /><path
         d="m 17000.9,20068.9 c 22.4,-178.6 -190.8,-365.7 -391.2,-499.8 -209.6,-140.3 -460.3,-171.8 -698.2,-87.8 -227.4,80.3 -480.3,208.9 -502.7,387.5 -67.8,538.9 1524.3,739 1592.1,200.1"
         style="fill:#000072;fill-opacity:1;fill-rule:nonzero;stroke:none"
         id="path2838" /><path
         d="m 16159.2,19919.2 c -30.2,0 -60.4,3.3 -90,10 -88.7,20.3 -186.8,54.2 -193.3,105.7 -12.1,96.4 226.2,163.5 413.5,163.5 114.8,0 210.4,-25.1 217.8,-84.2 6.4,-51.5 -80.2,-108.6 -161.2,-150.2 -57.6,-29.6 -122.2,-44.8 -186.8,-44.8"
         style="fill:#8080b9;fill-opacity:1;fill-rule:nonzero;stroke:none"
         id="path2840" /><path
         d="m 14087.1,20273.2 c 90.7,-710.4 -384.6,-1356.4 -1061.7,-1442.9 -677.1,-86.5 -1299.6,419.3 -1390.3,1129.7 -90.8,710.5 384.6,1356.5 1061.7,1443 677.1,86.5 1299.6,-419.3 1390.3,-1129.8"
         style="fill:#3a3a3a;fill-opacity:1;fill-rule:nonzero;stroke:none"
         id="path2842" /><path
         d="m 13576.3,19905.2 c 38.4,-300.6 -162.7,-574 -449.3,-610.7 -286.6,-36.6 -550,177.5 -588.4,478.2 -38.4,300.6 162.8,574 449.3,610.6 286.6,36.6 550,-177.4 588.4,-478.1"
         style="fill:#ffffff;fill-opacity:1;fill-rule:nonzero;stroke:none"
         id="path2844" /><path
         d="m 12714.7,20635 c 22.1,-173.3 -93.9,-331 -259.1,-352.1 -165.2,-21.1 -317.1,102.4 -339.2,275.7 -22.2,173.3 93.8,331 259,352.1 165.3,21.1 317.1,-102.3 339.3,-275.7"
         style="fill:#ffffff;fill-opacity:1;fill-rule:nonzero;stroke:none"
         id="path2846" /><path
         d="m 20712.3,21119.5 c 90.7,-710.5 -384.6,-1356.5 -1061.7,-1443 -677.1,-86.5 -1299.6,419.3 -1390.3,1129.8 -90.8,710.4 384.6,1356.4 1061.7,1442.9 677.1,86.5 1299.6,-419.3 1390.3,-1129.7"
         style="fill:#3a3a3a;fill-opacity:1;fill-rule:nonzero;stroke:none"
         id="path2848" /><path
         d="m 20201.5,20751.5 c 38.4,-300.7 -162.7,-574.1 -449.3,-610.7 -286.6,-36.6 -550,177.4 -588.4,478.1 -38.4,300.7 162.8,574.1 449.3,610.7 286.6,36.6 550,-177.5 588.4,-478.1"
         style="fill:#ffffff;fill-opacity:1;fill-rule:nonzero;stroke:none"
         id="path2850" /><path
         d="m 19339.9,21481.2 c 22.1,-173.3 -93.9,-330.9 -259.1,-352 -165.2,-21.1 -317.1,102.3 -339.2,275.6 -22.2,173.4 93.8,331 259,352.1 165.2,21.1 317.1,-102.3 339.3,-275.7"
         style="fill:#ffffff;fill-opacity:1;fill-rule:nonzero;stroke:none"
         id="path2852" /><path
         d="m 9538.06,18653.3 c -32.13,13 -69.75,26.8 -105.67,39.6 -35.9,13.6 -72.7,25.8 -109.71,37.7 -36.65,12.4 -73.72,23.9 -111.36,34.1 -37.61,10 -74.18,22.7 -111.92,32.4 -150.53,39.3 -301.53,76.8 -454.83,103.9 -305.93,55.5 -615.46,94.6 -927.14,102.4 -46.96,2.7 -93.99,2 -141.04,1.3 -30.89,-0.4 -61.77,-0.9 -92.64,-0.4 l -116.95,-0.1 c -38.99,-0.4 -77.85,-4.4 -116.79,-6.4 -77.85,-5 -155.73,-9.8 -233.8,-13.5 l -232.94,-26.4 c -156.33,-12.5 -308.62,-50.6 -463.97,-73.7 l -58.11,-9.7 -57.26,-13.6 -114.62,-27.2 c -76.38,-18.5 -153.3,-35.5 -230.32,-52.7 l -6.08,-1.4 c -49.26,-11 -98.1,20 -109.11,69.3 -10.32,46.1 16.69,92.1 60.65,106.7 76.96,25.3 154.02,50.8 231.63,74.8 l 116.34,36.5 58.23,18.3 59.25,14.4 c 78.95,19.6 158.3,37.9 237.79,55.8 39.84,8.3 79.18,19.5 119.5,25.6 l 120.74,19.4 241.88,38.1 c 81.23,8.1 162.65,15.2 244.1,22 40.75,3 81.4,7.9 122.26,9.3 l 122.63,3 c 81.77,1.1 163.64,6.1 245.42,2.1 l 245.4,-10.1 c 81.71,-5.1 163.14,-15 244.61,-23.4 81.68,-6.7 162.25,-22.8 243.28,-34.9 81.07,-12 161.05,-30.4 241.05,-48.4 320.55,-74.3 629.92,-176.9 924.97,-343.1 43.98,-24.7 59.55,-80.5 34.79,-124.4 -22.81,-40.5 -71.91,-57 -113.87,-39.9 l -6.39,2.6"
         style="fill:#000072;fill-opacity:1;fill-rule:nonzero;stroke:none"
         id="path2854" /><path
         d="m 9901.44,17469.1 c -133.25,-2.4 -273.83,-10.3 -410.26,-22.7 -137.25,-12.4 -273.97,-28.2 -409.73,-48.9 -271.2,-42.3 -539.76,-98.9 -798.52,-184.4 -129.39,-42.5 -256.88,-90.3 -380.17,-146.9 -62.4,-26.9 -122.08,-58.8 -183.17,-88.3 -58.97,-33.1 -119.57,-63.9 -176.38,-100.7 -232.73,-138.9 -443.38,-312 -631.75,-509.7 l -1.29,-1.4 c -34.89,-36.6 -92.84,-38 -129.44,-3.1 -34.08,32.4 -37.36,85.3 -9.55,121.9 177.52,231.9 393.94,437.3 638.41,600.4 121.78,82.2 248.97,156.5 381.45,219.2 131.79,64.2 267.23,120.6 405.94,166.3 276.53,94.1 562.46,157 850.85,187.3 289.37,30.3 576.69,33.8 869.69,-6.7 50.07,-7 84.98,-53.2 78.1,-103.2 -6.27,-45.3 -44.66,-78.2 -88.99,-79 l -5.19,-0.1"
         style="fill:#000072;fill-opacity:1;fill-rule:nonzero;stroke:none"
         id="path2856" /><path
         d="m 22982.1,20521.3 c 243.8,235 517.5,412.1 809.1,564.6 72.9,37.5 145.7,75.4 221.1,107.4 75.4,32 149.3,68 226.7,95 76.7,28.6 153.1,58.6 230.9,84 l 235,71.5 c 78.1,24.5 158.6,40.2 238,59.7 l 119.5,27.9 c 39.9,9 80.5,14.4 120.6,21.7 80.6,13.9 161.2,27.5 241.9,40 l 243.6,24 121.8,11.6 c 40.5,4.3 81.4,3.3 122.1,5.2 81.4,2.7 162.8,4.9 244.2,5.8 l 60.9,1 61,-3.1 121.8,-6.1 c 81.1,-3.7 162.1,-9 243,-14.2 50.3,-3.1 88.6,-46.6 85.4,-96.9 -3,-47.3 -41.4,-83.8 -87.7,-85.6 l -6.6,-0.2 c -78.9,-2.7 -157.6,-5.6 -236.2,-6.9 l -117.8,-2.4 -58.8,-1.3 -58.7,-5.2 c -156.2,-16.7 -313.2,-18 -467.6,-45.3 l -232.1,-33 c -76.5,-16 -153.1,-31 -229.7,-45.7 -38.2,-7.8 -76.8,-13.8 -114.6,-23.2 l -113.3,-29.2 c -75.1,-20.9 -151.8,-35.7 -225.9,-59.7 -299.7,-85.8 -589.5,-201.5 -871.7,-332.1 -141.5,-64.8 -278.3,-139 -414.1,-214.9 -34.1,-18.8 -66.3,-40.3 -100.2,-59.5 -33.8,-19.3 -66.8,-39.7 -99.2,-61 -32.8,-20.8 -65.4,-41.8 -96.7,-64.1 -31.5,-21.3 -64.5,-44.2 -92.3,-64.9 l -5.5,-4.1 c -40.5,-30 -97.8,-21.6 -127.9,19 -27.7,37.3 -22.6,88.8 10,120.2"
         style="fill:#000072;fill-opacity:1;fill-rule:nonzero;stroke:none"
         id="path2858" /><path
         d="m 22990.1,19321.1 c 273.4,112.9 552.3,181.7 840,225.2 286.8,43.1 579.4,54.1 870.7,32.5 145.7,-9.4 291,-29.9 434.7,-58.9 144,-27.4 285.8,-67.4 424.3,-116.3 277.6,-96.4 538.7,-240.8 768.8,-420.7 39.8,-31.1 46.9,-88.6 15.7,-128.5 -28.9,-37 -80.8,-45.7 -120,-21.6 l -2,1.2 c -232,144 -479.4,258.7 -739.6,334.7 -64.2,21.2 -130.6,35.8 -196,53 -66.5,13.2 -132.3,29.1 -199.5,39.5 -133.5,23.8 -268.9,38 -404.8,46.6 -272,17.7 -546.2,5 -819.3,-22.2 -136.6,-14.1 -272.9,-33.2 -408.9,-55.7 -135.1,-22.3 -273.2,-49.9 -402.8,-81.1 l -5,-1.2 c -49.1,-11.9 -98.5,18.4 -110.4,67.5 -10.7,44.5 13.1,89.1 54.1,106"
         style="fill:#000072;fill-opacity:1;fill-rule:nonzero;stroke:none"
         id="path2860" /><path
         d="M 13615.1,9963.9 C 10610.2,9814.8 12013.9,13337 12035.4,13391 l 0.4,0.4 c 0,0 -142.2,22.4 -341.6,103.4 -377.8,153.7 -961,516.4 -1172.2,1333.7 -289.6,1119.6 928.4,1843.6 1753.9,424 0,0 2355.9,865.7 2736.5,-1090.9 57.6,-295 113.8,-609.2 156.8,-928 35.3,-258.4 62.2,-519.1 74.6,-775.2 62.2,-1272.4 -231.4,-2425 -1628.7,-2494.5"
         style="fill:#8e8fb3;fill-opacity:1;fill-rule:nonzero;stroke:none"
         id="path2862" /><path
         d="m 13433.9,9959.3 c -1396.7,0 -1744.9,861.3 -1744.7,1721 0.3,843 335.8,1684.5 346.2,1710.7 l 0.4,0.4 v 0 c 0,0 246.1,-59 714.5,-66.1 72.6,-3.8 138.3,-5.3 197.1,-5.3 163.4,0 272.5,11.5 321.8,18.1 8.5,0.5 17.1,1.1 25.7,1.6 -71.6,-53.4 -1015.3,-789.9 -586.7,-1901.2 138.4,-358.9 530.3,-561.5 966.8,-561.5 666.6,0 1437.2,472.2 1568.8,1581.4 5,-101.9 7.7,-203 7.7,-302.9 0,-54.5 -0.7,-108.6 -2.4,-162.3 -5.4,-177.9 -20.2,-350.8 -46.7,-515.8 -133.9,-832.5 -565.4,-1462.6 -1587.3,-1513.5 -62.1,-3.1 -122.7,-4.6 -181.2,-4.6 m -1398.1,3432.1 c 0,0 -142.2,22.4 -341.6,103.4 0.2,-0.1 0.4,-0.1 0.6,-0.2 199.1,-80.7 341,-103.2 341,-103.2"
         style="fill:#797aa9;fill-opacity:1;fill-rule:nonzero;stroke:none"
         id="path2864" /><path
         d="m 15169.2,13233.6 c -327,135 -777,232.4 -1348.7,157.8 -1157.6,-150.4 -1784.7,0 -1784.7,0 0,0 -1191,188.5 -1513.8,1437.1 -60,231.9 -55.4,446.8 -2.3,629.3 200.3,698.4 1101.8,920.2 1756.2,-205.3 0,0 2053.2,754.6 2635.4,-736.9 41.6,-106.1 75.9,-223.6 101.1,-354 57.6,-295 113.8,-609.2 156.8,-928"
         style="fill:#ffffff;fill-opacity:1;fill-rule:nonzero;stroke:none"
         id="path2866" /><path
         d="m 14911.3,14515.6 c -482.1,462.5 -1148.5,610.8 -1624,610.8 -258.1,0 -460,-43.6 -545.7,-104.5 -113.9,-80.9 21.5,-227.7 -45.3,-313.7 -4.2,-5.4 -10.6,-7.8 -18.9,-7.8 -82.2,0 -353.3,239.5 -529.1,251.6 -10,0.7 -20,1 -30,1 -83.3,0 -161.3,-23.8 -227.6,-47.5 -66.2,-23.8 -120.8,-47.6 -157.1,-47.6 -22.8,0 -38.4,9.3 -45.4,33.7 -36.6,129.4 238.3,641.7 -359,835.1 -42.1,13.7 -86.5,20 -132.4,20 -217.9,0 -470.5,-140.4 -677.1,-288.9 100.6,350.7 378.1,581.3 712.3,581.3 331.3,0 718.1,-226.3 1043.9,-786.6 0,0 519.5,190.9 1109.8,190.9 583.5,0 1236.2,-186.4 1525.6,-927.8"
         style="fill:#d9d9ea;fill-opacity:1;fill-rule:nonzero;stroke:none"
         id="path2868" /><path
         d="m 11232.5,15855.9 c -71.1,0 -136.9,-13.7 -195.6,-37.8 -261.4,-107.4 -461.2,-466.1 -337.6,-943.9 287.6,-1112.2 1321.7,-1294.9 1365.6,-1302.1 54.8,-9 102.8,-42.6 130,-91 27.2,-48.4 31.2,-106.7 10.4,-158.2 -7.1,-17.5 -701,-1764.6 -67.5,-2655.1 270.9,-380.6 764.7,-556.1 1468.2,-521 483.6,24.1 835.3,184.6 1075.2,490.9 589.8,753.1 390.9,2260.2 151.8,3489.2 -86.7,445.5 -293,763 -613.1,943.8 -740.8,418.5 -1869.8,14.1 -1881.1,9.9 -83.3,-30.4 -176.5,3.2 -221.1,79.8 -299.1,514.5 -626.5,695.5 -885.2,695.5 z m 2201.4,-6079.3 c -737.9,-0.1 -1273.7,228.2 -1594.6,679.7 -616.4,867.3 -222.1,2287.3 -45,2807.5 -386.2,120.6 -1183,489.3 -1449.2,1518.8 -155.4,600.7 77.1,1178.5 552.7,1373.9 393.9,161.9 973.6,58.7 1458.5,-685.8 360.4,106.7 1318.8,327.1 2042.3,-80.7 418.3,-235.8 685.3,-637.2 793.5,-1193.2 269.8,-1386.4 454.3,-2920.1 -222.9,-3784.7 -304.8,-389.3 -757.4,-601.5 -1345.1,-630.7 -64.8,-3.2 -128.3,-4.8 -190.2,-4.8"
         style="fill:#000072;fill-opacity:1;fill-rule:nonzero;stroke:none"
         id="path2870" /><path
         d="m 12077.3,13569.7 c 42.3,-13.1 98.2,-26.4 149.1,-37.6 52.4,-11.2 105.4,-21.8 158.9,-30.6 107,-18.1 215.3,-32.3 324.4,-42.7 109.1,-9.3 218.9,-17.4 329.1,-19.2 110.2,-3.3 220.6,-1.1 331.4,2.6 h 1.9 c 50.6,1.7 92.9,-37.9 94.6,-88.5 1.6,-46.3 -31.6,-85.8 -76.1,-93.3 -113.2,-19.3 -227,-37.1 -341.7,-49.2 -114.6,-13.7 -230,-21 -345.9,-26.7 -115.9,-4.7 -232.3,-5.3 -349.3,-1.6 -58.5,1.7 -117.2,5.2 -176.3,9.7 -60.3,5.1 -115.6,9.9 -183.2,20.7 -100.1,16 -168.2,110 -152.3,210 16,100.1 110,168.2 210.1,152.3 8.3,-1.4 17.4,-3.6 25.3,-5.9"
         style="fill:#000072;fill-opacity:1;fill-rule:nonzero;stroke:none"
         id="path2872" /><path
         d="m 29266.3,11829.6 c -5.5,-90.9 -15.7,-173 -31,-257.9 -14.3,-84.4 -33.6,-167.7 -55.8,-250.7 -45.3,-165.5 -107.3,-327.9 -187.1,-483.7 -77.8,-157 -182.6,-302.7 -302.7,-436.2 l -94.3,-97.4 c -34,-29.8 -69.3,-58.4 -104.2,-87.7 l -52.9,-43.4 -57.1,-37.6 -115.3,-74.9 c -84.9,-55.1 -198.4,-31 -253.6,53.9 -55.1,84.9 -31,198.4 53.9,253.6 4.5,2.9 9.1,5.6 13.8,8.1 l 17.7,9.4 96.5,51.1 48.7,25.3 45.3,31.1 91,62.5 84.2,72.5 c 108.9,100.7 210.3,215 290.9,346.2 82.4,129.6 152.1,270 207.4,417.1 27.4,73.7 52.2,148.7 72.6,224.9 21.2,75.2 38.2,155.4 49.6,227.9 l 0.8,5.5 c 7.8,49.9 54.6,84 104.5,76.2 46.8,-7.4 79.7,-49.5 77.1,-95.8"
         style="fill:#000072;fill-opacity:1;fill-rule:nonzero;stroke:none"
         id="path2874" /><path
         d="m 27848.6,13396 c -2.9,-1.6 -5.7,-3.5 -8.3,-5.6 -3,-2.3 -5.4,-4.7 -4.7,-3.7 l -1,0.3 c 0.1,1.1 0.9,3 1.4,4.5 l 5.3,12.4 13.2,26 c 9.3,17.6 19.8,34.8 30.5,52.4 22.6,34.2 47.3,68.2 78.2,100.8 30.9,33.1 66.3,64.5 122.6,94.1 29,13.1 66.7,27.1 118.7,25.1 25.3,-0.9 54.1,-7.4 79.3,-19.4 13.3,-5.6 23.9,-13 35.2,-20.5 9.9,-6.3 30.8,-26.5 39.4,-39.1 4.9,-6.8 9.4,-13.8 13.6,-21 4,-6.9 6.1,-12.2 9,-18.5 6,-13.1 8.4,-22.3 11.5,-32.8 5.3,-19.7 7.4,-36 8.6,-51.1 2.2,-29.8 1.3,-54.4 -1.3,-77.9 -5.2,-46.5 -13.1,-87.5 -24.8,-127.2 -22.4,-79.4 -51.7,-151.3 -93.7,-222.3 -26.5,-44.6 -84.1,-59.3 -128.7,-32.9 -30,17.8 -46.5,49.7 -46,82.3 l 0.1,5.2 c 1.2,72.8 9.3,146.5 14.7,214.8 1.9,34.1 5.3,67.5 4.5,96 -0.5,13.9 -0.8,27 -2.2,34.6 0.2,7.2 -7,9.9 9.9,-17 3,-5.3 17.3,-18.5 19.5,-19.5 3.3,-2.7 6.7,-3.7 11,-6.2 8.4,-3.8 18.5,-5.7 25.1,-5.9 14.4,0.2 14.9,3.3 9.8,1.1 -12,-2.1 -36.3,-17.8 -61.1,-34.8 -24.7,-17.9 -51.5,-38.7 -78.6,-60.8 l -109.2,-85.6 c -42,-28 -98.8,-16.7 -126.8,25.4 -28.1,42 -16.7,98.8 25.3,126.8"
         style="fill:#000072;fill-opacity:1;fill-rule:nonzero;stroke:none"
         id="path2876" /><path
         d="m 22792,12752.9 c 15.3,-120.1 17.6,-232.1 10.4,-349.9 -8.1,-116.7 -26.2,-235.1 -64.9,-352.9 -37.8,-117.4 -97.8,-235.2 -188.1,-337.7 -45.5,-50.8 -98.7,-96.3 -156.8,-135.1 -58.5,-38.7 -122.4,-67.5 -187.5,-91.1 l -1.6,-0.6 c -95.3,-34.6 -200.6,14.7 -235.2,110 -34.5,95.3 14.7,200.6 110,235.2 9.1,3.3 19.2,5.9 28.3,7.7 79.5,15.2 152.1,46.9 216.1,99.9 63.3,53.5 118.1,126.8 159.6,212.8 42.5,85.3 72.3,181.9 93.4,281.6 20.6,98.8 32.7,206.2 34.1,304.3 v 5.4 c 0.7,50.5 42.2,90.9 92.7,90.3 46.2,-0.7 83.9,-35.4 89.5,-79.9"
         style="fill:#000072;fill-opacity:1;fill-rule:nonzero;stroke:none"
         id="path2878" /><path
         d="m 21402.8,12898.6 c -8.6,-104.6 -7.9,-218.4 1.2,-325.7 9.2,-108.2 27.4,-214.4 57.7,-312.7 30,-98.2 73.1,-188.6 129.2,-258.5 28.3,-34.7 59,-64.9 92.4,-89.3 33.8,-23.7 70,-42.1 108,-56.5 94.7,-36 142.3,-141.9 106.3,-236.6 -36,-94.7 -141.9,-142.3 -236.6,-106.3 -7.4,2.8 -14.5,6.1 -21.3,9.7 l -1.9,1.1 c -65.5,35.4 -126.6,79.2 -180,130.1 -53,51.5 -97,109.6 -133,169.9 -71.7,121.3 -109.7,250.1 -130.6,375.2 -20.8,125.6 -24.6,249.3 -18.8,370.6 6.3,122.2 20.5,238.4 47.2,360.7 10.7,49.4 59.5,80.6 108.9,69.9 45.3,-9.9 75.4,-51.8 71.6,-96.9 l -0.3,-4.7"
         style="fill:#000072;fill-opacity:1;fill-rule:nonzero;stroke:none"
         id="path2880" /><path
         d="m 30173.2,10593.8 c 83.7,-23.1 180.7,-38.4 271,-43.9 91.5,-5.5 181.8,-0.9 266.7,14.4 84.6,16.8 161.8,47 228.5,86.9 67.3,39.8 117.6,97.4 163.1,156.4 l 6.6,8.7 c 61.9,80.4 177.2,95.3 257.6,33.5 80.4,-61.9 95.4,-177.2 33.5,-257.6 -5,-6.4 -11,-13.2 -16.6,-18.7 -88.3,-87.1 -188.6,-163.9 -302.4,-209.3 -112.5,-45.5 -229.2,-68.5 -342.4,-72.9 -113.1,-2.8 -222.5,9.5 -327.5,32.3 -106.1,23.9 -203.8,54.1 -306.2,100.4 -46,20.8 -66.5,75 -45.7,121 18.8,41.7 65,62.4 107.7,50.5 l 6.1,-1.7"
         style="fill:#000072;fill-opacity:1;fill-rule:nonzero;stroke:none"
         id="path2882" /><path
         d="m 30386.8,11883.3 c 95.3,30.2 184.8,49.3 281.2,62.4 95.4,12.4 193.8,17.3 295.8,7.2 101.6,-9.6 208.3,-35.3 310.8,-89.2 50.9,-27.4 99.9,-62 144.3,-103.4 43.9,-42 81.7,-90.3 113.6,-141.9 l 2.5,-4.1 c 53.4,-86.3 26.7,-199.7 -59.7,-253 -86.4,-53.4 -199.7,-26.7 -253.1,59.7 -5.7,9.2 -10.8,19.6 -14.7,29.4 -10.6,26.7 -23.2,52.4 -39.6,76.2 -17.1,23.1 -37.7,45 -62.2,65.1 -49.6,39.3 -115.1,70.9 -189,90.9 -73.6,20.7 -154.5,31.3 -236.9,34.7 -81.5,3.4 -169.4,-0.6 -247.5,-11.2 l -5.7,-0.7 c -50.1,-6.8 -96.2,28.4 -102.9,78.5 -6.1,44.7 21.4,86.3 63.1,99.4"
         style="fill:#000072;fill-opacity:1;fill-rule:nonzero;stroke:none"
         id="path2884" /><path
         d="m 26488.6,11117.1 c -671.8,0 -1149.5,537.3 -1260.8,1087.6 -59,292 3.7,405.5 124.5,405.5 141.9,0 364.1,-156.8 563.2,-365.6 531.1,-556.9 1784.2,-769.8 1071.8,-1033.5 -175.3,-64.9 -342.2,-94.1 -498.7,-94"
         style="fill:#c7c7d9;fill-opacity:1;fill-rule:nonzero;stroke:none"
         id="path2886" /><path
         d="m 24528.3,15986 c -45,0 -71.6,33.1 -59.2,106.8 107.6,640.4 -73,1135.4 -37.6,1135.4 35.3,0 408.9,-193.7 457.3,-621.5 40.5,-357 -233.5,-620.8 -360.5,-620.7"
         style="fill:#c7c7d9;fill-opacity:1;fill-rule:nonzero;stroke:none"
         id="path2888" /><path
         d="m 11897.7,21972.2 c -367.4,0 -750.4,-26.6 -1133.9,-80.4 -289.9,-40.6 -556.6,-109.9 -792.71,-205.8 -286.87,-116.3 -493.7,-374.7 -539.89,-674.3 l -2,-15.2 c -1.37,-10.6 -3.62,-25.3 -6.69,-44.8 -108.4,-690.8 -154.25,-1959.6 756.59,-2694.9 367.4,-296.5 958.3,-390.2 1756.2,-278.3 415.1,58.3 875,172.1 1366.9,338.5 663.1,224.2 1073.5,892.7 975.7,1589.5 l -151.2,1078.4 c -53.5,380.7 -326.8,694.6 -696.4,799.8 -436.6,124.2 -966.1,187.5 -1532.6,187.5 m -565.4,-4313.5 c -564.1,0 -1008.5,128.7 -1325.5,384.6 -1018.18,821.9 -972.96,2201.7 -855.39,2950.9 2.5,16.1 4.45,28.1 5.43,35.7 0.68,5.8 1.75,13.9 2.92,21.9 61.04,396.3 332.28,736.1 708.16,888.5 256.98,104.4 545.58,179.5 857.78,223.3 1011.2,141.8 2024.4,100 2779.7,-114.9 474,-135 824.5,-537.6 893,-1025.6 l 151.3,-1078.4 c 116.1,-827.4 -371.7,-1621.3 -1159.7,-1887.7 -507.9,-171.8 -984.6,-289.6 -1416.6,-350.2 -228.4,-32.1 -442.2,-48.1 -641.1,-48.1"
         style="fill:#3a3a3a;fill-opacity:1;fill-rule:nonzero;stroke:none"
         id="path2890" /><path
         d="m 23650.7,21292.7 c 12.6,-568.4 -104.7,-1190.5 -499.6,-1751.8 -727.4,-1034.2 -2376,-1192.3 -3690.6,-1130.2 -908.8,42.9 -1681.4,630.2 -1988.1,1454.8 -55.9,150.3 -96.5,308.2 -119.5,472.4 l -175.8,1253.4 c -94.4,42.6 -191,77.8 -288.6,106.3 -299,86.8 -609.8,107.8 -911.3,65.5 -301.6,-42.3 -594.6,-148 -858.2,-313.7 -86,-54.3 -169.1,-114.7 -248.1,-181.6 l 175.8,-1253.4 c 23,-164.3 27.5,-327.2 15.1,-487.1 -68,-877.2 -649.1,-1654.4 -1511.1,-1945.7 -1246.7,-421.4 -2875.2,-723.1 -3859.05,71.1 -534.19,431.3 -818.08,996.8 -962.34,1546.7 -201.99,772.9 -128.28,1514.7 -85.07,1809.2 l -0.05,0.3 c 12.57,85.4 22.67,132.9 22.67,132.9 0,0 -622.12,538.4 -15.21,920.4 1025.62,645 4499.15,1185.2 6118.35,-75.8 642,543.7 1539.4,669.6 2306.2,323.5 1209.8,1657.9 4697.9,2094.3 5861.4,1756.4 688.9,-200.2 238.6,-889 238.6,-889 0,0 22.8,-42.9 58.4,-121.5 v -0.3 c 122.6,-271.3 397.9,-964.2 416.1,-1762.8"
         style="fill:#68d8ff;fill-opacity:1;fill-rule:nonzero;stroke:none"
         id="path2892" /><path
         d="m 8729.31,19199.4 6332.49,327.9 c -68,-877.2 -649.1,-1654.4 -1511.1,-1945.7 -1246.7,-421.4 -2875.2,-723.1 -3859.05,71.1 -534.19,431.3 -818.08,996.8 -962.34,1546.7"
         style="fill:#3b82f6;fill-opacity:1;fill-rule:nonzero;stroke:none"
         id="path2894" /><path
         d="m 23650.7,21292.7 c 12.6,-568.4 -104.7,-1190.5 -499.6,-1751.8 -727.4,-1034.2 -2376,-1192.3 -3690.6,-1130.2 -908.8,42.9 -1681.4,630.2 -1988.1,1454.8 l 6178.3,1427.2"
         style="fill:#3b82f6;fill-opacity:1;fill-rule:nonzero;stroke:none"
         id="path2896" /><path
         d="m 23176.2,23177.3 c 0,0 22.8,-42.9 58.4,-121.5 v -0.3 l -4868.2,-1041.6 c -699.8,-149.8 -1413.4,-216.1 -2129,-230.1 -87.2,-1.7 -174.1,-8.6 -260.2,-20.7 -86.2,-12.1 -171.7,-29.4 -255.9,-51.7 -691.8,-183.5 -1396.1,-316 -2110.2,-364.6 l -4966.86,-338.2 -0.05,0.3 c 12.57,85.4 22.67,132.9 22.67,132.9 0,0 -622.12,538.4 -15.21,920.4 1025.62,645 4499.15,1185.2 6118.35,-75.8 642,543.7 1539.4,669.6 2306.2,323.5 1209.8,1657.9 4697.9,2094.3 5861.4,1756.4 688.9,-200.2 238.6,-889 238.6,-889"
         style="fill:#69f1ff;fill-opacity:1;fill-rule:nonzero;stroke:none"
         id="path2898" /><path
         d="m 14413.8,19925.6 c 106.9,-762 -341.9,-1493.2 -1067.7,-1738.6 -500.6,-169.3 -968.7,-285 -1391.8,-344.3 -837,-117.5 -1463.3,-14 -1861.3,307.4 -1173.16,947 -819.59,2709.3 -800.09,2862.4 0.74,6.2 1.7,13.1 2.68,20.1 54.2,351.9 294.18,646.9 623.9,780.6 206.41,83.8 479.41,166 825.31,214.5 848,119 1887.6,126.7 2723.1,-111 422.1,-120.2 733.6,-477.9 794.6,-912.7 l 151.3,-1078.4"
         style="fill:#68d8ff;fill-opacity:1;fill-rule:nonzero;stroke:none"
         id="path2900" /><path
         d="m 21458.6,23358 c -162,0 -330.8,-12.3 -504.7,-36.7 -974.8,-136.7 -1898.4,-441.7 -2534.1,-836.7 -326.4,-202.8 -502.8,-579.8 -449.4,-960.4 l 151.3,-1078.4 c 97.7,-696.9 676.2,-1226.7 1375.5,-1259.7 518.5,-24.6 992.1,-7.6 1407.2,50.7 797.8,111.9 1340.1,364.5 1611.7,750.8 673.4,957.4 280.2,2164.6 -14.1,2799 -8.3,17.9 -14.5,31.4 -18.2,40 l -6.9,16 c -126.5,274.6 -396.4,466.1 -704,499.1 -101.4,10.8 -206.3,16.3 -314.3,16.3 m -1514,-4457.2 c -149.4,0 -302.9,3.7 -460.4,11.1 -830.9,39.4 -1518.2,668.4 -1634.3,1495.7 l -151.3,1078.4 c -68.5,488.1 157.7,971.6 576.3,1231.7 667,414.5 1629.5,733.5 2640.8,875.4 312.1,43.8 610.4,51 886.4,21.4 403.1,-43.1 757.3,-295.2 924.4,-657.8 4.5,-10.1 7.5,-17.1 10.2,-23.5 2.3,-5.4 7.5,-16.4 14.3,-31.2 319.2,-688 742.3,-2002 -10.4,-3072.3 -317.1,-450.8 -922,-741.8 -1798.1,-864.7 -305,-42.8 -639.3,-64.2 -997.9,-64.2 m -8046.9,3071.4 c -367.4,0 -750.4,-26.6 -1133.9,-80.4 -289.9,-40.6 -556.6,-109.9 -792.71,-205.8 -286.87,-116.3 -493.75,-374.7 -539.89,-674.4 l -2,-15.1 c -1.37,-10.6 -3.62,-25.3 -6.69,-44.8 -108.4,-690.8 -154.25,-1959.6 756.59,-2694.9 367.4,-296.5 958.3,-390.2 1756.2,-278.3 415.1,58.3 875,172.1 1366.9,338.5 663.1,224.2 1073.5,892.7 975.7,1589.5 l -151.2,1078.4 c -53.5,380.7 -326.8,694.6 -696.4,799.8 -436.6,124.2 -966.1,187.5 -1532.6,187.5 m -565.4,-4313.5 c -564.1,0 -1008.5,128.7 -1325.5,384.6 -1018.18,821.9 -972.96,2201.7 -855.39,2950.9 2.5,16.1 4.45,28.1 5.43,35.7 0.68,5.8 1.75,13.9 2.92,21.9 61.04,396.3 332.28,736.1 708.16,888.5 256.98,104.4 545.58,179.5 857.78,223.3 1011.3,141.8 2024.4,99.9 2779.7,-114.9 474,-135 824.5,-537.6 893,-1025.6 l 151.3,-1078.4 c 116.1,-827.4 -371.7,-1621.3 -1159.7,-1887.7 -507.9,-171.8 -984.6,-289.6 -1416.6,-350.2 -228.4,-32.1 -442.2,-48.1 -641.1,-48.1 m 583.3,4950.6 c -1328.8,0 -2646.75,-321 -3190.9,-663.2 -127.44,-80.3 -193.21,-167 -200.92,-265.3 -13.97,-177.8 163.52,-374.6 233.11,-435.5 37.3,-32.6 54.39,-83.1 44.28,-131.5 -4.59,-22 -441.35,-2209.7 976.66,-3354.3 944.17,-762.2 2548.97,-446.7 3728.87,-47.9 954,322.4 1544.5,1282.8 1404.1,2283.7 l -175.8,1253.4 c -6.6,46.7 11.3,93.4 47.2,123.8 335.2,283.5 741.8,465.5 1175.9,526.5 433.8,60.8 875.1,-2.3 1275.3,-182.6 43,-19.3 73,-59.4 79.5,-106 l 175.9,-1253.4 c 140.4,-1000.9 972.3,-1761.8 1978.1,-1809.2 1244.5,-58.9 2873.9,79.4 3572,1072 1048.5,1490.7 26.4,3473.7 15.9,3493.6 -23.1,43.9 -20.7,97.1 6.4,138.7 50.2,77.6 166.7,315.7 104.4,482.7 -34.4,92.4 -121.6,157.7 -266.3,199.8 -1099.6,319.4 -4541.9,-101.7 -5712.2,-1705.5 -38.4,-52.5 -108.2,-70.9 -167.3,-44.2 -714.6,322.5 -1562.9,203.5 -2161.1,-303.2 -49.6,-42 -121.8,-43.4 -173,-3.5 -687,535 -1731.9,731.1 -2770.1,731.1 m -579.8,-5587.4 c -643.6,0 -1255.7,140.9 -1730.33,524 -1412.14,1140 -1158.49,3131 -1086.97,3548.9 -99.65,104.4 -288.62,339.7 -268.38,606.2 14.33,188.6 124.83,349.2 328.45,477.3 574.16,361.1 1740.83,641.5 2903.03,697.8 809,39 2290.2,-4.9 3285.1,-716.1 643.4,493.9 1510.4,615.6 2264.9,317.7 760.9,957.6 2172.8,1407.5 2961.3,1592.4 1132.9,265.7 2331.7,317.2 2983,128 231.1,-67.2 381.6,-191.2 447.3,-368.6 92.8,-250.6 -24.3,-528.8 -91.4,-656.6 183.9,-382.2 975.7,-2226.5 -68.5,-3711 -769.7,-1094.4 -2496.3,-1250 -3809.3,-1188.2 -1137.4,53.6 -2078.2,913.7 -2237,2045.1 l -165.1,1176.9 c -334.3,136.3 -697.7,181.7 -1055.7,131.5 -358,-50.2 -694.8,-193.9 -978.7,-416.9 l 165.1,-1176.9 c 158.7,-1131.4 -509.1,-2217.2 -1588,-2581.7 -677.5,-229.1 -1490.5,-429.8 -2258.8,-429.8"
         style="fill:#000072;fill-opacity:1;fill-rule:nonzero;stroke:none"
         id="path2902" /><path
         d="m 14262.5,21004 151.3,-1078.4 c 106.9,-762 -341.9,-1493.2 -1067.7,-1738.6 -426.4,-144.1 -829.1,-249.6 -1200.5,-314.3 -64.8,-11.3 -128.6,-21.2 -191.3,-30 -544.3,-76.4 -999.7,-59.3 -1361,50.4 -194.1,58.9 -361.3,144.5 -500.3,257 -7.3,5.7 -14.2,11.5 -21.2,17.7 -383.33,317.2 -599.64,722.8 -717.14,1128.1 -234.08,808.3 -74.61,1615.1 -61.75,1716.6 0.74,6.2 1.7,13.1 2.68,20.1 54.2,351.9 294.18,646.9 623.9,780.6 206.41,83.8 479.41,166 825.31,214.5 229.1,32.1 472.2,56.2 721.8,69.3 500.5,26.7 1026.3,9.8 1513.6,-71.6 167.9,-28.4 331.4,-64.2 487.7,-108.7 43,-12.4 85.1,-27.1 125.6,-44.4 357.5,-149.5 614.2,-477.8 669,-868.3"
         style="fill:#000072;fill-opacity:1;fill-rule:nonzero;stroke:none"
         id="path2904" /><path
         d="m 10071.8,18167.8 v 0 c -383.33,317.2 -599.64,722.8 -717.14,1128.1 L 11466.6,22097 c 143.3,7.6 288.7,11.7 434.6,11.7 363.9,0 731.2,-25.2 1079,-83.3 l -2908.4,-3857.6"
         style="fill:#4d4d9d;fill-opacity:1;fill-rule:nonzero;stroke:none"
         id="path2906" /><path
         d="m 11331,17795.8 c -278,0 -524.2,32.5 -737.7,97.3 l 3000.2,3979.2 c 357.5,-149.5 614.2,-477.8 669,-868.3 l 38.3,-272.8 -2155.2,-2858.5 v 0 c -64.8,-11.3 -128.6,-21.2 -191.3,-30 -222.7,-31.3 -430.6,-46.9 -623.3,-46.9"
         style="fill:#4d4d9d;fill-opacity:1;fill-rule:nonzero;stroke:none"
         id="path2908" /><path
         d="m 11897.7,21972.2 c -367.4,0 -750.4,-26.6 -1133.9,-80.4 -289.9,-40.6 -556.6,-109.9 -792.71,-205.8 -286.86,-116.3 -493.7,-374.7 -539.89,-674.3 l -2,-15.2 c -1.37,-10.6 -3.61,-25.3 -6.69,-44.8 -108.4,-690.8 -154.25,-1959.6 756.69,-2694.9 367.3,-296.5 958.2,-390.2 1756.1,-278.3 415.1,58.3 875,172.1 1366.8,338.5 663.2,224.2 1073.6,892.7 975.8,1589.5 l -151.2,1078.4 c -53.5,380.7 -326.8,694.6 -696.4,799.8 -436.6,124.2 -966.1,187.5 -1532.6,187.5 z m -565.4,-4313.5 c -564.1,0 -1008.5,128.7 -1325.5,384.6 -1018.18,821.9 -972.96,2201.7 -855.38,2950.9 2.49,16.1 4.44,28.1 5.42,35.7 0.68,5.8 1.75,13.9 2.93,21.9 61.03,396.3 332.27,736.1 708.15,888.5 256.98,104.4 545.58,179.5 857.78,223.3 1011.2,141.8 2024.3,100 2779.7,-114.9 474,-135 824.5,-537.6 893,-1025.6 l 151.3,-1078.4 c 116.1,-827.4 -371.7,-1621.3 -1159.7,-1887.7 -507.9,-171.8 -984.6,-289.6 -1416.6,-350.2 -228.4,-32.1 -442.2,-48.1 -641.1,-48.1"
         style="fill:#000072;fill-opacity:1;fill-rule:nonzero;stroke:none"
         id="path2910" /><path
         d="m 17842.4,21506.2 151.3,-1078.4 c 106.9,-762 739.6,-1341.5 1504.9,-1377.7 449.5,-21.2 865.8,-11.8 1240.6,28.2 65.5,6.9 129.5,14.9 192.2,23.7 544.2,76.4 977.4,218.1 1294.6,423 170.4,110.1 307.6,238.4 410.3,384.7 5.4,7.6 10.5,15.1 15.5,22.9 281.2,410.5 377.6,859.9 379,1281.9 2.6,841.5 -372.7,1573.3 -413,1667.3 -2.4,5.8 -5.2,12.2 -8.1,18.6 -148.9,323.4 -460.8,541 -814.6,578.8 -221.4,23.8 -506.6,27.6 -852.4,-20.9 -229.1,-32.1 -469.5,-75.8 -713,-131.9 -488.6,-112.1 -989.4,-273.1 -1435.5,-485.4 -153.6,-73.5 -300.9,-152.9 -438.9,-238.7 -38,-23.7 -74.4,-49.5 -108.6,-77.2 -302.6,-242.1 -459.1,-628.4 -404.3,-1018.9"
         style="fill:#000072;fill-opacity:1;fill-rule:nonzero;stroke:none"
         id="path2912" /><path
         d="M 22651.8,19932.6 18794.2,22841 c 446.1,212.3 946.9,373.3 1435.5,485.4 l 2801.1,-2111.9 c -1.4,-422 -97.8,-871.4 -379,-1281.9 v 0"
         style="fill:#4d4d9d;fill-opacity:1;fill-rule:nonzero;stroke:none"
         id="path2914" /><path
         d="m 20739.2,19078.3 -2858.5,2155.1 -38.3,272.8 c -7.3,51.9 -10.8,103.7 -10.8,155 0.2,335.6 152.7,653.9 415.1,863.9 L 22226,19525 c -317.2,-204.9 -750.4,-346.6 -1294.6,-423 -62.7,-8.8 -126.7,-16.8 -192.2,-23.7 v 0"
         style="fill:#4d4d9d;fill-opacity:1;fill-rule:nonzero;stroke:none"
         id="path2916" /><path
         d="m 17978.3,21525.3 151.3,-1078.4 c 97.7,-696.9 676.2,-1226.6 1375.5,-1259.7 518.7,-24.6 992.1,-7.6 1407.3,50.7 797.8,111.9 1340,364.5 1611.6,750.8 673.4,957.4 280.2,2164.6 -14,2799 -8.3,17.9 -14.6,31.4 -18.3,40 l -7.3,16.9 c -126.1,273.7 -396.1,465.2 -703.9,498.2 -253.4,27.2 -528.8,20.4 -818.8,-20.4 -974.7,-136.7 -1898.3,-441.7 -2534,-836.7 -326.4,-202.8 -502.8,-579.8 -449.4,-960.4 z m 1974,-2623.4 c -149.3,0 -302.8,3.7 -460.2,11.1 -830.9,39.4 -1518.2,668.4 -1634.3,1495.7 l -151.3,1078.4 c -68.5,488.1 157.8,971.6 576.4,1231.7 667,414.5 1629.5,733.5 2640.7,875.4 312.3,43.8 610.5,51 886.2,21.4 403.2,-43.1 757.5,-295.2 924.6,-657.8 4.1,-9.3 7.4,-16.9 10.3,-23.7 2.2,-5.2 7.4,-16.2 14.2,-31 319.2,-688 742.3,-2002 -10.4,-3072.3 -317.1,-450.8 -922,-741.8 -1798.1,-864.7 -305,-42.8 -639.4,-64.2 -998.1,-64.2"
         style="fill:#3a3a3a;fill-opacity:1;fill-rule:nonzero;stroke:none"
         id="path2918" /><path
         d="m 21458.6,23358 c -162,0 -330.8,-12.3 -504.7,-36.7 -974.8,-136.7 -1898.4,-441.7 -2534.1,-836.7 -326.4,-202.8 -502.9,-579.8 -449.4,-960.4 l 151.3,-1078.4 c 97.7,-696.9 676.2,-1226.7 1375.5,-1259.7 518.5,-24.6 992,-7.6 1407.2,50.7 797.8,111.9 1340.1,364.5 1611.7,750.8 673.4,957.4 280.2,2164.6 -14,2799 -8.3,17.9 -14.6,31.4 -18.3,40 l -6.9,16 c -126.5,274.6 -396.4,466.1 -704,499.1 -101.4,10.8 -206.3,16.3 -314.3,16.3 z m -1514,-4457.2 c -149.4,0 -302.9,3.7 -460.4,11.1 -830.9,39.3 -1518.2,668.4 -1634.3,1495.7 l -151.3,1078.4 c -68.5,488.1 157.7,971.6 576.4,1231.7 666.9,414.5 1629.4,733.5 2640.7,875.4 312.1,43.8 610.4,51 886.4,21.4 403.1,-43.1 757.3,-295.2 924.4,-657.8 4.5,-10.1 7.5,-17.1 10.2,-23.5 2.3,-5.4 7.5,-16.4 14.3,-31.2 319.2,-688 742.3,-2002 -10.4,-3072.3 -317.1,-450.8 -922,-741.8 -1798.1,-864.7 -305,-42.8 -639.2,-64.2 -997.9,-64.2"
         style="fill:#000072;fill-opacity:1;fill-rule:nonzero;stroke:none"
         id="path2920" /><path
         d="m 9667.42,14277.7 -538.14,-40.4 c -225.27,-16.9 -404.32,-195.9 -421.2,-421.2 l -40.36,-538.1 -40.35,538.1 c -16.88,225.3 -195.93,404.3 -421.2,421.2 l -538.14,40.4 538.14,40.3 c 225.27,16.9 404.32,196 421.2,421.2 l 40.35,538.2 40.36,-538.2 c 16.88,-225.2 195.93,-404.3 421.2,-421.2 l 538.14,-40.3"
         style="fill:#ffffff;fill-opacity:1;fill-rule:nonzero;stroke:none"
         id="path2922" /><path
         d="M 26114.5,25929.3 25498,25883 c -258,-19.3 -463.1,-224.4 -482.4,-482.4 l -46.2,-616.4 -46.3,616.4 c -19.3,258 -224.4,463.1 -482.4,482.4 l -616.4,46.3 616.4,46.2 c 258,19.3 463.1,224.4 482.4,482.4 l 46.3,616.5 46.2,-616.5 c 19.3,-258 224.4,-463.1 482.4,-482.4 l 616.5,-46.2"
         style="fill:#ffffff;fill-opacity:1;fill-rule:nonzero;stroke:none"
         id="path2924" /><path
         d="m 7905.76,22761 -332.23,-24.9 c -139.08,-10.4 -249.62,-121 -260.05,-260 l -24.92,-332.3 -24.9,332.3 c -10.43,139 -120.97,249.6 -260.05,260 l -332.24,24.9 332.24,24.9 c 139.08,10.5 249.62,121 260.05,260.1 l 24.9,332.2 24.92,-332.2 c 10.43,-139.1 120.97,-249.6 260.05,-260.1 l 332.23,-24.9"
         style="fill:#ffffff;fill-opacity:1;fill-rule:nonzero;stroke:none"
         id="path2926" /></g></g></svg>
